{"glyphs":{"0":{"ha":836,"x_min":88,"x_max":747,"o":"m 401 -8 q 241 55 313 -8 q 128 223 169 118 q 88 449 88 328 q 134 699 88 582 q 260 885 181 815 q 435 956 340 956 q 595 893 524 956 q 707 726 667 831 q 747 497 747 621 q 701 247 747 363 q 574 61 654 131 q 401 -8 494 -8 m 401 50 q 544 110 478 50 q 651 274 611 171 q 692 494 692 376 q 658 693 692 600 q 565 842 624 786 q 435 897 507 897 q 292 837 358 897 q 185 674 225 776 q 144 451 144 571 q 178 255 144 347 q 269 106 211 163 q 401 50 328 50 z "},"1":{"ha":533,"x_min":85,"x_max":461,"o":"m 119 0 q 98 8 107 0 q 89 31 89 17 q 98 51 89 42 q 119 61 107 61 l 257 61 l 268 843 l 138 703 q 115 693 128 693 q 94 702 103 693 q 85 724 85 711 q 88 734 85 729 q 93 743 90 739 l 276 942 q 299 951 286 951 q 320 942 311 951 q 329 922 329 933 l 317 61 l 428 61 q 452 52 443 61 q 461 31 461 43 q 452 8 461 17 q 431 0 443 0 l 119 0 z "},"2":{"ha":711,"x_min":79,"x_max":638,"o":"m 88 29 q 124 224 88 144 q 216 356 160 304 q 360 464 272 407 q 474 543 436 514 q 538 615 511 572 q 564 717 564 658 q 506 839 564 790 q 365 888 449 888 q 228 850 285 888 q 143 781 171 813 q 135 771 140 778 q 123 760 129 764 q 110 756 117 756 q 88 765 97 756 q 79 788 79 775 q 115 838 79 804 q 224 915 161 883 q 365 947 286 947 q 498 916 439 947 q 590 832 557 885 q 624 717 624 779 q 592 588 624 642 q 516 498 561 533 q 390 411 471 463 q 269 320 317 363 q 187 213 221 278 q 149 58 153 149 l 607 58 q 628 50 619 58 q 638 29 638 42 q 628 8 638 17 q 607 0 619 0 l 88 0 l 88 29 z "},"3":{"ha":683,"x_min":36,"x_max":597,"o":"m 313 -8 q 167 24 226 -8 q 78 91 108 56 q 42 143 49 126 q 36 165 36 153 q 45 183 36 175 q 65 192 54 192 q 93 175 81 192 q 172 91 119 131 q 308 51 225 51 q 418 76 365 51 q 504 152 471 101 q 538 276 538 203 q 493 413 538 363 q 390 484 449 464 q 285 504 332 504 q 264 513 272 504 q 256 535 256 522 q 264 556 256 547 q 286 564 272 564 q 392 590 339 564 q 481 658 446 615 q 515 750 515 701 q 491 820 515 786 q 419 876 467 854 q 310 897 372 897 q 135 840 208 897 q 110 826 117 826 q 88 836 96 826 q 79 857 79 846 q 121 904 79 881 q 206 942 156 926 q 310 957 256 957 q 444 930 383 957 q 540 855 504 903 q 575 750 575 807 q 533 631 575 688 q 418 536 490 575 q 551 431 504 500 q 597 276 597 363 q 551 114 597 178 q 440 21 506 50 q 313 -8 374 -8 z "},"4":{"ha":665,"x_min":42,"x_max":589,"o":"m 471 -8 q 449 1 457 -8 q 440 22 440 10 l 440 231 l 69 236 q 49 244 57 236 q 42 261 42 251 q 50 285 42 271 l 443 933 q 471 950 453 950 q 493 942 485 950 q 501 921 501 935 l 501 289 l 560 288 q 581 278 572 288 q 589 258 589 269 q 581 236 589 244 q 560 228 572 228 l 501 229 l 501 22 q 492 1 501 10 q 471 -8 483 -8 m 440 813 l 126 294 l 440 290 l 440 813 z "},"5":{"ha":751,"x_min":78,"x_max":669,"o":"m 354 -8 q 224 18 282 -8 q 128 80 165 44 q 81 142 92 115 q 78 158 78 150 q 87 178 78 169 q 108 188 96 188 q 125 183 119 188 q 136 169 131 179 q 232 81 181 111 q 354 51 283 51 q 480 92 421 51 q 574 201 539 133 q 610 347 610 269 q 585 473 610 414 q 508 569 560 532 q 382 606 457 606 q 171 511 265 606 q 147 499 158 499 q 122 510 132 499 q 115 535 113 521 l 154 911 q 164 930 156 922 q 183 938 172 938 l 600 938 q 621 928 613 938 q 629 908 629 919 q 621 886 629 894 q 600 878 613 878 l 211 878 l 183 603 q 382 665 292 665 q 529 626 464 665 q 632 514 594 586 q 669 347 669 442 q 626 171 669 253 q 509 40 582 89 q 354 -8 436 -8 z "},"6":{"ha":742,"x_min":83,"x_max":664,"o":"m 382 -8 q 237 26 304 -8 q 126 137 169 60 q 83 339 83 214 q 194 717 83 569 q 460 943 304 865 q 482 949 471 949 q 501 941 493 949 q 510 922 510 933 q 493 896 510 904 q 290 751 375 843 q 164 531 204 658 q 274 588 210 565 q 400 611 338 611 q 534 579 474 611 q 629 484 594 547 q 664 332 664 421 q 625 151 664 228 q 522 33 586 74 q 382 -8 457 -8 m 382 47 q 493 80 442 47 q 576 177 544 113 q 608 332 608 242 q 550 498 608 442 q 400 554 492 554 q 245 519 308 554 q 146 446 182 483 q 139 339 139 403 q 208 114 139 181 q 382 47 278 47 z "},"7":{"ha":638,"x_min":39,"x_max":614,"o":"m 143 -8 q 122 1 131 -8 q 113 22 113 10 q 117 35 113 29 l 536 868 l 69 868 q 48 876 57 868 q 39 899 39 885 q 48 919 39 910 q 69 928 57 928 l 583 928 q 606 919 597 928 q 614 897 614 910 q 611 883 614 889 l 169 7 q 158 -4 165 0 q 143 -8 150 -8 z "},"8":{"ha":714,"x_min":72,"x_max":642,"o":"m 357 -8 q 210 24 275 -8 q 109 114 146 57 q 72 242 72 171 q 135 404 76 340 q 286 511 194 468 q 119 715 119 585 q 153 842 119 788 q 246 926 188 897 q 372 956 304 956 q 499 928 443 956 q 585 850 554 900 q 617 738 617 800 q 571 612 617 664 q 449 521 525 560 q 591 406 540 475 q 642 257 642 338 q 605 122 642 182 q 503 26 568 61 q 357 -8 438 -8 m 365 549 q 517 638 476 592 q 558 746 558 685 q 506 855 558 814 q 374 896 453 896 q 233 849 290 896 q 176 721 176 801 q 221 617 176 657 q 365 549 265 576 m 357 50 q 466 72 414 50 q 551 140 518 94 q 585 251 585 186 q 524 398 585 339 q 374 486 463 457 q 247 426 292 451 q 167 353 201 400 q 132 233 132 306 q 162 139 132 181 q 243 74 192 97 q 357 50 294 50 z "},"9":{"ha":736,"x_min":71,"x_max":650,"o":"m 251 -8 q 232 0 240 -8 q 224 19 224 8 q 228 35 224 28 q 240 44 233 42 q 439 194 350 97 q 569 411 528 292 q 460 353 525 376 q 333 331 396 331 q 200 363 260 331 q 106 457 140 394 q 71 608 71 519 q 110 792 71 715 q 215 909 150 869 q 357 949 281 949 q 571 858 492 949 q 650 601 650 768 q 545 235 650 386 q 274 -3 440 83 q 251 -8 263 -8 m 333 388 q 488 422 425 388 q 588 494 551 457 q 594 601 594 538 q 530 821 594 749 q 356 893 465 893 q 237 858 289 893 q 155 758 185 822 q 125 608 125 693 q 180 447 125 507 q 333 388 235 388 z "},"\r":{"ha":833,"x_min":0,"x_max":0,"o":""}," ":{"ha":449,"x_min":0,"x_max":0,"o":""},"!":{"ha":347,"x_min":132,"x_max":215,"o":"m 181 208 q 158 218 168 208 q 149 240 149 228 l 149 929 q 158 952 149 943 q 181 961 168 961 q 203 952 194 961 q 213 929 213 943 l 213 240 q 203 218 213 228 q 181 208 194 208 m 168 -8 q 142 4 153 -8 q 132 35 132 17 q 147 74 132 57 q 179 90 161 90 q 206 78 196 90 q 215 50 215 67 q 201 9 215 26 q 168 -8 186 -8 z "},"\"":{"ha":375,"x_min":72,"x_max":303,"o":"m 103 706 q 81 715 89 706 q 72 736 72 724 l 72 928 q 81 949 72 940 q 103 957 89 957 q 124 949 115 957 q 133 928 133 940 l 133 736 q 124 715 133 724 q 103 706 114 706 m 272 706 q 251 715 260 706 q 242 736 242 724 l 242 928 q 251 949 242 940 q 272 957 260 957 q 294 949 285 957 q 303 928 303 940 l 303 736 q 294 715 303 724 q 272 706 285 706 z "},"#":{"ha":1011,"x_min":69,"x_max":940,"o":"m 233 -8 q 211 0 219 -8 q 203 19 203 8 q 207 43 203 29 l 281 292 l 100 292 q 78 300 88 292 q 69 322 69 308 q 78 343 69 335 q 100 351 88 351 l 297 351 l 371 604 l 164 604 q 142 613 151 604 q 133 635 133 622 q 142 656 133 647 q 164 665 151 665 l 390 665 l 467 935 q 478 950 469 944 q 496 956 486 956 q 517 948 510 956 q 525 928 525 940 q 521 907 525 922 l 450 665 l 690 665 l 768 935 q 779 950 771 944 q 797 956 788 956 q 818 947 810 956 q 826 929 826 939 q 822 908 826 921 l 751 665 l 910 665 q 931 656 922 665 q 940 635 940 647 q 931 613 940 622 q 910 604 922 604 l 735 604 l 660 351 l 846 351 q 867 343 858 351 q 876 322 876 335 q 867 300 876 308 q 846 292 858 292 l 643 292 l 563 14 q 535 -8 556 -8 q 513 1 521 -8 q 504 22 504 10 q 508 44 504 31 l 582 292 l 342 292 l 261 14 q 251 -2 258 4 q 233 -8 243 -8 m 600 351 l 672 604 l 433 604 l 358 351 l 600 351 z "},"$":{"ha":850,"x_min":90,"x_max":731,"o":"m 731 260 q 694 134 731 190 q 593 44 657 78 q 450 4 529 10 l 450 -83 q 442 -105 450 -96 q 421 -114 433 -114 q 401 -105 410 -114 q 393 -83 393 -96 l 393 4 q 207 60 286 10 q 97 188 128 110 q 90 211 90 201 q 100 233 90 224 q 124 242 110 242 q 154 218 147 242 q 245 108 178 151 q 394 58 313 65 l 397 472 q 213 565 282 508 q 143 713 143 622 q 213 860 143 801 q 399 931 282 919 l 399 1015 q 406 1037 399 1028 q 426 1046 414 1046 q 446 1036 438 1046 q 454 1015 454 1026 l 454 932 q 653 882 582 931 q 729 753 724 833 l 729 750 q 721 731 729 739 q 701 724 713 724 q 683 731 690 724 q 674 747 675 738 q 609 841 667 803 q 453 881 551 879 l 450 518 l 451 518 q 663 414 594 476 q 731 260 731 351 m 204 718 q 250 613 204 656 q 397 536 296 571 l 399 878 q 254 826 304 868 q 204 718 204 783 m 450 58 q 608 119 546 65 q 671 256 671 174 q 619 372 671 322 q 450 456 567 421 l 450 58 z "},"%":{"ha":968,"x_min":65,"x_max":900,"o":"m 250 594 q 158 619 200 594 q 90 687 115 644 q 65 779 65 729 q 90 871 65 829 q 158 938 115 913 q 250 963 200 963 q 342 938 300 963 q 409 872 385 914 q 433 779 433 829 q 408 687 433 729 q 342 619 383 644 q 250 594 300 594 m 232 -8 q 214 -1 221 -8 q 207 17 207 7 q 213 35 207 25 l 717 944 q 738 957 722 957 q 757 949 749 957 q 765 931 765 942 q 763 918 765 926 l 257 6 q 232 -8 249 -8 m 250 651 q 340 688 303 651 q 376 779 376 725 q 340 869 376 832 q 250 906 303 906 q 160 868 197 906 q 122 779 122 831 q 160 688 122 725 q 250 651 197 651 m 715 -19 q 624 6 667 -19 q 556 73 581 31 q 531 165 531 115 q 556 257 531 215 q 624 324 581 299 q 715 349 667 349 q 808 324 765 349 q 875 257 850 299 q 900 165 900 215 q 875 73 900 115 q 808 6 850 31 q 715 -19 765 -19 m 715 38 q 805 74 768 38 q 842 165 842 111 q 804 254 842 217 q 715 292 767 292 q 626 254 664 292 q 589 165 589 217 q 626 74 589 111 q 715 38 663 38 z "},"&":{"ha":875,"x_min":72,"x_max":814,"o":"m 351 -14 q 219 17 283 -14 q 113 107 154 49 q 72 240 72 165 q 105 369 72 315 q 186 458 138 422 q 311 536 235 494 q 197 765 197 668 q 225 860 197 815 q 299 931 253 904 q 397 957 346 957 q 493 931 447 957 q 567 860 539 904 q 596 769 596 817 q 551 634 596 689 q 401 522 506 579 l 625 256 q 650 312 640 283 q 668 368 660 340 q 683 399 676 392 q 703 407 689 407 q 722 399 714 407 q 729 379 729 390 q 706 299 729 361 q 665 208 682 238 l 807 39 q 814 21 814 29 q 805 0 814 8 q 785 -8 796 -8 q 763 1 769 -8 l 633 156 q 483 19 560 53 q 351 -14 406 -14 m 364 567 q 484 642 446 607 q 531 703 522 676 q 540 767 540 731 q 520 831 540 800 q 467 881 500 861 q 397 900 433 900 q 331 882 364 900 q 276 833 297 864 q 254 765 254 801 q 288 661 254 717 q 364 567 322 606 m 351 43 q 466 74 399 43 q 596 201 533 106 l 351 494 q 229 423 274 454 q 157 347 185 392 q 129 240 129 303 q 165 132 129 176 q 251 65 200 88 q 351 43 303 43 z "},"'":{"ha":254,"x_min":101,"x_max":163,"o":"m 132 706 q 110 715 119 706 q 101 736 101 724 l 101 928 q 110 949 101 940 q 132 957 119 957 q 153 949 144 957 q 163 928 163 940 l 163 736 q 153 715 163 724 q 132 706 144 706 z "},"(":{"ha":486,"x_min":93,"x_max":414,"o":"m 365 -162 q 338 -149 351 -162 q 165 128 236 -29 q 93 483 93 286 q 166 814 93 653 q 358 1093 239 975 q 385 1108 374 1108 q 406 1099 397 1108 q 414 1078 414 1090 q 404 1056 414 1064 q 228 810 303 960 q 154 483 154 660 q 223 149 154 307 q 385 -111 292 -8 q 394 -135 394 -119 q 385 -154 394 -146 q 365 -162 376 -162 z "},")":{"ha":486,"x_min":72,"x_max":393,"o":"m 121 -162 q 101 -154 110 -162 q 92 -135 92 -146 q 101 -111 92 -119 q 263 144 192 -15 q 333 483 333 304 q 263 799 333 653 q 82 1056 193 944 q 72 1078 72 1064 q 81 1099 72 1090 q 101 1108 89 1108 q 128 1093 113 1108 q 320 814 247 975 q 393 483 393 653 q 326 139 393 299 q 149 -149 258 -21 q 121 -162 138 -162 z "},"*":{"ha":515,"x_min":76,"x_max":439,"o":"m 158 615 q 138 624 146 615 q 131 643 131 632 q 160 697 131 664 q 233 767 185 726 q 179 774 206 768 q 126 789 153 781 q 76 828 76 800 q 85 848 76 840 q 106 856 93 856 q 161 839 125 856 q 242 794 204 819 q 225 918 225 851 q 233 951 225 939 q 257 963 242 963 q 279 951 271 963 q 288 918 288 939 q 272 794 288 851 q 408 856 367 856 q 429 849 421 856 q 438 831 438 842 q 429 806 439 815 q 390 788 419 797 q 332 773 354 778 q 281 767 310 768 q 323 728 306 747 q 346 703 340 708 q 383 647 383 663 q 376 625 383 635 q 356 615 368 615 q 331 627 343 615 q 304 663 319 639 q 283 699 297 675 q 257 751 268 724 q 211 661 243 713 q 183 626 194 636 q 158 615 172 615 z "},"+":{"ha":621,"x_min":81,"x_max":540,"o":"m 310 114 q 290 122 299 114 q 282 142 282 131 l 282 311 l 110 311 q 90 320 99 311 q 81 340 81 329 q 90 361 81 353 q 110 369 99 369 l 282 369 l 282 525 q 290 544 282 536 q 310 553 299 553 q 330 544 321 553 q 339 525 339 536 l 339 369 l 511 369 q 531 361 522 369 q 540 340 540 353 q 531 320 540 329 q 511 311 522 311 l 339 311 l 339 142 q 330 122 339 131 q 310 114 321 114 z "},",":{"ha":208,"x_min":49,"x_max":153,"o":"m 72 -140 q 56 -134 63 -140 q 49 -121 49 -128 q 51 -108 49 -119 l 88 -12 q 69 28 69 6 q 83 66 69 50 q 117 82 97 82 q 142 71 132 82 q 153 46 153 60 q 147 10 153 29 q 126 -42 140 -10 q 110 -85 122 -53 q 89 -128 97 -117 q 72 -140 81 -140 z "},"-":{"ha":558,"x_min":74,"x_max":485,"o":"m 103 310 q 83 319 92 310 q 74 339 74 328 q 83 359 74 350 q 103 368 92 368 l 456 368 q 476 359 467 368 q 485 339 485 350 q 476 319 485 328 q 456 310 467 310 l 103 310 z "},".":{"ha":192,"x_min":53,"x_max":136,"o":"m 89 -8 q 63 5 74 -8 q 53 36 53 18 q 67 74 53 57 q 100 90 82 90 q 126 78 115 90 q 136 50 136 67 q 122 9 136 26 q 89 -8 108 -8 z "},"/":{"ha":586,"x_min":40,"x_max":553,"o":"m 69 -169 q 49 -161 58 -169 q 40 -140 40 -153 q 46 -124 40 -135 l 499 944 q 525 960 504 960 q 545 952 538 960 q 553 935 553 944 q 547 911 553 925 l 93 -157 q 69 -169 88 -169 z "},":":{"ha":271,"x_min":72,"x_max":196,"o":"m 150 503 q 124 516 133 503 q 114 547 114 529 q 128 585 114 568 q 161 603 143 603 q 185 590 175 603 q 196 561 196 578 q 183 520 196 538 q 150 503 169 503 m 108 -8 q 82 5 92 -8 q 72 36 72 18 q 87 74 72 57 q 119 90 101 90 q 145 78 135 90 q 156 50 156 67 q 142 9 156 26 q 108 -8 128 -8 z "},";":{"ha":258,"x_min":49,"x_max":203,"o":"m 157 503 q 131 516 140 503 q 121 547 121 529 q 135 585 121 568 q 168 603 150 603 q 192 590 182 603 q 203 561 203 578 q 190 520 203 538 q 157 503 176 503 m 71 -140 q 55 -134 61 -140 q 49 -121 49 -128 q 54 -103 49 -115 l 88 -12 q 69 28 69 6 q 83 66 69 50 q 117 82 97 82 q 142 70 132 82 q 153 43 153 58 q 147 6 153 25 q 124 -53 140 -14 l 113 -79 q 100 -108 108 -89 q 85 -133 92 -126 q 71 -140 79 -140 z "},"<":{"ha":722,"x_min":97,"x_max":643,"o":"m 585 3 q 565 10 576 3 l 111 310 q 97 336 97 319 q 113 361 97 351 l 596 669 q 613 675 606 675 q 634 665 625 675 q 643 643 643 656 q 639 629 643 636 q 629 618 635 622 l 185 335 l 600 60 q 615 33 615 51 q 606 12 615 21 q 585 3 597 3 z "},"=":{"ha":644,"x_min":88,"x_max":556,"o":"m 117 419 q 97 428 106 419 q 88 447 88 436 q 97 469 88 460 q 117 478 106 478 l 525 478 q 547 469 539 478 q 556 447 556 460 q 547 428 556 436 q 525 419 539 419 l 117 419 m 117 199 q 97 207 106 199 q 88 228 88 215 q 97 249 88 240 q 117 258 106 258 l 525 258 q 547 249 539 258 q 556 228 556 240 q 547 207 556 215 q 525 199 539 199 l 117 199 z "},">":{"ha":738,"x_min":90,"x_max":636,"o":"m 149 3 q 127 12 136 3 q 118 33 118 21 q 133 60 118 49 l 549 335 l 104 618 q 90 643 90 628 q 99 665 90 656 q 121 675 108 675 q 138 669 128 675 l 621 361 q 636 336 636 351 q 622 310 636 319 l 168 10 q 149 3 157 3 z "},"?":{"ha":694,"x_min":43,"x_max":604,"o":"m 229 242 q 208 251 217 242 q 200 271 200 260 q 210 292 200 283 l 382 446 q 472 531 440 497 q 526 608 503 564 q 549 704 549 651 q 523 814 549 763 q 441 898 497 865 q 299 931 385 931 q 183 899 232 931 q 92 819 133 868 q 74 813 82 813 q 52 820 61 813 q 43 839 43 828 q 71 883 43 856 q 169 957 111 926 q 299 988 226 988 q 458 952 389 988 q 566 852 528 917 q 604 704 604 788 q 575 576 604 633 q 513 487 546 519 q 415 399 479 454 q 249 250 365 356 q 229 242 238 242 m 179 -8 q 153 5 164 -8 q 143 36 143 18 q 158 74 143 57 q 192 90 174 90 q 217 78 206 90 q 228 50 228 65 q 213 9 228 26 q 179 -8 199 -8 z "},"@":{"ha":1135,"x_min":82,"x_max":1058,"o":"m 578 -143 q 332 -80 446 -143 q 150 94 218 -17 q 82 343 82 206 q 148 604 82 488 q 330 788 214 721 q 590 854 446 854 q 826 793 719 854 q 996 626 933 732 q 1058 390 1058 519 q 1028 249 1058 308 q 946 158 997 189 q 835 128 894 128 q 714 163 765 128 q 643 258 663 197 q 474 147 560 147 q 360 194 404 147 q 317 322 317 240 q 348 451 317 390 q 433 548 379 511 q 550 585 486 585 q 676 547 618 585 q 704 514 704 529 q 695 495 704 504 q 675 486 686 486 q 650 496 665 486 q 551 529 597 529 q 462 500 503 529 q 398 423 421 471 q 375 322 375 375 q 402 233 375 263 q 472 203 429 203 q 548 237 511 203 q 612 315 585 271 q 650 392 639 360 q 679 410 658 410 q 699 401 690 410 q 707 381 707 392 q 701 352 707 374 q 694 307 694 331 q 733 217 694 251 q 840 182 772 182 q 956 237 910 182 q 1001 390 1001 292 q 953 588 1001 494 q 813 740 906 682 q 590 797 719 797 q 370 744 474 797 q 203 589 267 692 q 139 343 139 486 q 207 112 139 210 q 377 -37 275 14 q 578 -87 479 -87 q 844 -4 721 -87 q 869 6 863 6 q 889 -3 881 6 q 897 -24 897 -11 q 878 -51 897 -37 q 747 -115 826 -87 q 578 -143 668 -143 z "},"A":{"ha":793,"x_min":31,"x_max":754,"o":"m 722 -10 q 692 15 700 -10 l 572 365 l 196 282 l 92 15 q 61 -8 83 -8 q 39 0 47 -8 q 31 21 31 8 q 36 43 31 31 l 125 269 q 78 258 88 258 q 58 267 67 258 q 49 289 49 276 q 56 308 49 300 q 74 318 63 315 l 151 336 l 385 928 q 415 947 393 947 q 433 942 425 947 q 444 928 442 936 l 747 49 q 754 19 754 31 q 745 -1 754 8 q 722 -10 736 -10 m 551 422 l 410 831 l 222 350 l 551 422 z "},"B":{"ha":878,"x_min":142,"x_max":814,"o":"m 183 -11 q 142 29 142 -11 l 142 901 q 151 923 142 914 q 171 932 160 932 l 429 932 q 596 900 528 932 q 697 817 664 868 q 731 708 731 765 q 699 590 731 640 q 621 504 668 539 q 765 412 715 471 q 814 271 814 353 q 656 62 814 135 q 183 -11 497 -11 m 490 519 q 582 546 540 519 q 647 615 624 572 q 671 704 671 657 q 606 826 671 779 q 429 872 540 872 l 203 872 l 203 519 l 490 519 m 203 47 q 599 103 444 47 q 754 271 754 160 q 685 407 754 354 q 500 460 617 460 l 203 460 l 203 47 z "},"C":{"ha":846,"x_min":74,"x_max":808,"o":"m 472 -10 q 273 44 364 -10 q 128 191 182 97 q 74 401 74 285 q 135 663 74 539 q 294 863 197 788 q 489 939 392 939 q 602 922 553 939 q 694 879 651 906 q 708 897 700 890 q 726 903 717 903 q 747 894 739 903 q 756 874 756 886 l 756 783 q 747 761 756 771 q 725 751 738 751 q 704 761 714 751 q 694 783 694 771 l 694 794 q 490 878 618 878 q 324 809 407 878 q 189 629 242 740 q 136 401 136 518 q 188 208 136 288 q 318 90 240 129 q 472 50 396 50 q 624 83 551 50 q 753 189 696 117 q 776 201 764 201 q 799 193 789 201 q 808 172 808 185 q 801 153 808 163 q 658 33 743 75 q 472 -10 572 -10 z "},"D":{"ha":900,"x_min":142,"x_max":824,"o":"m 338 -14 q 165 11 265 -14 q 149 21 156 13 q 142 40 142 29 l 142 903 q 151 924 142 915 q 172 933 160 933 q 494 881 347 933 q 733 711 642 828 q 824 413 824 594 q 760 174 824 269 q 586 32 696 78 q 338 -14 476 -14 m 338 49 q 649 140 536 49 q 763 413 763 232 q 613 746 763 631 q 203 872 464 861 l 203 65 q 338 49 272 49 z "},"E":{"ha":849,"x_min":142,"x_max":810,"o":"m 172 0 q 151 9 160 0 q 142 32 142 18 l 142 901 q 151 922 142 914 q 172 931 160 931 l 779 931 q 801 922 792 931 q 810 901 810 914 q 801 878 810 888 q 779 869 792 869 l 203 869 l 203 517 l 710 517 q 731 508 722 517 q 740 486 740 500 q 731 465 740 474 q 710 456 722 456 l 203 456 l 203 61 l 776 61 q 798 53 789 61 q 807 32 807 44 q 798 9 807 18 q 776 0 789 0 l 172 0 z "},"F":{"ha":806,"x_min":142,"x_max":810,"o":"m 172 -10 q 151 -1 160 -10 q 142 22 142 8 l 142 899 q 151 922 142 913 q 172 931 160 931 l 779 931 q 801 922 792 931 q 810 899 810 913 q 801 878 810 888 q 779 869 792 869 l 203 869 l 203 515 l 653 515 q 675 506 667 515 q 683 483 683 497 q 675 463 683 471 q 653 454 667 454 l 203 454 l 203 22 q 194 -1 203 8 q 172 -10 185 -10 z "},"G":{"ha":1000,"x_min":76,"x_max":951,"o":"m 494 -10 q 279 52 375 -10 q 130 219 183 114 q 76 451 76 325 q 131 683 76 569 q 287 868 186 796 q 517 940 388 940 q 717 892 635 940 q 840 781 800 843 q 881 683 881 719 q 872 665 881 672 q 853 657 864 657 q 822 679 828 657 q 717 822 790 764 q 517 879 643 879 q 303 805 389 879 q 178 630 218 731 q 139 451 139 529 q 182 257 139 349 q 306 108 225 165 q 494 51 388 51 q 711 125 621 51 q 833 328 801 199 q 781 331 811 331 q 697 325 731 331 q 624 311 663 319 q 594 306 596 306 q 574 314 583 306 q 565 336 565 322 q 586 365 565 356 q 674 384 619 376 q 779 392 728 392 q 933 368 863 392 q 951 340 951 361 q 943 318 951 326 q 924 310 935 310 q 892 317 917 310 q 754 82 858 174 q 494 -10 650 -10 z "},"H":{"ha":1050,"x_min":142,"x_max":908,"o":"m 172 -8 q 150 1 158 -8 q 142 22 142 10 l 142 907 q 150 929 142 921 q 172 938 158 938 q 194 929 185 938 q 203 907 203 921 l 203 461 l 847 550 l 847 907 q 857 928 847 919 q 879 938 867 938 q 900 929 892 938 q 908 907 908 921 l 908 22 q 900 1 908 10 q 879 -8 892 -8 q 857 1 867 -8 q 847 22 847 10 l 847 488 l 203 399 l 203 22 q 194 1 203 10 q 172 -8 185 -8 z "},"I":{"ha":508,"x_min":42,"x_max":467,"o":"m 74 -1 q 51 8 61 -1 q 42 31 42 17 q 51 50 42 42 q 74 58 61 58 l 225 58 l 225 871 l 74 871 q 51 880 61 871 q 42 901 42 889 q 51 922 42 914 q 74 931 61 931 l 436 931 q 458 922 449 931 q 467 901 467 914 q 458 880 467 889 q 436 871 449 871 l 286 871 l 286 58 l 436 58 q 458 51 450 58 q 467 31 467 43 q 458 8 467 17 q 436 -1 449 -1 l 74 -1 z "},"J":{"ha":604,"x_min":13,"x_max":564,"o":"m 256 -8 q 111 29 165 -8 q 35 119 57 67 q 13 222 13 172 q 21 246 13 236 q 44 256 29 256 q 65 247 57 256 q 74 225 74 238 q 119 102 74 151 q 256 53 165 53 q 384 97 342 53 q 426 208 426 140 l 426 871 l 243 871 q 221 880 231 871 q 211 901 211 889 q 221 922 211 914 q 243 931 231 931 l 533 931 q 555 922 546 931 q 564 901 564 914 q 554 880 564 889 q 533 871 544 871 l 488 871 l 488 208 q 426 53 488 114 q 256 -8 365 -8 z "},"K":{"ha":793,"x_min":142,"x_max":767,"o":"m 736 -10 q 715 -1 726 -10 l 200 401 l 200 22 q 192 1 200 10 q 169 -8 183 -8 q 150 1 158 -8 q 142 22 142 10 l 142 910 q 150 929 142 921 q 169 938 158 938 q 192 929 183 938 q 200 910 200 921 l 200 511 l 690 931 q 711 939 701 939 q 730 930 721 939 q 739 910 739 921 q 728 888 739 894 l 222 456 l 753 46 q 767 19 767 35 q 758 -1 767 8 q 736 -10 750 -10 z "},"L":{"ha":701,"x_min":142,"x_max":692,"o":"m 175 -8 q 151 0 161 -10 q 142 22 142 10 l 142 907 q 150 928 142 919 q 172 938 158 938 q 193 928 185 938 q 201 907 201 919 l 201 53 l 658 85 q 682 77 672 86 q 692 56 692 68 q 683 36 692 44 q 663 26 675 28 l 175 -8 z "},"M":{"ha":1168,"x_min":57,"x_max":1110,"o":"m 86 -8 q 65 -1 74 -8 q 57 17 57 7 q 63 49 57 24 l 253 915 q 283 939 260 939 q 300 933 293 939 q 310 918 307 926 l 564 114 l 854 919 q 883 939 860 939 q 900 933 893 939 q 910 918 907 926 l 1104 53 q 1110 15 1110 28 q 1102 -1 1110 6 q 1081 -8 1094 -8 q 1061 -2 1069 -8 q 1051 15 1053 4 l 876 801 l 592 10 q 563 -8 586 -8 q 535 11 543 -8 l 288 797 l 115 15 q 105 -2 114 4 q 86 -8 96 -8 z "},"N":{"ha":957,"x_min":142,"x_max":815,"o":"m 171 -8 q 151 1 160 -8 q 142 22 142 10 l 143 907 q 151 928 143 919 q 171 938 160 938 q 200 922 189 938 l 756 117 l 756 910 q 764 930 756 921 q 785 939 772 939 q 806 930 797 939 q 815 910 815 921 l 815 22 q 807 1 815 10 q 785 -8 799 -8 q 761 4 768 -8 l 203 811 l 201 22 q 192 1 201 10 q 171 -8 183 -8 z "},"O":{"ha":901,"x_min":76,"x_max":825,"o":"m 421 -8 q 244 50 322 -8 q 121 208 165 108 q 76 426 76 308 q 132 682 76 564 q 281 869 188 800 q 482 939 374 939 q 658 881 581 939 q 781 724 736 824 q 825 504 825 624 q 769 249 825 367 q 621 61 714 131 q 421 -8 528 -8 m 422 50 q 588 112 510 50 q 713 277 665 174 q 761 499 761 381 q 724 688 761 600 q 622 828 688 775 q 474 881 556 881 q 310 819 388 881 q 187 654 233 758 q 140 428 140 550 q 177 236 140 322 q 278 100 214 150 q 422 50 343 50 z "},"P":{"ha":790,"x_min":142,"x_max":763,"o":"m 171 -8 q 151 1 160 -8 q 142 22 142 10 l 142 890 q 147 921 142 911 q 174 935 153 931 q 244 939 196 939 q 633 867 503 939 q 763 658 763 794 q 670 467 763 540 q 449 362 578 393 q 201 331 319 331 l 201 22 q 193 0 201 8 q 171 -8 185 -8 m 201 390 q 407 413 292 390 q 613 494 522 435 q 703 658 703 554 q 590 822 703 764 q 268 879 476 879 q 201 876 222 879 l 201 390 z "},"Q":{"ha":1001,"x_min":76,"x_max":926,"o":"m 896 -40 q 879 -36 886 -40 l 713 75 q 592 13 656 35 q 468 -10 529 -10 q 267 49 357 -10 q 127 208 178 108 q 76 425 76 308 q 140 679 76 561 q 308 867 203 797 q 533 938 413 938 q 733 878 644 938 q 873 719 822 819 q 924 503 924 619 q 880 292 924 394 q 760 114 836 190 l 914 14 q 926 -11 926 4 q 917 -33 926 -25 q 896 -40 908 -40 m 468 47 q 658 110 560 47 l 535 192 q 525 202 529 194 q 521 217 521 210 q 529 238 521 229 q 549 246 538 246 q 568 242 560 246 l 708 149 q 817 306 776 214 q 857 499 857 399 q 813 684 857 596 q 693 826 769 772 q 522 881 617 881 q 336 820 424 881 q 196 656 249 760 q 143 431 143 553 q 185 237 143 325 q 301 98 226 149 q 468 47 375 47 z "},"R":{"ha":854,"x_min":142,"x_max":804,"o":"m 171 -3 q 150 6 158 -3 q 142 28 142 14 l 142 903 q 149 933 142 924 q 176 947 156 943 q 239 950 196 950 l 281 950 q 641 875 514 950 q 768 664 768 800 q 690 491 768 560 q 489 381 611 422 q 649 251 560 339 q 801 42 739 164 q 804 28 804 31 q 796 6 804 15 q 774 -3 788 -3 q 747 15 758 -3 q 524 287 625 221 q 347 353 422 353 q 201 339 307 353 l 201 28 q 192 6 201 14 q 171 -3 183 -3 m 201 399 q 435 430 318 401 q 630 517 551 458 q 708 664 708 575 q 596 833 708 775 q 276 890 483 890 l 201 888 l 201 399 z "},"S":{"ha":765,"x_min":38,"x_max":690,"o":"m 374 -8 q 167 44 256 -8 q 44 179 79 96 q 38 204 38 196 q 47 226 38 217 q 71 236 57 236 q 103 211 96 236 q 208 92 129 136 q 379 47 288 47 q 507 73 450 47 q 597 144 564 99 q 629 249 629 190 q 574 371 629 319 q 392 457 518 422 q 175 555 258 494 q 92 715 92 615 q 130 831 92 781 q 238 910 168 882 q 399 939 307 939 q 610 890 535 939 q 689 757 685 840 l 689 754 q 681 735 689 743 q 661 726 672 726 q 641 733 649 726 q 632 751 633 740 q 565 847 625 808 q 401 886 504 886 q 218 840 283 886 q 153 721 153 794 q 212 603 153 650 q 407 517 271 557 q 622 411 553 474 q 690 254 690 349 q 648 119 690 179 q 533 26 606 60 q 374 -8 461 -8 z "},"T":{"ha":706,"x_min":7,"x_max":700,"o":"m 354 -8 q 333 1 342 -8 q 324 22 324 10 l 324 871 l 36 871 q 16 880 25 871 q 7 900 7 889 q 16 922 7 914 q 36 931 25 931 l 669 931 q 691 922 682 931 q 700 900 700 914 q 691 880 700 889 q 669 871 682 871 l 383 871 l 383 22 q 375 1 383 10 q 354 -8 367 -8 z "},"U":{"ha":1000,"x_min":117,"x_max":883,"o":"m 483 -8 q 222 121 314 -8 q 119 501 129 250 q 117 685 117 576 l 118 901 q 126 928 118 918 q 150 938 135 938 q 179 900 179 938 l 178 788 q 175 672 175 710 q 178 521 175 613 q 485 43 194 43 q 713 133 635 43 q 808 376 790 222 q 819 647 819 478 l 818 896 q 849 938 818 938 q 871 926 864 938 q 878 899 878 915 q 881 815 878 893 q 883 654 883 738 q 867 367 883 496 q 750 91 843 190 q 483 -8 657 -8 z "},"V":{"ha":742,"x_min":21,"x_max":729,"o":"m 350 -8 q 333 -3 342 -8 q 321 11 324 3 l 25 888 q 21 907 21 900 q 29 928 21 919 q 51 936 38 936 q 81 917 74 936 l 353 110 l 671 918 q 699 936 676 936 q 720 928 711 936 q 729 910 729 921 q 726 893 729 901 l 378 11 q 350 -8 372 -8 z "},"W":{"ha":1211,"x_min":21,"x_max":1200,"o":"m 319 -8 q 303 -3 311 -8 q 292 11 294 3 l 28 881 q 21 910 21 903 q 29 930 21 922 q 50 938 38 938 q 69 932 61 938 q 78 917 76 926 l 321 119 l 579 918 q 607 938 586 938 q 624 932 617 938 q 635 917 632 926 l 853 119 l 1140 917 q 1171 938 1149 938 q 1192 929 1183 938 q 1200 911 1200 921 q 1197 894 1200 903 l 879 10 q 869 -3 876 3 q 851 -8 861 -8 q 822 13 829 -8 l 603 807 l 347 11 q 319 -8 342 -8 z "},"X":{"ha":936,"x_min":71,"x_max":875,"o":"m 103 -8 q 81 1 90 -8 q 71 22 71 11 q 79 42 71 28 l 442 472 l 108 889 q 100 910 100 900 q 110 929 100 921 q 132 938 119 938 q 156 928 146 938 l 479 519 l 822 928 q 844 938 831 938 q 866 929 857 938 q 875 910 875 921 q 868 888 875 896 l 518 471 l 861 40 q 867 22 867 33 q 858 1 867 10 q 838 -8 849 -8 q 815 1 825 -8 l 478 424 l 125 1 q 103 -8 118 -8 z "},"Y":{"ha":796,"x_min":4,"x_max":796,"o":"m 242 -8 q 219 1 229 -8 q 210 19 210 10 q 218 42 210 28 l 363 285 l 11 888 q 7 897 10 890 q 4 910 4 903 q 14 930 4 922 q 36 938 24 938 q 60 922 51 938 l 397 343 l 740 922 q 765 938 749 938 q 786 929 776 938 q 796 910 796 921 q 786 883 796 900 l 265 7 q 242 -8 258 -8 z "},"Z":{"ha":793,"x_min":32,"x_max":757,"o":"m 69 0 q 43 10 54 0 q 32 35 32 19 q 42 63 32 49 l 672 871 l 88 871 q 65 879 75 871 q 56 900 56 888 q 65 922 56 913 q 88 931 75 931 l 719 931 q 746 920 735 931 q 757 894 757 910 q 747 869 757 882 l 115 61 l 704 61 q 726 52 717 61 q 736 32 736 43 q 726 9 736 18 q 704 0 717 0 l 69 0 z "},"[":{"ha":428,"x_min":96,"x_max":353,"o":"m 126 -185 q 105 -176 114 -185 q 96 -156 96 -168 l 96 1093 q 105 1115 96 1106 q 126 1124 114 1124 l 322 1124 q 344 1115 335 1124 q 353 1093 353 1106 q 344 1072 353 1081 q 322 1064 335 1064 l 156 1064 l 156 -125 l 300 -125 q 320 -134 311 -125 q 329 -156 329 -143 q 320 -176 329 -168 q 300 -185 311 -185 l 126 -185 z "},"\\":{"ha":747,"x_min":97,"x_max":661,"o":"m 631 -11 q 606 3 615 -11 l 103 911 q 97 931 97 922 q 106 951 97 943 q 128 960 114 960 q 153 947 146 960 l 656 38 q 661 19 661 28 q 652 -2 661 7 q 631 -11 643 -11 z "},"]":{"ha":428,"x_min":89,"x_max":346,"o":"m 119 -185 q 98 -176 107 -185 q 89 -156 89 -168 q 98 -134 89 -143 q 119 -125 107 -125 l 285 -125 l 285 1064 l 142 1064 q 120 1072 129 1064 q 111 1093 111 1081 q 120 1115 111 1106 q 142 1124 129 1124 l 315 1124 q 337 1115 328 1124 q 346 1093 346 1107 l 346 -156 q 337 -176 346 -168 q 315 -185 328 -185 l 119 -185 z "},"^":{"ha":685,"x_min":139,"x_max":546,"o":"m 169 557 q 148 565 157 557 q 139 585 139 574 q 144 601 139 592 l 321 896 q 358 919 335 919 q 394 893 379 919 l 542 603 q 546 585 546 594 q 538 565 546 574 q 517 557 529 557 q 492 571 497 557 l 357 833 l 194 572 q 169 557 185 557 z "},"_":{"ha":746,"x_min":-7,"x_max":753,"o":"m 22 -87 q 1 -79 10 -87 q -7 -58 -7 -71 q 1 -37 -7 -46 q 22 -28 10 -28 l 722 -28 q 744 -37 735 -28 q 753 -58 753 -46 q 744 -79 753 -71 q 722 -87 735 -87 l 22 -87 z "},"`":{"ha":228,"x_min":0,"x_max":228,"o":"m 199 800 q 178 810 188 800 l 13 979 q 0 1007 0 992 q 13 1034 0 1024 q 42 1044 25 1044 q 72 1029 61 1044 l 219 847 q 228 826 228 835 q 219 807 228 814 q 199 800 210 800 z "},"a":{"ha":729,"x_min":71,"x_max":608,"o":"m 578 -17 q 556 -6 564 -17 q 547 19 547 4 l 547 75 q 442 16 501 40 q 329 -8 383 -8 q 197 29 256 -8 q 104 134 138 67 q 71 289 71 201 q 112 479 71 388 q 228 628 153 571 q 403 685 304 685 q 517 667 461 685 q 608 629 572 649 l 608 17 q 600 -7 608 3 q 578 -17 592 -17 m 326 50 q 442 78 385 50 q 544 138 500 106 l 550 593 q 483 616 525 606 q 407 626 442 626 q 260 578 322 626 q 165 454 197 531 q 132 292 132 378 q 158 161 132 215 q 229 78 185 107 q 326 50 274 50 z "},"b":{"ha":764,"x_min":125,"x_max":690,"o":"m 156 -8 q 135 0 144 -8 q 125 19 125 8 l 125 932 q 134 950 125 943 q 156 957 143 957 q 176 950 168 957 q 185 932 185 943 l 185 540 q 308 638 238 601 q 451 674 379 674 q 630 585 569 674 q 690 369 690 497 q 616 103 690 206 q 390 1 542 1 q 285 15 340 1 q 185 47 229 29 l 185 19 q 176 0 185 8 q 156 -8 168 -8 m 379 58 q 635 369 635 58 q 590 541 635 469 q 456 613 546 613 q 317 585 379 613 q 220 508 256 557 q 185 401 185 460 l 185 100 q 270 72 215 86 q 379 58 325 58 z "},"c":{"ha":686,"x_min":74,"x_max":639,"o":"m 371 -8 q 226 30 294 -8 q 115 136 157 68 q 74 290 74 204 q 117 476 74 385 q 233 626 161 568 q 381 685 304 685 q 499 661 453 685 q 588 588 544 638 q 594 568 594 581 q 586 547 594 556 q 567 539 578 539 q 546 547 557 539 q 475 609 513 588 q 383 631 438 631 q 263 582 321 631 q 167 455 204 533 q 131 293 131 376 q 166 160 131 217 q 257 75 201 104 q 369 46 313 46 q 581 151 503 46 q 610 171 594 171 q 630 163 621 171 q 639 143 639 154 q 628 119 639 136 q 520 29 590 67 q 371 -8 450 -8 z "},"d":{"ha":758,"x_min":72,"x_max":644,"o":"m 315 -8 q 192 26 247 -8 q 105 131 138 61 q 72 304 72 201 q 150 583 72 482 q 368 683 228 683 q 478 667 424 683 q 575 626 532 651 l 582 936 q 592 958 582 949 q 614 967 601 967 q 635 957 626 967 q 644 935 644 947 l 622 25 q 614 1 622 10 q 592 -8 606 -8 q 569 1 578 -8 q 561 28 561 11 l 564 118 q 453 27 519 63 q 315 -8 388 -8 m 322 47 q 440 78 385 47 q 531 151 496 108 q 567 226 565 193 l 574 568 q 371 626 463 626 q 192 540 251 626 q 132 308 132 453 q 182 116 132 185 q 322 47 232 47 z "},"e":{"ha":713,"x_min":71,"x_max":654,"o":"m 419 -8 q 236 36 315 -8 q 114 156 157 81 q 71 322 71 232 q 110 503 71 421 q 219 635 149 586 q 383 685 290 685 q 524 654 465 685 q 613 581 583 624 q 643 504 643 538 q 617 472 643 489 l 154 207 q 258 86 190 126 q 418 46 325 46 q 523 70 467 46 q 608 129 579 94 q 626 138 615 138 q 646 130 638 138 q 654 110 654 122 q 646 92 654 100 q 545 20 608 49 q 419 -8 482 -8 m 585 508 q 513 599 561 568 q 383 629 464 629 q 253 588 311 629 q 162 477 194 547 q 129 321 129 407 q 136 261 129 292 l 585 508 z "},"f":{"ha":400,"x_min":-8,"x_max":460,"o":"m 165 -8 q 145 0 154 -8 q 136 19 136 8 l 136 633 l 19 633 q 0 642 8 633 q -8 661 -8 650 q -1 679 -8 671 q 17 688 7 688 l 136 688 q 165 848 136 789 q 253 933 193 907 q 414 958 314 958 q 448 953 436 958 q 460 932 460 947 q 452 911 460 919 q 431 903 444 903 q 285 888 333 903 q 217 828 238 874 q 196 688 196 783 l 403 686 q 421 678 413 686 q 429 661 429 671 q 422 642 429 650 q 403 633 414 633 l 196 633 l 196 19 q 188 0 196 8 q 165 -8 179 -8 z "},"g":{"ha":744,"x_min":72,"x_max":631,"o":"m 333 -272 q 160 -251 251 -272 q 136 -222 136 -244 q 144 -201 136 -210 q 165 -193 153 -193 q 219 -203 175 -193 q 332 -212 263 -212 q 501 -153 450 -212 q 556 15 553 -93 l 558 132 q 469 31 528 71 q 346 -10 410 -8 q 204 35 267 -10 q 107 156 142 79 q 72 326 72 232 q 116 501 72 418 q 235 635 160 585 q 401 686 311 686 q 492 671 447 686 q 569 632 536 656 q 576 686 569 669 q 604 703 583 703 q 622 694 614 703 q 631 671 631 686 l 615 8 q 535 -201 613 -131 q 333 -272 458 -272 m 335 46 q 444 76 392 46 q 530 178 496 107 q 564 364 564 249 l 564 575 q 494 613 539 599 q 407 628 450 628 q 265 588 331 628 q 163 477 200 547 q 125 321 125 407 q 147 197 125 261 q 217 90 169 133 q 335 46 264 46 z "},"h":{"ha":771,"x_min":125,"x_max":660,"o":"m 154 -10 q 134 -1 143 -10 q 125 21 125 8 l 125 926 q 134 948 125 939 q 154 957 143 957 q 176 948 168 957 q 185 926 185 939 l 185 435 q 256 552 208 493 q 364 650 304 611 q 481 689 424 689 q 619 574 579 689 q 660 213 660 458 q 656 22 660 67 q 647 0 654 8 q 626 -8 639 -8 q 607 0 615 -8 q 599 21 599 8 q 600 71 599 50 l 601 201 q 565 544 601 457 q 474 631 528 631 q 361 585 417 631 q 265 483 306 540 q 208 389 225 426 q 185 258 185 338 l 185 24 q 176 -1 185 7 q 154 -10 168 -10 z "},"i":{"ha":322,"x_min":125,"x_max":196,"o":"m 164 828 q 144 837 153 828 q 136 857 136 846 l 138 917 q 147 936 138 928 q 167 944 156 944 q 188 935 179 944 q 196 915 196 926 l 194 856 q 185 835 194 843 q 164 828 176 828 m 156 -8 q 135 1 144 -8 q 125 24 125 11 l 135 653 q 144 675 135 665 q 164 685 153 685 q 185 676 176 685 q 194 653 194 667 l 186 24 q 177 1 186 11 q 156 -8 168 -8 z "},"j":{"ha":328,"x_min":-146,"x_max":213,"o":"m 171 832 q 150 841 158 832 q 143 860 142 850 l 151 929 q 161 945 153 940 q 179 950 169 950 q 203 940 194 950 q 210 915 213 931 l 203 856 q 192 839 201 846 q 171 832 183 832 m 44 -267 q -74 -215 -25 -267 q -143 -107 -122 -162 q -146 -94 -146 -99 q -137 -75 -146 -83 q -114 -67 -128 -67 q -85 -90 -94 -67 q 44 -214 -36 -214 q 124 -158 101 -214 q 146 -25 146 -101 q 139 540 146 128 l 138 654 q 146 677 138 668 q 168 686 154 686 q 190 678 181 686 q 200 656 200 669 l 203 322 q 207 -12 207 133 q 168 -197 207 -128 q 44 -267 129 -267 z "},"k":{"ha":700,"x_min":125,"x_max":672,"o":"m 157 -8 q 137 1 146 -8 q 128 22 128 10 l 125 929 q 133 949 125 940 q 154 957 142 957 q 176 948 167 957 q 185 926 185 939 l 186 326 q 377 486 260 375 q 571 699 494 597 q 597 713 582 713 q 617 703 608 713 q 626 683 626 694 q 619 667 626 678 q 503 534 576 611 q 375 408 429 457 l 513 236 q 664 47 590 140 q 672 25 672 33 q 664 4 672 14 q 643 -6 656 -6 q 619 6 628 -6 q 453 221 543 107 q 331 375 364 335 q 188 272 236 301 l 188 22 q 178 1 188 10 q 157 -8 169 -8 z "},"l":{"ha":311,"x_min":125,"x_max":185,"o":"m 156 -8 q 135 -1 144 -8 q 125 18 125 7 l 125 929 q 134 949 125 940 q 156 957 143 957 q 176 949 167 957 q 185 929 185 940 l 185 18 q 176 -1 185 7 q 156 -8 167 -8 z "},"m":{"ha":1192,"x_min":125,"x_max":1081,"o":"m 154 -8 q 134 0 143 -8 q 125 21 125 8 l 125 654 q 134 676 125 667 q 154 685 143 685 q 176 676 168 685 q 185 654 185 667 l 185 447 q 317 617 236 549 q 475 685 399 685 q 585 644 538 685 q 646 507 632 603 q 758 638 686 592 q 893 685 831 685 q 1081 436 1081 685 l 1081 21 q 1072 0 1081 8 q 1051 -8 1063 -8 q 1030 0 1039 -8 q 1021 21 1021 8 l 1021 442 q 990 585 1021 540 q 890 629 958 629 q 789 594 846 629 q 692 495 732 558 q 651 353 651 432 l 651 21 q 642 0 651 8 q 621 -8 633 -8 q 599 0 608 -8 q 590 21 590 8 l 590 442 q 560 585 590 542 q 469 629 531 629 q 360 583 418 629 q 261 481 301 538 q 201 377 218 422 q 185 261 185 332 l 185 21 q 176 0 185 8 q 154 -8 168 -8 z "},"n":{"ha":796,"x_min":125,"x_max":685,"o":"m 154 -8 q 134 0 143 -8 q 125 19 125 8 l 125 657 q 134 678 125 669 q 154 686 143 686 q 176 678 168 686 q 185 657 185 669 l 185 375 q 251 532 204 461 q 360 644 297 603 q 490 685 422 685 q 613 638 571 685 q 669 493 654 590 q 685 228 685 396 l 683 24 q 676 1 683 10 q 656 -8 668 -8 q 635 1 644 -8 q 626 22 626 10 l 625 225 q 615 466 625 383 q 576 589 606 549 q 482 629 546 629 q 369 587 424 629 q 269 463 314 544 q 208 306 229 390 q 185 144 186 222 l 183 25 q 176 1 183 10 q 154 -8 168 -8 z "},"o":{"ha":749,"x_min":74,"x_max":675,"o":"m 351 -8 q 210 34 274 -8 q 110 149 146 76 q 74 310 74 222 q 117 494 74 407 q 234 633 160 581 q 396 685 308 685 q 537 642 472 685 q 638 526 601 599 q 675 368 675 454 q 631 181 675 267 q 512 43 586 94 q 351 -8 438 -8 m 354 44 q 481 88 421 44 q 576 206 540 132 q 613 361 613 279 q 583 494 613 432 q 501 594 553 557 q 389 632 450 632 q 263 587 322 632 q 169 468 204 542 q 135 313 135 394 q 163 178 135 239 q 242 81 192 117 q 354 44 292 44 z "},"p":{"ha":757,"x_min":125,"x_max":688,"o":"m 154 -286 q 134 -278 143 -286 q 125 -257 125 -269 l 125 654 q 134 677 125 668 q 154 686 143 686 q 176 677 168 686 q 185 654 185 668 l 185 565 q 299 651 229 618 q 449 685 368 685 q 575 644 521 685 q 658 532 629 603 q 688 372 688 461 q 660 197 688 281 q 563 56 632 113 q 381 -1 494 -1 q 185 47 288 -1 l 185 -257 q 176 -278 185 -269 q 154 -286 168 -286 m 389 57 q 629 372 629 57 q 579 557 629 482 q 442 632 529 632 q 292 594 356 632 q 185 500 228 556 l 185 111 q 389 57 290 57 z "},"q":{"ha":738,"x_min":71,"x_max":622,"o":"m 560 -276 q 539 -267 547 -276 q 532 -242 531 -257 l 543 81 q 478 20 524 49 q 363 -8 433 -8 q 210 31 276 -8 q 108 139 144 71 q 71 292 71 207 q 118 496 71 408 q 251 631 165 583 q 449 679 338 679 q 565 667 494 679 l 565 686 q 574 706 565 697 q 593 715 582 715 q 613 706 604 715 q 622 686 622 697 l 589 -244 q 581 -267 589 -258 q 560 -276 572 -276 m 349 43 q 493 90 439 43 q 550 224 547 138 l 563 618 q 449 626 497 626 q 279 587 353 626 q 165 471 206 547 q 124 289 124 394 q 154 162 124 218 q 236 74 185 106 q 349 43 288 43 z "},"r":{"ha":567,"x_min":125,"x_max":550,"o":"m 154 -8 q 134 0 143 -8 q 125 19 125 8 l 125 656 q 134 676 125 668 q 154 685 143 685 q 177 676 168 685 q 186 656 186 668 l 186 482 q 243 577 204 529 q 335 657 282 625 q 444 689 388 689 q 550 575 550 689 l 550 539 q 542 517 550 526 q 521 508 533 508 q 492 540 492 508 l 492 569 q 481 615 492 599 q 431 631 469 631 q 238 499 336 631 q 201 424 215 469 q 186 343 186 379 l 185 19 q 176 0 185 8 q 154 -8 167 -8 z "},"s":{"ha":582,"x_min":38,"x_max":524,"o":"m 288 -11 q 153 20 210 -11 q 67 94 96 51 q 38 165 38 136 q 46 185 38 176 q 65 193 54 193 q 92 174 85 193 q 163 78 111 113 q 289 43 215 43 q 416 85 367 43 q 465 188 465 128 q 429 267 465 236 q 290 329 393 299 q 129 408 181 363 q 78 518 78 453 q 138 640 78 594 q 306 685 199 685 q 467 644 411 685 q 524 535 524 604 q 493 479 524 479 q 472 488 481 479 q 464 507 464 496 q 465 519 464 513 q 467 536 467 525 q 308 632 467 632 q 176 602 219 632 q 133 518 133 572 q 172 444 133 474 q 314 381 210 414 q 478 299 433 342 q 522 189 522 257 q 493 92 522 139 q 410 17 464 46 q 288 -11 357 -11 z "},"t":{"ha":389,"x_min":-53,"x_max":421,"o":"m 182 -10 q 162 -1 171 -10 q 153 19 153 7 l 153 626 l -22 626 q -44 635 -35 626 q -53 656 -53 644 q -43 678 -53 669 q -19 686 -33 686 l 153 686 l 153 901 q 161 923 153 914 q 182 932 169 932 q 204 923 196 932 q 213 901 213 914 l 213 686 l 390 686 q 413 678 404 686 q 421 656 421 669 q 413 635 421 644 q 390 626 404 626 l 213 626 l 213 19 q 203 -1 213 7 q 182 -10 194 -10 z "},"u":{"ha":746,"x_min":103,"x_max":628,"o":"m 313 -12 q 190 22 235 -12 q 124 139 144 56 q 103 372 103 222 q 119 646 103 518 q 131 677 124 668 q 150 686 138 686 q 171 678 163 686 q 179 658 179 671 l 176 626 q 160 340 160 476 q 178 156 160 222 q 230 64 196 90 q 318 38 264 38 q 546 153 440 38 q 565 224 565 176 l 569 658 q 578 678 569 669 q 599 686 588 686 q 619 678 610 686 q 628 658 628 669 l 628 22 q 618 1 628 10 q 594 -8 608 -8 q 569 3 579 -8 q 560 29 560 14 l 560 107 q 459 22 526 57 q 313 -12 392 -12 z "},"v":{"ha":563,"x_min":-17,"x_max":558,"o":"m 271 -10 q 243 13 251 -10 l -14 643 q -17 657 -17 651 q -6 677 -17 669 q 17 685 4 685 q 44 664 35 685 l 272 89 l 499 668 q 528 686 506 686 q 549 678 540 686 q 558 658 558 669 q 556 643 558 654 l 299 10 q 271 -10 292 -10 z "},"w":{"ha":833,"x_min":24,"x_max":824,"o":"m 189 -8 q 158 18 165 -8 l 26 639 l 24 656 q 32 677 24 668 q 51 686 40 686 q 72 679 63 686 q 82 660 81 672 l 193 96 l 390 664 q 403 680 393 674 q 424 686 413 686 q 444 678 435 686 q 456 657 453 671 l 592 93 l 764 660 q 776 678 768 671 q 793 685 785 685 q 815 677 807 685 q 824 658 824 669 q 821 644 824 653 l 619 17 q 608 -1 617 6 q 590 -8 600 -8 q 572 -1 581 -8 q 561 15 564 6 l 418 575 l 217 15 q 206 -2 214 4 q 189 -8 199 -8 z "},"x":{"ha":647,"x_min":-22,"x_max":656,"o":"m 599 -8 q 575 1 583 -8 l 324 311 l 28 1 q 6 -7 21 -7 q -14 2 -6 -7 q -22 24 -22 11 q -14 44 -22 35 l 285 350 l 46 633 q 36 656 36 646 q 45 677 36 668 q 65 686 54 686 q 86 678 79 686 l 326 385 l 604 675 q 625 683 613 683 q 647 674 638 683 q 656 653 656 665 q 647 633 656 644 l 367 346 l 621 40 q 628 22 628 32 q 619 1 628 10 q 599 -8 611 -8 z "},"y":{"ha":617,"x_min":-7,"x_max":614,"o":"m 164 -289 q 144 -281 153 -289 q 135 -260 135 -272 q 140 -242 135 -253 l 283 69 l -1 638 q -7 654 -7 649 q 2 677 -7 668 q 22 686 11 686 q 53 665 43 686 l 317 143 l 558 668 q 569 682 561 676 q 586 688 576 688 q 607 679 600 688 q 614 657 614 671 q 611 640 614 649 l 193 -271 q 164 -289 182 -289 z "},"z":{"ha":603,"x_min":17,"x_max":582,"o":"m 47 -10 q 26 -1 35 -10 q 17 21 17 8 q 24 40 17 32 l 489 626 l 63 626 q 42 635 50 626 q 33 656 33 644 q 42 678 33 669 q 63 686 50 686 l 544 686 q 565 678 557 686 q 574 656 574 669 q 568 639 574 646 l 101 50 l 551 50 q 573 42 564 50 q 582 21 582 33 q 573 -1 582 8 q 551 -10 564 -10 l 47 -10 z "},"{":{"ha":519,"x_min":93,"x_max":446,"o":"m 413 -185 q 326 -157 371 -179 q 247 -92 281 -135 q 214 14 214 -50 l 214 306 q 185 399 214 360 q 113 456 157 439 q 93 482 93 463 q 111 507 93 500 q 192 572 169 536 q 214 657 214 607 l 214 928 q 278 1067 214 1018 q 414 1126 343 1115 l 417 1126 q 438 1118 429 1126 q 446 1099 446 1110 q 417 1069 446 1074 q 317 1026 361 1060 q 272 928 272 993 l 272 658 q 181 482 272 553 q 247 406 222 451 q 272 304 272 360 l 272 14 q 317 -85 272 -53 q 417 -128 361 -118 q 446 -157 446 -135 q 436 -179 446 -171 q 413 -185 426 -187 z "},"|":{"ha":258,"x_min":100,"x_max":161,"o":"m 131 -249 q 109 -240 118 -249 q 100 -218 100 -232 l 100 1142 q 109 1163 100 1154 q 131 1172 118 1172 q 152 1163 143 1172 q 161 1142 161 1154 l 161 -218 q 152 -240 161 -232 q 131 -249 143 -249 z "},"}":{"ha":519,"x_min":74,"x_max":428,"o":"m 101 -185 q 82 -177 90 -185 q 74 -157 74 -169 q 104 -128 74 -133 q 204 -85 160 -117 q 249 14 249 -53 l 249 282 q 339 460 249 386 q 274 535 299 490 q 249 636 249 581 l 249 928 q 207 1023 249 989 q 104 1069 165 1057 q 74 1099 74 1074 q 83 1120 74 1113 q 107 1126 93 1128 q 242 1066 178 1114 q 307 928 307 1018 l 307 635 q 335 541 307 579 q 408 486 364 503 q 428 460 428 476 q 424 444 428 450 q 410 433 419 439 q 329 369 351 404 q 307 283 307 335 l 307 14 q 273 -92 307 -49 q 193 -157 239 -135 q 106 -185 147 -179 l 101 -185 z "},"~":{"ha":879,"x_min":88,"x_max":792,"o":"m 582 206 q 490 235 526 206 q 411 325 454 265 q 351 396 376 374 q 289 418 325 418 q 197 374 235 418 q 143 276 158 329 q 115 254 139 254 q 96 262 104 254 q 88 281 88 269 q 92 299 88 290 q 170 426 121 376 q 289 475 219 475 q 381 445 344 475 q 458 358 417 415 q 522 285 496 307 q 582 264 547 264 q 674 311 636 264 q 733 418 711 358 q 765 447 744 447 q 784 440 776 447 q 792 419 792 432 q 789 400 792 410 q 713 266 763 326 q 582 206 663 206 z "},"¡":{"ha":347,"x_min":132,"x_max":215,"o":"m 168 582 q 142 594 153 582 q 132 622 132 606 q 147 663 132 646 q 179 681 161 681 q 206 668 196 681 q 215 638 215 656 q 201 599 215 615 q 168 582 186 582 m 167 -289 q 144 -280 153 -289 q 135 -257 135 -271 l 135 432 q 144 454 135 444 q 167 464 154 464 q 189 454 179 464 q 199 432 199 444 l 199 -257 q 189 -279 199 -269 q 167 -289 179 -289 z "},"¢":{"ha":689,"x_min":71,"x_max":633,"o":"m 343 -8 q 324 -1 331 -8 q 317 19 317 7 l 319 136 q 127 256 183 171 q 71 431 71 342 q 103 597 71 515 q 196 739 135 678 q 339 824 257 800 l 342 933 q 350 951 342 944 q 368 958 358 958 q 386 951 379 958 q 393 932 393 943 l 390 826 q 476 808 428 826 q 558 762 524 789 q 593 711 593 735 q 584 691 593 700 q 564 682 575 682 q 543 692 551 682 q 388 775 485 767 l 374 186 q 490 217 438 190 q 578 292 542 244 q 586 302 579 293 q 604 311 593 311 q 625 303 617 311 q 633 282 633 294 q 626 263 633 272 q 517 169 585 206 q 371 133 450 133 l 368 17 q 360 -1 368 7 q 343 -8 353 -8 m 336 768 q 217 681 264 742 q 148 552 169 619 q 126 433 126 485 q 181 280 126 346 q 322 192 235 214 l 336 768 z "},"£":{"ha":931,"x_min":29,"x_max":892,"o":"m 679 -22 q 569 -3 614 -22 q 472 49 524 15 q 412 83 435 72 q 363 93 389 93 q 272 72 314 93 q 185 15 229 50 q 146 -8 157 -8 q 126 0 135 -8 q 118 21 118 8 q 129 43 118 35 q 218 154 188 88 q 249 283 249 221 q 241 344 249 310 q 219 429 233 379 l 211 460 l 58 460 q 38 468 47 460 q 29 488 29 476 q 38 508 29 499 q 58 517 47 517 l 200 517 q 186 671 186 600 q 538 1010 186 1010 q 724 937 658 1010 q 813 761 789 864 q 814 749 814 757 q 806 728 814 736 q 786 719 799 719 q 757 751 764 719 q 681 899 739 846 q 538 953 622 953 q 312 886 382 953 q 242 671 242 819 q 257 517 242 599 l 604 517 q 624 508 615 517 q 633 488 633 499 q 624 468 633 476 q 604 460 615 460 l 269 460 l 282 410 q 299 339 292 371 q 306 283 306 307 q 268 132 306 190 q 363 150 314 150 q 431 138 403 150 q 503 97 460 125 q 587 51 549 67 q 679 35 625 35 q 835 165 804 35 q 864 196 840 196 q 884 187 876 196 q 892 165 892 178 q 890 153 892 158 q 805 15 865 51 q 679 -22 744 -22 z "},"¤":{"ha":721,"x_min":72,"x_max":649,"o":"m 100 54 q 81 63 89 54 q 72 82 72 71 q 81 100 72 94 l 189 208 q 143 340 143 272 q 192 475 143 413 l 81 586 q 72 604 72 593 q 80 623 72 615 q 100 631 88 631 q 118 624 108 631 l 229 514 q 360 557 286 557 q 494 514 435 557 l 604 624 q 622 631 611 631 q 641 623 633 631 q 649 604 649 615 q 642 586 649 593 l 532 475 q 567 410 554 446 q 579 340 579 375 q 535 208 579 271 l 642 100 q 649 82 649 93 q 642 63 649 71 q 622 54 635 54 q 604 63 613 54 l 497 168 q 360 122 433 122 q 225 168 289 122 l 117 63 q 100 54 111 54 m 360 175 q 478 223 429 175 q 526 340 526 271 q 478 456 526 408 q 360 504 429 504 q 245 456 293 504 q 197 340 197 408 q 219 258 197 296 q 279 197 242 219 q 360 175 317 175 z "},"¥":{"ha":751,"x_min":82,"x_max":676,"o":"m 367 -8 q 345 1 354 -8 q 336 22 336 10 l 336 183 l 161 183 q 141 192 150 183 q 132 211 132 200 q 141 232 132 224 q 161 240 150 240 l 336 240 l 336 403 l 161 403 q 141 411 150 403 q 132 432 132 419 q 141 452 132 443 q 161 461 150 461 l 313 461 l 85 917 q 82 931 82 922 q 91 951 82 942 q 114 960 100 960 q 139 946 133 960 l 368 486 l 618 947 q 644 963 628 963 q 667 955 657 963 q 676 935 676 947 q 672 918 676 926 l 422 461 l 574 461 q 594 452 585 461 q 603 432 603 443 q 594 411 603 419 q 574 403 585 403 l 396 403 l 396 240 l 574 240 q 594 232 585 240 q 603 211 603 224 q 594 192 603 200 q 574 183 585 183 l 396 183 l 396 22 q 388 1 396 10 q 367 -8 379 -8 z "},"¦":{"ha":274,"x_min":107,"x_max":167,"o":"m 136 539 q 116 548 125 539 q 107 569 107 557 l 107 1044 q 116 1066 107 1057 q 136 1075 125 1075 q 158 1066 149 1075 q 167 1044 167 1057 l 167 569 q 158 547 167 556 q 136 539 149 539 m 136 -151 q 116 -143 125 -151 q 107 -122 107 -135 l 107 356 q 116 376 107 367 q 136 385 125 385 q 158 376 149 385 q 167 356 167 367 l 167 -122 q 158 -143 167 -135 q 136 -151 149 -151 z "},"§":{"ha":608,"x_min":60,"x_max":544,"o":"m 310 -8 q 176 24 233 -8 q 90 99 119 56 q 60 168 60 142 q 68 188 60 179 q 88 196 76 196 q 104 190 97 196 q 114 176 111 185 q 186 81 135 115 q 310 47 238 47 q 413 70 372 47 q 470 126 453 93 q 488 192 488 160 q 474 249 488 226 q 422 293 460 272 q 313 336 385 314 q 151 413 201 369 q 101 528 101 457 q 140 626 101 583 q 100 732 100 675 q 171 855 100 818 q 335 892 242 892 q 490 851 436 892 q 544 742 544 811 q 514 686 544 686 q 492 694 500 686 q 485 715 485 703 q 486 726 485 718 q 488 743 488 733 q 338 840 488 840 q 205 811 256 840 q 154 731 154 782 q 179 662 154 689 q 236 622 204 635 q 314 594 268 608 q 442 547 397 568 q 515 488 488 526 q 543 388 543 450 q 511 293 543 342 q 544 183 544 246 q 515 93 544 138 q 433 20 486 49 q 310 -8 379 -8 m 469 329 q 486 397 486 364 q 463 463 486 438 q 403 506 440 489 q 293 546 365 522 q 185 593 225 572 q 156 525 156 563 q 201 440 156 468 q 317 390 246 411 q 469 329 417 358 z "},"¨":{"ha":344,"x_min":0,"x_max":344,"o":"m 56 868 q 16 881 32 868 q 0 914 0 894 q 19 953 0 936 q 64 969 38 969 q 103 955 86 969 q 121 922 121 940 q 102 884 121 900 q 56 868 83 868 m 281 868 q 241 881 257 868 q 225 914 225 894 q 244 953 225 936 q 289 969 263 969 q 328 955 311 969 q 344 922 344 940 q 326 884 344 900 q 281 868 307 868 z "},"©":{"ha":758,"x_min":72,"x_max":686,"o":"m 379 329 q 226 372 296 329 q 114 486 156 414 q 72 643 72 558 q 114 800 72 728 q 226 915 156 872 q 379 957 296 957 q 533 915 463 957 q 644 800 603 872 q 686 643 686 728 q 644 486 686 558 q 533 372 603 414 q 379 329 463 329 m 379 375 q 510 411 450 375 q 605 508 569 447 q 640 643 640 569 q 605 778 640 717 q 510 875 569 839 q 379 911 450 911 q 249 875 308 911 q 153 778 189 839 q 118 643 118 717 q 153 508 118 569 q 249 411 189 447 q 379 375 308 375 m 367 489 q 256 535 303 489 q 210 644 210 581 q 257 769 210 722 q 382 817 304 817 q 483 781 429 817 q 496 758 496 772 q 490 742 496 749 q 474 736 483 736 q 456 744 464 736 q 382 771 419 771 q 283 731 308 771 q 257 644 257 692 q 291 566 257 597 q 367 535 325 535 q 434 548 404 535 q 479 588 464 561 q 503 606 492 606 q 519 599 513 606 q 526 582 526 592 q 519 564 526 572 q 367 489 465 489 z "},"ª":{"ha":358,"x_min":8,"x_max":344,"o":"m 319 481 q 292 532 292 481 q 229 499 257 510 q 167 488 201 488 q 53 540 99 488 q 8 672 8 593 q 32 792 8 733 q 101 888 56 850 q 208 926 146 926 q 288 915 249 926 q 343 890 326 904 l 344 506 q 338 488 344 494 q 319 481 331 481 m 168 538 q 290 583 221 538 l 294 857 q 258 869 282 864 q 214 875 233 875 q 128 844 163 875 q 76 766 93 813 q 60 675 60 719 q 88 580 60 622 q 168 538 115 538 z "},"¬":{"ha":657,"x_min":57,"x_max":581,"o":"m 554 169 q 535 177 543 169 q 526 196 526 185 l 528 389 l 83 389 q 65 397 72 389 q 57 414 57 404 q 65 434 57 426 q 83 442 72 442 l 554 442 q 572 434 564 442 q 581 414 581 426 l 579 196 q 572 178 579 186 q 554 169 564 169 z "},"®":{"ha":763,"x_min":74,"x_max":689,"o":"m 382 329 q 228 372 299 329 q 115 486 157 414 q 74 643 74 558 q 115 800 74 728 q 228 915 157 872 q 382 957 299 957 q 535 915 465 957 q 647 800 606 872 q 689 643 689 728 q 647 486 689 558 q 535 372 606 414 q 382 329 465 329 m 382 375 q 513 411 453 375 q 608 508 572 447 q 643 643 643 569 q 608 778 643 717 q 513 875 572 839 q 382 911 453 911 q 250 875 310 911 q 155 778 190 839 q 119 643 119 717 q 155 508 119 569 q 250 411 190 447 q 382 375 310 375 m 263 510 q 247 518 253 510 q 242 538 240 526 l 283 790 q 290 806 285 801 q 316 813 296 811 q 383 815 336 815 q 497 791 457 815 q 538 724 538 767 q 379 626 538 656 l 490 550 q 499 532 499 544 q 492 515 499 522 q 475 508 485 508 q 461 514 468 508 l 303 624 l 288 532 q 279 516 286 522 q 263 510 272 510 m 310 663 q 434 686 378 667 q 490 725 490 706 q 454 758 490 747 q 371 769 418 769 q 325 767 344 769 l 310 663 z "},"¯":{"ha":350,"x_min":0,"x_max":350,"o":"m 26 853 q 8 861 17 853 q 0 881 0 869 q 8 899 0 892 q 26 907 17 907 l 325 907 q 342 899 335 907 q 350 881 350 892 q 342 861 350 869 q 325 853 335 853 l 26 853 z "},"°":{"ha":328,"x_min":3,"x_max":331,"o":"m 168 654 q 51 703 100 654 q 3 819 3 751 q 51 935 3 888 q 168 983 100 983 q 283 935 235 983 q 331 819 331 888 q 283 703 331 751 q 168 654 235 654 m 168 701 q 251 735 217 701 q 286 819 286 769 q 251 903 286 868 q 168 938 217 938 q 83 903 119 938 q 47 819 47 868 q 83 735 47 769 q 168 701 118 701 z "},"±":{"ha":603,"x_min":83,"x_max":526,"o":"m 306 186 q 285 194 293 186 q 276 213 276 203 l 276 378 l 111 378 q 92 385 100 378 q 83 404 83 393 q 92 424 83 415 q 111 433 100 433 l 276 433 l 276 583 q 284 603 276 594 q 306 611 292 611 q 324 603 317 611 q 332 583 332 594 l 332 433 l 499 433 q 518 424 510 433 q 526 404 526 415 q 518 385 526 393 q 499 378 510 378 l 332 378 l 332 213 q 324 194 332 203 q 306 186 317 186 m 135 -10 q 115 -2 122 -10 q 107 19 107 6 q 115 38 107 31 q 135 46 124 46 l 475 46 q 494 38 486 46 q 503 19 503 31 q 495 -1 503 7 q 475 -10 488 -10 l 135 -10 z "},"²":{"ha":322,"x_min":3,"x_max":319,"o":"m 7 647 q 27 757 7 713 q 88 838 47 801 q 204 921 129 874 q 265 1021 265 961 q 237 1081 265 1056 q 165 1107 208 1107 q 104 1091 133 1107 q 57 1057 75 1075 q 47 1047 54 1054 q 35 1038 40 1040 q 26 1035 31 1035 q 10 1042 18 1035 q 3 1058 3 1049 q 10 1076 3 1068 q 75 1129 36 1106 q 164 1153 114 1153 q 269 1117 225 1153 q 313 1021 313 1082 q 280 927 313 964 q 190 856 247 890 q 56 672 56 775 l 296 672 q 313 665 306 672 q 319 647 319 658 q 312 632 319 639 q 296 625 304 625 l 7 625 l 7 647 z "},"³":{"ha":324,"x_min":3,"x_max":321,"o":"m 158 619 q 65 645 103 619 q 7 704 28 671 q 3 721 3 713 q 9 738 3 731 q 26 744 15 744 q 46 733 40 744 q 158 667 88 667 q 237 696 200 667 q 274 782 274 725 q 242 862 274 831 q 144 899 211 893 q 121 922 121 901 q 127 940 121 935 q 144 946 133 944 q 225 973 188 949 q 263 1039 263 997 q 228 1092 263 1074 q 157 1111 194 1111 q 103 1103 121 1111 q 67 1081 85 1094 q 49 1074 58 1074 q 33 1080 40 1074 q 26 1096 26 1086 q 67 1138 26 1118 q 158 1158 107 1158 q 263 1126 218 1158 q 308 1039 308 1093 q 287 974 308 1006 q 229 925 265 943 q 321 782 321 881 q 273 665 321 711 q 158 619 225 619 z "},"´":{"ha":232,"x_min":1,"x_max":231,"o":"m 32 800 q 11 808 21 800 q 1 826 1 815 q 11 847 1 836 l 157 1029 q 189 1044 171 1044 q 218 1034 206 1044 q 231 1007 231 1024 q 218 979 231 994 l 51 810 q 32 800 44 800 z "},"¶":{"ha":763,"x_min":103,"x_max":674,"o":"m 542 1094 q 560 1087 553 1094 q 568 1068 568 1079 q 544 1038 568 1044 l 510 1029 q 513 872 513 935 q 414 -100 513 429 q 403 -117 411 -111 q 383 -124 394 -124 q 362 -115 369 -124 q 354 -96 354 -107 q 360 -62 354 -96 q 381 42 374 -8 q 436 490 428 332 l 397 490 q 181 556 260 490 q 103 733 103 621 q 158 897 103 825 q 303 1015 213 968 q 437 1069 358 1044 q 542 1094 515 1094 m 543 -122 q 523 -114 531 -122 q 515 -96 515 -106 q 526 -25 515 -85 l 540 51 q 593 451 572 247 q 614 888 614 654 l 613 999 q 621 1022 613 1013 q 642 1031 629 1031 q 662 1022 653 1031 q 672 1003 671 1014 q 674 888 674 983 q 574 -97 674 422 q 564 -116 572 -110 q 543 -122 556 -122 z "},"·":{"ha":229,"x_min":75,"x_max":158,"o":"m 111 300 q 85 313 94 300 q 75 344 75 325 q 90 382 75 365 q 122 399 104 399 q 148 387 138 399 q 158 357 158 375 q 144 317 158 335 q 111 300 131 300 z "},"¸":{"ha":236,"x_min":0,"x_max":236,"o":"m 122 -46 q 202 -79 168 -46 q 236 -160 236 -112 q 198 -249 236 -211 q 107 -286 160 -286 q 32 -265 64 -286 q 0 -215 0 -243 q 7 -197 0 -204 q 25 -190 14 -190 q 50 -206 40 -190 q 108 -239 68 -239 q 162 -217 140 -239 q 183 -162 183 -194 q 163 -112 183 -132 q 110 -92 142 -92 q 71 -102 89 -92 q 43 -112 53 -112 q 28 -106 35 -112 q 22 -90 22 -100 q 31 -54 22 -83 q 42 -14 39 -25 l 51 19 q 75 46 57 46 q 90 38 85 46 q 93 18 96 31 l 83 -53 q 122 -46 100 -46 z "},"¹":{"ha":221,"x_min":4,"x_max":221,"o":"m 29 626 q 13 633 18 626 q 7 649 7 639 q 13 666 7 660 q 29 672 19 672 l 96 672 l 103 1072 l 46 1011 q 36 1004 42 1006 q 25 1003 31 1003 q 10 1009 17 1003 q 4 1024 4 1015 q 10 1042 4 1036 l 108 1149 q 126 1157 117 1157 q 143 1149 136 1157 q 150 1132 150 1142 l 142 672 l 197 672 q 214 665 207 672 q 221 649 221 658 q 214 633 221 639 q 197 626 207 626 l 29 626 z "},"º":{"ha":375,"x_min":3,"x_max":378,"o":"m 178 488 q 90 513 131 488 q 26 584 50 539 q 3 683 3 629 q 28 794 3 740 q 99 884 53 849 q 204 919 144 919 q 291 894 251 919 q 354 822 331 868 q 378 718 378 776 q 355 615 378 669 q 286 524 332 561 q 178 488 240 488 m 178 532 q 248 556 214 532 q 303 624 282 581 q 325 718 325 667 q 288 827 325 779 q 200 875 251 875 q 131 849 164 875 q 76 781 97 824 q 56 688 56 738 q 90 578 56 624 q 178 532 125 532 z "},"¼":{"ha":924,"x_min":89,"x_max":836,"o":"m 114 451 q 97 458 103 451 q 92 474 92 464 q 98 491 92 485 q 114 497 104 497 l 181 497 l 188 897 l 131 836 q 121 829 126 831 q 110 828 115 828 q 95 834 101 828 q 89 849 89 840 q 94 867 89 861 l 193 974 q 211 982 201 982 q 228 974 221 982 q 235 957 235 967 l 226 497 l 282 497 q 299 490 292 497 q 306 474 306 483 q 299 458 306 464 q 282 451 292 451 l 114 451 m 246 -11 q 231 -5 238 -11 q 224 10 224 1 q 229 26 224 17 l 739 947 q 758 960 746 960 q 774 954 768 960 q 781 940 781 949 q 775 921 781 935 l 265 1 q 246 -11 258 -11 m 760 -69 q 743 -62 750 -69 q 736 -44 736 -54 l 736 61 l 524 64 q 506 71 513 64 q 499 86 499 78 q 504 103 499 94 l 736 447 q 758 460 744 460 q 776 453 769 460 q 782 435 782 446 l 782 106 l 813 106 q 829 99 822 106 q 836 83 836 93 q 829 68 836 75 q 813 61 822 61 l 782 61 l 782 -44 q 775 -62 782 -54 q 760 -69 768 -69 m 736 369 l 558 107 l 736 106 l 736 369 z "},"½":{"ha":1021,"x_min":89,"x_max":933,"o":"m 621 -46 q 641 64 621 19 q 702 144 661 108 q 818 228 743 181 q 879 328 879 268 q 851 388 879 363 q 779 414 822 414 q 718 398 747 414 q 671 364 689 382 q 661 354 668 361 q 649 344 654 347 q 640 342 644 342 q 624 349 632 342 q 617 365 617 356 q 624 383 617 375 q 689 436 650 413 q 778 460 728 460 q 883 424 839 460 q 926 328 926 389 q 894 234 926 271 q 804 163 861 197 q 669 -21 669 82 l 910 -21 q 926 -28 919 -21 q 933 -46 933 -35 q 926 -61 933 -54 q 910 -68 918 -68 l 621 -68 l 621 -46 m 114 460 q 97 466 103 460 q 92 482 92 472 q 98 499 92 493 q 114 506 104 506 l 181 506 l 188 906 l 131 844 q 121 838 126 839 q 110 836 115 836 q 95 842 101 836 q 89 857 89 849 q 94 875 89 869 l 193 982 q 211 990 201 990 q 228 983 221 990 q 235 965 235 975 l 226 506 l 282 506 q 299 499 292 506 q 306 482 306 492 q 299 466 306 472 q 282 460 292 460 l 114 460 m 240 -19 q 225 -13 232 -19 q 218 1 218 -7 q 224 18 218 8 l 733 939 q 753 951 740 951 q 769 946 763 951 q 775 932 775 940 q 769 913 775 926 l 260 -7 q 240 -19 253 -19 z "},"¾":{"ha":996,"x_min":88,"x_max":907,"o":"m 243 450 q 150 476 188 450 q 92 535 113 501 q 88 551 88 543 q 94 568 88 561 q 111 575 100 575 q 131 564 125 575 q 243 497 172 497 q 322 526 285 497 q 358 613 358 556 q 327 692 358 661 q 229 729 296 724 q 206 753 206 732 q 212 770 206 765 q 229 776 218 775 q 310 803 272 779 q 347 869 347 828 q 313 923 347 904 q 242 942 279 942 q 188 933 206 942 q 151 911 169 925 q 133 904 143 904 q 118 910 125 904 q 111 926 111 917 q 151 969 111 949 q 243 989 192 989 q 348 956 303 989 q 393 869 393 924 q 372 805 393 836 q 314 756 350 774 q 406 613 406 711 q 358 496 406 542 q 243 450 310 450 m 288 -11 q 272 -5 279 -11 q 265 10 265 1 q 271 26 265 17 l 781 947 q 800 960 788 960 q 816 954 810 960 q 822 940 822 949 q 817 921 822 935 l 307 1 q 288 -11 300 -11 m 831 -69 q 814 -62 821 -69 q 807 -44 807 -54 l 807 61 l 594 64 q 576 71 583 64 q 569 86 569 78 q 575 103 569 94 l 807 447 q 829 460 815 460 q 847 453 840 460 q 853 435 853 446 l 853 106 l 883 106 q 900 99 893 106 q 907 83 907 93 q 900 68 907 75 q 883 61 893 61 l 853 61 l 853 -44 q 846 -62 853 -54 q 831 -69 839 -69 m 807 369 l 629 107 l 807 106 l 807 369 z "},"¿":{"ha":682,"x_min":86,"x_max":640,"o":"m 489 590 q 463 602 474 590 q 453 631 453 614 q 467 670 453 653 q 500 688 481 688 q 526 674 515 688 q 536 643 536 661 q 522 606 536 622 q 489 590 507 590 m 385 -275 q 229 -240 297 -275 q 124 -140 161 -204 q 86 7 86 -76 q 115 130 86 75 q 175 217 143 185 q 269 306 207 250 l 438 454 q 457 464 450 464 q 478 455 469 464 q 486 435 486 446 q 476 414 486 424 l 304 258 q 218 176 250 210 q 164 100 186 143 q 142 7 142 57 q 201 -153 142 -86 q 385 -219 261 -219 q 501 -189 453 -219 q 592 -110 550 -158 q 611 -101 604 -101 q 632 -109 624 -101 q 640 -128 640 -117 q 613 -172 640 -144 q 515 -245 574 -215 q 385 -275 457 -275 z "},"À":{"ha":793,"x_min":31,"x_max":754,"o":"m 722 -10 q 692 15 700 -10 l 572 365 l 196 282 l 92 15 q 61 -8 83 -8 q 39 0 47 -8 q 31 21 31 8 q 36 43 31 31 l 125 269 q 78 258 88 258 q 58 267 67 258 q 49 289 49 276 q 56 308 49 300 q 74 318 63 315 l 151 336 l 385 928 q 415 947 393 947 q 433 942 425 947 q 444 928 442 936 l 747 49 q 754 19 754 31 q 745 -1 754 8 q 722 -10 736 -10 m 551 422 l 410 831 l 222 350 l 551 422 m 469 1036 q 444 1046 458 1036 l 249 1181 q 236 1206 236 1189 q 248 1235 236 1222 q 274 1247 260 1247 q 293 1241 283 1247 q 311 1228 303 1235 l 488 1083 q 496 1064 496 1076 q 488 1044 496 1053 q 469 1036 481 1036 z "},"Á":{"ha":793,"x_min":31,"x_max":754,"o":"m 722 -10 q 692 15 700 -10 l 572 365 l 196 282 l 92 15 q 61 -8 83 -8 q 39 0 47 -8 q 31 21 31 8 q 36 43 31 31 l 125 269 q 78 258 88 258 q 58 267 67 258 q 49 289 49 276 q 56 308 49 300 q 74 318 63 315 l 151 336 l 385 928 q 415 947 393 947 q 433 942 425 947 q 444 928 442 936 l 747 49 q 754 19 754 31 q 745 -1 754 8 q 722 -10 736 -10 m 551 422 l 410 831 l 222 350 l 551 422 m 353 1036 q 333 1044 342 1036 q 325 1064 325 1053 q 333 1083 325 1075 l 511 1228 q 531 1242 522 1238 q 549 1247 539 1247 q 574 1235 563 1247 q 586 1206 586 1222 q 574 1181 586 1189 l 378 1046 q 353 1036 364 1036 z "},"Â":{"ha":793,"x_min":31,"x_max":754,"o":"m 722 -10 q 692 15 700 -10 l 572 365 l 196 282 l 92 15 q 61 -8 83 -8 q 39 0 47 -8 q 31 21 31 8 q 36 43 31 31 l 125 269 q 78 258 88 258 q 58 267 67 258 q 49 289 49 276 q 56 308 49 300 q 74 318 63 315 l 151 336 l 385 928 q 415 947 393 947 q 433 942 425 947 q 444 928 442 936 l 747 49 q 754 19 754 31 q 745 -1 754 8 q 722 -10 736 -10 m 551 422 l 410 831 l 222 350 l 551 422 z "},"Ã":{"ha":793,"x_min":31,"x_max":754,"o":"m 722 -10 q 692 15 700 -10 l 572 365 l 196 282 l 92 15 q 61 -8 83 -8 q 39 0 47 -8 q 31 21 31 8 q 36 43 31 31 l 125 269 q 78 258 88 258 q 58 267 67 258 q 49 289 49 276 q 56 308 49 300 q 74 318 63 315 l 151 336 l 385 928 q 415 947 393 947 q 433 942 425 947 q 444 928 442 936 l 747 49 q 754 19 754 31 q 745 -1 754 8 q 722 -10 736 -10 m 551 422 l 410 831 l 222 350 l 551 422 z "},"Ä":{"ha":793,"x_min":31,"x_max":754,"o":"m 722 -10 q 692 15 700 -10 l 572 365 l 196 282 l 92 15 q 61 -8 83 -8 q 39 0 47 -8 q 31 21 31 8 q 36 43 31 31 l 125 269 q 78 258 88 258 q 58 267 67 258 q 49 289 49 276 q 56 308 49 300 q 74 318 63 315 l 151 336 l 385 928 q 415 947 393 947 q 433 942 425 947 q 444 928 442 936 l 747 49 q 754 19 754 31 q 745 -1 754 8 q 722 -10 736 -10 m 551 422 l 410 831 l 222 350 l 551 422 z "},"Å":{"ha":793,"x_min":31,"x_max":754,"o":"m 722 -10 q 692 15 700 -10 l 572 365 l 196 282 l 92 15 q 61 -8 83 -8 q 39 0 47 -8 q 31 21 31 8 q 36 43 31 31 l 125 269 q 78 258 88 258 q 58 267 67 258 q 49 289 49 276 q 56 308 49 300 q 74 318 63 315 l 151 336 l 385 928 q 415 947 393 947 q 433 942 425 947 q 444 928 442 936 l 747 49 q 754 19 754 31 q 745 -1 754 8 q 722 -10 736 -10 m 551 422 l 410 831 l 222 350 l 551 422 z "},"Æ":{"ha":1435,"x_min":68,"x_max":1368,"o":"m 97 -12 q 77 -4 86 -12 q 68 14 68 4 q 74 32 68 21 l 293 340 l 242 331 l 238 331 q 219 340 226 331 q 213 358 213 349 q 239 388 213 381 l 342 408 l 708 926 q 726 938 715 938 l 1339 938 q 1360 930 1351 938 q 1368 910 1368 922 q 1360 890 1368 899 q 1339 881 1351 881 l 760 881 l 760 488 l 1268 488 q 1288 479 1279 488 q 1296 460 1296 471 q 1288 438 1296 447 q 1268 429 1279 429 l 760 431 l 760 49 l 1339 49 q 1360 41 1351 49 q 1368 21 1368 33 q 1360 0 1368 8 q 1339 -8 1351 -8 l 731 -8 q 711 0 719 -8 q 703 21 703 8 l 703 425 l 374 357 l 121 -1 q 97 -12 110 -12 m 703 483 l 703 819 l 424 425 l 703 483 z "},"Ç":{"ha":846,"x_min":74,"x_max":808,"o":"m 776 201 q 799 193 789 201 q 808 172 808 185 q 801 153 808 163 q 661 35 744 76 q 481 -10 578 -7 l 474 -57 q 513 -50 490 -50 q 592 -83 558 -50 q 626 -164 626 -117 q 588 -253 626 -215 q 497 -290 550 -290 q 422 -269 454 -290 q 390 -219 390 -247 q 397 -201 390 -208 q 415 -194 404 -194 q 440 -211 429 -194 q 499 -243 460 -243 q 552 -222 531 -243 q 574 -167 574 -200 q 553 -116 574 -136 q 500 -96 532 -96 q 461 -106 479 -96 q 433 -117 443 -117 q 419 -110 425 -117 q 413 -94 413 -104 q 435 -8 413 -82 q 252 56 335 1 q 122 201 169 111 q 74 401 74 292 q 135 663 74 539 q 294 863 197 788 q 489 939 392 939 q 602 922 553 939 q 694 879 651 906 q 708 897 700 890 q 726 903 717 903 q 747 894 739 903 q 756 874 756 886 l 756 783 q 747 761 756 771 q 725 751 738 751 q 704 761 714 751 q 694 783 694 771 l 694 794 q 490 878 618 878 q 324 809 407 878 q 189 629 242 740 q 136 401 136 518 q 188 208 136 288 q 318 90 240 129 q 472 50 396 50 q 624 83 551 50 q 753 189 696 117 q 776 201 764 201 z "},"È":{"ha":849,"x_min":142,"x_max":810,"o":"m 172 0 q 151 9 160 0 q 142 32 142 18 l 142 901 q 151 922 142 914 q 172 931 160 931 l 779 931 q 801 922 792 931 q 810 901 810 914 q 801 878 810 888 q 779 869 792 869 l 203 869 l 203 517 l 710 517 q 731 508 722 517 q 740 486 740 500 q 731 465 740 474 q 710 456 722 456 l 203 456 l 203 61 l 776 61 q 798 53 789 61 q 807 32 807 44 q 798 9 807 18 q 776 0 789 0 l 172 0 m 536 1036 q 511 1046 525 1036 l 315 1181 q 303 1206 303 1189 q 315 1235 303 1222 q 340 1247 326 1247 q 360 1241 350 1247 q 378 1228 369 1235 l 554 1083 q 563 1064 563 1076 q 555 1044 563 1053 q 536 1036 547 1036 z "},"É":{"ha":849,"x_min":142,"x_max":810,"o":"m 172 0 q 151 9 160 0 q 142 32 142 18 l 142 901 q 151 922 142 914 q 172 931 160 931 l 779 931 q 801 922 792 931 q 810 901 810 914 q 801 878 810 888 q 779 869 792 869 l 203 869 l 203 517 l 710 517 q 731 508 722 517 q 740 486 740 500 q 731 465 740 474 q 710 456 722 456 l 203 456 l 203 61 l 776 61 q 798 53 789 61 q 807 32 807 44 q 798 9 807 18 q 776 0 789 0 l 172 0 m 419 1036 q 400 1044 408 1036 q 392 1064 392 1053 q 400 1083 392 1075 l 578 1228 q 597 1242 589 1238 q 615 1247 606 1247 q 641 1235 629 1247 q 653 1206 653 1222 q 640 1181 653 1189 l 444 1046 q 419 1036 431 1036 z "},"Ê":{"ha":849,"x_min":142,"x_max":810,"o":"m 172 0 q 151 9 160 0 q 142 32 142 18 l 142 901 q 151 922 142 914 q 172 931 160 931 l 779 931 q 801 922 792 931 q 810 901 810 914 q 801 878 810 888 q 779 869 792 869 l 203 869 l 203 517 l 710 517 q 731 508 722 517 q 740 486 740 500 q 731 465 740 474 q 710 456 722 456 l 203 456 l 203 61 l 776 61 q 798 53 789 61 q 807 32 807 44 q 798 9 807 18 q 776 0 789 0 l 172 0 z "},"Ë":{"ha":849,"x_min":142,"x_max":810,"o":"m 172 0 q 151 9 160 0 q 142 32 142 18 l 142 901 q 151 922 142 914 q 172 931 160 931 l 779 931 q 801 922 792 931 q 810 901 810 914 q 801 878 810 888 q 779 869 792 869 l 203 869 l 203 517 l 710 517 q 731 508 722 517 q 740 486 740 500 q 731 465 740 474 q 710 456 722 456 l 203 456 l 203 61 l 776 61 q 798 53 789 61 q 807 32 807 44 q 798 9 807 18 q 776 0 789 0 l 172 0 z "},"Ì":{"ha":508,"x_min":42,"x_max":467,"o":"m 74 -1 q 51 8 61 -1 q 42 31 42 17 q 51 50 42 42 q 74 58 61 58 l 225 58 l 225 871 l 74 871 q 51 880 61 871 q 42 901 42 889 q 51 922 42 914 q 74 931 61 931 l 436 931 q 458 922 449 931 q 467 901 467 914 q 458 880 467 889 q 436 871 449 871 l 286 871 l 286 58 l 436 58 q 458 51 450 58 q 467 31 467 43 q 458 8 467 17 q 436 -1 449 -1 l 74 -1 m 311 1036 q 286 1046 300 1036 l 90 1181 q 78 1206 78 1189 q 90 1235 78 1222 q 115 1247 101 1247 q 135 1241 125 1247 q 153 1228 144 1235 l 329 1083 q 338 1064 338 1076 q 330 1044 338 1053 q 311 1036 322 1036 z "},"Í":{"ha":508,"x_min":42,"x_max":467,"o":"m 74 -1 q 51 8 61 -1 q 42 31 42 17 q 51 50 42 42 q 74 58 61 58 l 225 58 l 225 871 l 74 871 q 51 880 61 871 q 42 901 42 889 q 51 922 42 914 q 74 931 61 931 l 436 931 q 458 922 449 931 q 467 901 467 914 q 458 880 467 889 q 436 871 449 871 l 286 871 l 286 58 l 436 58 q 458 51 450 58 q 467 31 467 43 q 458 8 467 17 q 436 -1 449 -1 l 74 -1 m 196 1036 q 176 1044 185 1036 q 168 1064 168 1053 q 176 1083 168 1075 l 354 1228 q 374 1242 365 1238 q 392 1247 382 1247 q 417 1235 406 1247 q 429 1206 429 1222 q 417 1181 429 1189 l 221 1046 q 196 1036 207 1036 z "},"Î":{"ha":508,"x_min":42,"x_max":467,"o":"m 74 -1 q 51 8 61 -1 q 42 31 42 17 q 51 50 42 42 q 74 58 61 58 l 225 58 l 225 871 l 74 871 q 51 880 61 871 q 42 901 42 889 q 51 922 42 914 q 74 931 61 931 l 436 931 q 458 922 449 931 q 467 901 467 914 q 458 880 467 889 q 436 871 449 871 l 286 871 l 286 58 l 436 58 q 458 51 450 58 q 467 31 467 43 q 458 8 467 17 q 436 -1 449 -1 l 74 -1 z "},"Ï":{"ha":508,"x_min":42,"x_max":467,"o":"m 74 -1 q 51 8 61 -1 q 42 31 42 17 q 51 50 42 42 q 74 58 61 58 l 225 58 l 225 871 l 74 871 q 51 880 61 871 q 42 901 42 889 q 51 922 42 914 q 74 931 61 931 l 436 931 q 458 922 449 931 q 467 901 467 914 q 458 880 467 889 q 436 871 449 871 l 286 871 l 286 58 l 436 58 q 458 51 450 58 q 467 31 467 43 q 458 8 467 17 q 436 -1 449 -1 l 74 -1 z "},"Ð":{"ha":888,"x_min":25,"x_max":811,"o":"m 349 -37 q 178 -12 278 -37 q 160 -2 167 -11 q 153 17 153 7 l 153 390 l 54 390 q 34 399 43 390 q 25 419 25 408 q 34 442 25 432 q 54 451 43 451 l 153 451 l 153 907 q 163 928 153 919 q 185 938 172 938 q 468 894 328 938 q 710 733 608 851 q 811 407 811 615 q 685 73 811 183 q 349 -37 560 -37 m 349 25 q 649 120 546 25 q 753 407 753 215 q 605 755 753 643 q 210 876 457 867 l 210 451 l 368 451 q 389 442 381 451 q 397 419 397 432 q 389 399 397 408 q 368 390 381 390 l 210 390 l 210 42 q 349 25 296 25 z "},"Ñ":{"ha":957,"x_min":142,"x_max":815,"o":"m 171 -8 q 151 1 160 -8 q 142 22 142 10 l 143 907 q 151 928 143 919 q 171 938 160 938 q 200 922 189 938 l 756 117 l 756 910 q 764 930 756 921 q 785 939 772 939 q 806 930 797 939 q 815 910 815 921 l 815 22 q 807 1 815 10 q 785 -8 799 -8 q 761 4 768 -8 l 203 811 l 201 22 q 192 1 201 10 q 171 -8 183 -8 z "},"Ò":{"ha":901,"x_min":76,"x_max":825,"o":"m 421 -8 q 244 50 322 -8 q 121 208 165 108 q 76 426 76 308 q 132 682 76 564 q 281 869 188 800 q 482 939 374 939 q 658 881 581 939 q 781 724 736 824 q 825 504 825 624 q 769 249 825 367 q 621 61 714 131 q 421 -8 528 -8 m 422 50 q 588 112 510 50 q 713 277 665 174 q 761 499 761 381 q 724 688 761 600 q 622 828 688 775 q 474 881 556 881 q 310 819 388 881 q 187 654 233 758 q 140 428 140 550 q 177 236 140 322 q 278 100 214 150 q 422 50 343 50 m 506 1036 q 481 1046 494 1036 l 285 1181 q 272 1206 272 1189 q 284 1235 272 1222 q 310 1247 296 1247 q 329 1241 319 1247 q 347 1228 339 1235 l 524 1083 q 532 1064 532 1076 q 524 1044 532 1053 q 506 1036 517 1036 z "},"Ó":{"ha":901,"x_min":76,"x_max":825,"o":"m 421 -8 q 244 50 322 -8 q 121 208 165 108 q 76 426 76 308 q 132 682 76 564 q 281 869 188 800 q 482 939 374 939 q 658 881 581 939 q 781 724 736 824 q 825 504 825 624 q 769 249 825 367 q 621 61 714 131 q 421 -8 528 -8 m 422 50 q 588 112 510 50 q 713 277 665 174 q 761 499 761 381 q 724 688 761 600 q 622 828 688 775 q 474 881 556 881 q 310 819 388 881 q 187 654 233 758 q 140 428 140 550 q 177 236 140 322 q 278 100 214 150 q 422 50 343 50 m 390 1036 q 371 1044 379 1036 q 363 1064 363 1053 q 371 1083 363 1075 l 549 1228 q 568 1242 560 1238 q 586 1247 576 1247 q 612 1235 600 1247 q 624 1206 624 1222 q 611 1181 624 1189 l 415 1046 q 390 1036 401 1036 z "},"Ô":{"ha":901,"x_min":76,"x_max":825,"o":"m 421 -8 q 244 50 322 -8 q 121 208 165 108 q 76 426 76 308 q 132 682 76 564 q 281 869 188 800 q 482 939 374 939 q 658 881 581 939 q 781 724 736 824 q 825 504 825 624 q 769 249 825 367 q 621 61 714 131 q 421 -8 528 -8 m 422 50 q 588 112 510 50 q 713 277 665 174 q 761 499 761 381 q 724 688 761 600 q 622 828 688 775 q 474 881 556 881 q 310 819 388 881 q 187 654 233 758 q 140 428 140 550 q 177 236 140 322 q 278 100 214 150 q 422 50 343 50 z "},"Õ":{"ha":901,"x_min":76,"x_max":825,"o":"m 421 -8 q 244 50 322 -8 q 121 208 165 108 q 76 426 76 308 q 132 682 76 564 q 281 869 188 800 q 482 939 374 939 q 658 881 581 939 q 781 724 736 824 q 825 504 825 624 q 769 249 825 367 q 621 61 714 131 q 421 -8 528 -8 m 422 50 q 588 112 510 50 q 713 277 665 174 q 761 499 761 381 q 724 688 761 600 q 622 828 688 775 q 474 881 556 881 q 310 819 388 881 q 187 654 233 758 q 140 428 140 550 q 177 236 140 322 q 278 100 214 150 q 422 50 343 50 z "},"Ö":{"ha":901,"x_min":76,"x_max":825,"o":"m 421 -8 q 244 50 322 -8 q 121 208 165 108 q 76 426 76 308 q 132 682 76 564 q 281 869 188 800 q 482 939 374 939 q 658 881 581 939 q 781 724 736 824 q 825 504 825 624 q 769 249 825 367 q 621 61 714 131 q 421 -8 528 -8 m 422 50 q 588 112 510 50 q 713 277 665 174 q 761 499 761 381 q 724 688 761 600 q 622 828 688 775 q 474 881 556 881 q 310 819 388 881 q 187 654 233 758 q 140 428 140 550 q 177 236 140 322 q 278 100 214 150 q 422 50 343 50 z "},"×":{"ha":518,"x_min":94,"x_max":424,"o":"m 122 163 q 102 172 110 163 q 94 190 94 181 q 103 210 94 201 l 222 329 l 114 435 q 106 454 106 443 q 115 474 106 465 q 133 482 124 482 q 153 474 146 482 l 261 368 l 378 485 q 394 492 382 492 q 424 463 424 492 q 417 446 424 450 l 300 329 l 415 211 q 424 193 424 206 q 416 172 424 181 q 397 164 408 164 q 376 172 385 164 l 261 289 l 142 171 q 122 163 133 163 z "},"Ø":{"ha":899,"x_min":76,"x_max":822,"o":"m 146 -54 q 125 -47 132 -54 q 118 -26 118 -39 q 122 -11 118 -18 l 185 103 q 105 249 133 165 q 76 425 76 333 q 132 681 76 563 q 280 869 188 799 q 479 939 372 939 q 628 897 551 939 l 690 1013 q 715 1025 697 1025 q 733 1018 725 1025 q 742 999 742 1011 q 738 985 742 992 l 672 867 q 783 708 743 803 q 822 503 822 613 q 767 247 822 365 q 619 59 711 129 q 419 -11 526 -11 q 225 63 314 -11 l 168 -40 q 146 -54 161 -54 m 599 846 q 468 885 538 885 q 303 823 381 885 q 178 656 225 761 q 132 425 132 550 q 153 282 132 351 q 214 154 174 213 l 599 846 m 419 43 q 588 105 508 43 q 717 272 668 167 q 767 497 767 376 q 734 668 767 583 q 643 813 701 753 l 253 110 q 419 43 328 43 z "},"Ù":{"ha":1000,"x_min":117,"x_max":883,"o":"m 483 -8 q 222 121 314 -8 q 119 501 129 250 q 117 685 117 576 l 118 901 q 126 928 118 918 q 150 938 135 938 q 179 900 179 938 l 178 788 q 175 672 175 710 q 178 521 175 613 q 485 43 194 43 q 713 133 635 43 q 808 376 790 222 q 819 647 819 478 l 818 896 q 849 938 818 938 q 871 926 864 938 q 878 899 878 915 q 881 815 878 893 q 883 654 883 738 q 867 367 883 496 q 750 91 843 190 q 483 -8 657 -8 m 554 1036 q 529 1046 543 1036 l 333 1181 q 321 1206 321 1189 q 333 1235 321 1222 q 358 1247 344 1247 q 378 1241 368 1247 q 396 1228 388 1235 l 572 1083 q 581 1064 581 1076 q 573 1044 581 1053 q 554 1036 565 1036 z "},"Ú":{"ha":1000,"x_min":117,"x_max":883,"o":"m 483 -8 q 222 121 314 -8 q 119 501 129 250 q 117 685 117 576 l 118 901 q 126 928 118 918 q 150 938 135 938 q 179 900 179 938 l 178 788 q 175 672 175 710 q 178 521 175 613 q 485 43 194 43 q 713 133 635 43 q 808 376 790 222 q 819 647 819 478 l 818 896 q 849 938 818 938 q 871 926 864 938 q 878 899 878 915 q 881 815 878 893 q 883 654 883 738 q 867 367 883 496 q 750 91 843 190 q 483 -8 657 -8 m 439 1036 q 419 1044 428 1036 q 411 1064 411 1053 q 419 1083 411 1075 l 597 1228 q 617 1242 608 1238 q 635 1247 625 1247 q 660 1235 649 1247 q 672 1206 672 1222 q 660 1181 672 1189 l 464 1046 q 439 1036 450 1036 z "},"Û":{"ha":1000,"x_min":117,"x_max":883,"o":"m 483 -8 q 222 121 314 -8 q 119 501 129 250 q 117 685 117 576 l 118 901 q 126 928 118 918 q 150 938 135 938 q 179 900 179 938 l 178 788 q 175 672 175 710 q 178 521 175 613 q 485 43 194 43 q 713 133 635 43 q 808 376 790 222 q 819 647 819 478 l 818 896 q 849 938 818 938 q 871 926 864 938 q 878 899 878 915 q 881 815 878 893 q 883 654 883 738 q 867 367 883 496 q 750 91 843 190 q 483 -8 657 -8 z "},"Ü":{"ha":1000,"x_min":117,"x_max":883,"o":"m 483 -8 q 222 121 314 -8 q 119 501 129 250 q 117 685 117 576 l 118 901 q 126 928 118 918 q 150 938 135 938 q 179 900 179 938 l 178 788 q 175 672 175 710 q 178 521 175 613 q 485 43 194 43 q 713 133 635 43 q 808 376 790 222 q 819 647 819 478 l 818 896 q 849 938 818 938 q 871 926 864 938 q 878 899 878 915 q 881 815 878 893 q 883 654 883 738 q 867 367 883 496 q 750 91 843 190 q 483 -8 657 -8 z "},"Ý":{"ha":796,"x_min":4,"x_max":796,"o":"m 242 -8 q 219 1 229 -8 q 210 19 210 10 q 218 42 210 28 l 363 285 l 11 888 q 7 897 10 890 q 4 910 4 903 q 14 930 4 922 q 36 938 24 938 q 60 922 51 938 l 397 343 l 740 922 q 765 938 749 938 q 786 929 776 938 q 796 910 796 921 q 786 883 796 900 l 265 7 q 242 -8 258 -8 m 343 1036 q 324 1044 332 1036 q 315 1064 315 1053 q 324 1083 315 1075 l 501 1228 q 521 1242 513 1238 q 539 1247 529 1247 q 565 1235 553 1247 q 576 1206 576 1222 q 564 1181 576 1189 l 368 1046 q 343 1036 354 1036 z "},"Þ":{"ha":749,"x_min":128,"x_max":689,"o":"m 154 -8 q 135 -1 143 -8 q 128 18 128 7 l 131 911 q 139 928 131 921 q 157 936 147 936 q 176 928 168 936 q 183 910 183 921 l 183 783 q 542 729 394 783 q 689 514 689 675 q 609 331 689 401 q 413 228 529 260 q 181 194 297 197 l 181 17 q 173 -1 181 6 q 154 -8 165 -8 m 182 253 q 378 278 274 254 q 559 361 482 303 q 636 514 636 419 q 533 672 636 615 q 246 728 431 728 q 183 725 207 728 l 182 253 z "},"ß":{"ha":721,"x_min":97,"x_max":663,"o":"m 439 489 q 601 400 539 474 q 663 229 663 326 q 626 93 663 156 q 526 -7 589 31 q 390 -44 464 -44 q 289 -27 329 -44 q 249 14 249 -10 q 256 32 249 25 q 274 39 264 39 q 303 29 283 39 q 343 15 324 19 q 392 10 363 10 q 499 40 449 10 q 578 119 549 69 q 608 229 608 169 q 581 335 608 285 q 503 415 554 385 q 386 446 453 446 q 351 443 371 446 q 319 440 329 440 q 301 448 308 440 q 293 467 293 456 q 329 496 293 496 q 444 549 400 499 q 488 667 488 599 q 439 783 488 736 q 319 831 390 831 q 236 808 275 831 q 174 746 197 785 q 151 663 151 707 l 151 18 q 144 -1 151 7 q 124 -10 136 -10 q 105 -1 113 -10 q 97 18 97 7 l 97 663 q 127 774 97 722 q 208 855 157 825 q 319 885 260 885 q 431 856 379 885 q 512 776 482 826 q 542 667 542 726 q 513 560 542 611 q 439 489 485 510 z "},"à":{"ha":729,"x_min":71,"x_max":608,"o":"m 578 -17 q 556 -6 564 -17 q 547 19 547 4 l 547 75 q 442 16 501 40 q 329 -8 383 -8 q 197 29 256 -8 q 104 134 138 67 q 71 289 71 201 q 112 479 71 388 q 228 628 153 571 q 403 685 304 685 q 517 667 461 685 q 608 629 572 649 l 608 17 q 600 -7 608 3 q 578 -17 592 -17 m 326 50 q 442 78 385 50 q 544 138 500 106 l 550 593 q 483 616 525 606 q 407 626 442 626 q 260 578 322 626 q 165 454 197 531 q 132 292 132 378 q 158 161 132 215 q 229 78 185 107 q 326 50 274 50 z "},"á":{"ha":729,"x_min":71,"x_max":608,"o":"m 578 -17 q 556 -6 564 -17 q 547 19 547 4 l 547 75 q 442 16 501 40 q 329 -8 383 -8 q 197 29 256 -8 q 104 134 138 67 q 71 289 71 201 q 112 479 71 388 q 228 628 153 571 q 403 685 304 685 q 517 667 461 685 q 608 629 572 649 l 608 17 q 600 -7 608 3 q 578 -17 592 -17 m 326 50 q 442 78 385 50 q 544 138 500 106 l 550 593 q 483 616 525 606 q 407 626 442 626 q 260 578 322 626 q 165 454 197 531 q 132 292 132 378 q 158 161 132 215 q 229 78 185 107 q 326 50 274 50 z "},"â":{"ha":729,"x_min":71,"x_max":613,"o":"m 578 -17 q 556 -6 564 -17 q 547 19 547 4 l 547 75 q 442 16 501 40 q 329 -8 383 -8 q 197 29 256 -8 q 104 134 138 67 q 71 289 71 201 q 112 479 71 388 q 228 628 153 571 q 403 685 304 685 q 517 667 461 685 q 608 629 572 649 l 608 17 q 600 -7 608 3 q 578 -17 592 -17 m 326 50 q 442 78 385 50 q 544 138 500 106 l 550 593 q 483 616 525 606 q 407 626 442 626 q 260 578 322 626 q 165 454 197 531 q 132 292 132 378 q 158 161 132 215 q 229 78 185 107 q 326 50 274 50 z "},"ã":{"ha":729,"x_min":71,"x_max":650,"o":"m 578 -17 q 556 -6 564 -17 q 547 19 547 4 l 547 75 q 442 16 501 40 q 329 -8 383 -8 q 197 29 256 -8 q 104 134 138 67 q 71 289 71 201 q 112 479 71 388 q 228 628 153 571 q 403 685 304 685 q 517 667 461 685 q 608 629 572 649 l 608 17 q 600 -7 608 3 q 578 -17 592 -17 m 326 50 q 442 78 385 50 q 544 138 500 106 l 550 593 q 483 616 525 606 q 407 626 442 626 q 260 578 322 626 q 165 454 197 531 q 132 292 132 378 q 158 161 132 215 q 229 78 185 107 q 326 50 274 50 z "},"ä":{"ha":729,"x_min":71,"x_max":608,"o":"m 578 -17 q 556 -6 564 -17 q 547 19 547 4 l 547 75 q 442 16 501 40 q 329 -8 383 -8 q 197 29 256 -8 q 104 134 138 67 q 71 289 71 201 q 112 479 71 388 q 228 628 153 571 q 403 685 304 685 q 517 667 461 685 q 608 629 572 649 l 608 17 q 600 -7 608 3 q 578 -17 592 -17 m 326 50 q 442 78 385 50 q 544 138 500 106 l 550 593 q 483 616 525 606 q 407 626 442 626 q 260 578 322 626 q 165 454 197 531 q 132 292 132 378 q 158 161 132 215 q 229 78 185 107 q 326 50 274 50 z "},"å":{"ha":729,"x_min":71,"x_max":608,"o":"m 578 -17 q 556 -6 564 -17 q 547 19 547 4 l 547 75 q 442 16 501 40 q 329 -8 383 -8 q 197 29 256 -8 q 104 134 138 67 q 71 289 71 201 q 112 479 71 388 q 228 628 153 571 q 403 685 304 685 q 517 667 461 685 q 608 629 572 649 l 608 17 q 600 -7 608 3 q 578 -17 592 -17 m 326 50 q 442 78 385 50 q 544 138 500 106 l 550 593 q 483 616 525 606 q 407 626 442 626 q 260 578 322 626 q 165 454 197 531 q 132 292 132 378 q 158 161 132 215 q 229 78 185 107 q 326 50 274 50 z "},"æ":{"ha":1146,"x_min":68,"x_max":1092,"o":"m 558 -8 q 537 1 546 -8 q 528 21 528 10 l 528 78 q 425 25 481 47 q 319 3 369 3 q 191 38 249 3 q 101 137 133 72 q 68 288 68 201 q 111 490 68 400 q 226 632 154 581 q 381 683 299 683 q 492 666 433 683 q 586 632 551 649 l 586 514 q 696 622 624 582 q 838 661 768 661 q 969 632 914 661 q 1051 561 1024 603 q 1079 488 1079 519 q 1054 456 1079 471 l 603 196 q 708 85 638 128 q 871 43 779 43 q 967 67 918 43 q 1049 129 1017 92 q 1065 138 1056 138 q 1084 131 1076 138 q 1092 113 1092 124 q 1085 92 1092 100 q 986 20 1049 49 q 861 -8 924 -8 q 703 29 778 -8 q 588 129 629 67 l 588 21 q 578 1 588 10 q 558 -8 569 -8 m 314 60 q 428 86 367 60 q 525 143 489 113 l 532 594 q 465 617 504 606 q 392 628 425 628 q 240 573 300 628 q 153 440 181 518 q 125 292 125 363 q 176 126 125 192 q 314 60 226 60 m 1026 494 q 838 606 979 606 q 708 567 767 606 q 615 463 649 529 q 581 317 581 397 q 586 249 581 275 l 1026 494 z "},"ç":{"ha":686,"x_min":74,"x_max":639,"o":"m 610 171 q 630 163 621 171 q 639 143 639 154 q 628 119 639 136 q 522 30 590 67 q 375 -8 454 -7 l 369 -53 q 408 -46 386 -46 q 488 -79 454 -46 q 522 -160 522 -112 q 484 -249 522 -211 q 393 -286 446 -286 q 318 -265 350 -286 q 286 -215 286 -243 q 293 -197 286 -204 q 311 -190 300 -190 q 336 -206 326 -190 q 394 -239 354 -239 q 448 -217 426 -239 q 469 -162 469 -194 q 449 -112 469 -132 q 396 -92 428 -92 q 357 -102 375 -92 q 329 -112 339 -112 q 315 -106 321 -112 q 308 -90 308 -100 q 331 -6 308 -79 q 202 44 261 4 q 108 147 143 83 q 74 290 74 211 q 117 476 74 385 q 233 626 161 568 q 381 685 304 685 q 499 661 453 685 q 588 588 544 638 q 594 568 594 581 q 586 547 594 556 q 567 539 578 539 q 546 547 557 539 q 475 609 513 588 q 383 631 438 631 q 263 582 321 631 q 167 455 204 533 q 131 293 131 376 q 166 160 131 217 q 257 75 201 104 q 369 46 313 46 q 581 151 503 46 q 610 171 594 171 z "},"è":{"ha":713,"x_min":71,"x_max":654,"o":"m 419 -8 q 236 36 315 -8 q 114 156 157 81 q 71 322 71 232 q 110 503 71 421 q 219 635 149 586 q 383 685 290 685 q 524 654 465 685 q 613 581 583 624 q 643 504 643 538 q 617 472 643 489 l 154 207 q 258 86 190 126 q 418 46 325 46 q 523 70 467 46 q 608 129 579 94 q 626 138 615 138 q 646 130 638 138 q 654 110 654 122 q 646 92 654 100 q 545 20 608 49 q 419 -8 482 -8 m 585 508 q 513 599 561 568 q 383 629 464 629 q 253 588 311 629 q 162 477 194 547 q 129 321 129 407 q 136 261 129 292 l 585 508 z "},"é":{"ha":713,"x_min":71,"x_max":654,"o":"m 419 -8 q 236 36 315 -8 q 114 156 157 81 q 71 322 71 232 q 110 503 71 421 q 219 635 149 586 q 383 685 290 685 q 524 654 465 685 q 613 581 583 624 q 643 504 643 538 q 617 472 643 489 l 154 207 q 258 86 190 126 q 418 46 325 46 q 523 70 467 46 q 608 129 579 94 q 626 138 615 138 q 646 130 638 138 q 654 110 654 122 q 646 92 654 100 q 545 20 608 49 q 419 -8 482 -8 m 585 508 q 513 599 561 568 q 383 629 464 629 q 253 588 311 629 q 162 477 194 547 q 129 321 129 407 q 136 261 129 292 l 585 508 z "},"ê":{"ha":713,"x_min":71,"x_max":654,"o":"m 419 -8 q 236 36 315 -8 q 114 156 157 81 q 71 322 71 232 q 110 503 71 421 q 219 635 149 586 q 383 685 290 685 q 524 654 465 685 q 613 581 583 624 q 643 504 643 538 q 617 472 643 489 l 154 207 q 258 86 190 126 q 418 46 325 46 q 523 70 467 46 q 608 129 579 94 q 626 138 615 138 q 646 130 638 138 q 654 110 654 122 q 646 92 654 100 q 545 20 608 49 q 419 -8 482 -8 m 585 508 q 513 599 561 568 q 383 629 464 629 q 253 588 311 629 q 162 477 194 547 q 129 321 129 407 q 136 261 129 292 l 585 508 z "},"ë":{"ha":713,"x_min":71,"x_max":654,"o":"m 419 -8 q 236 36 315 -8 q 114 156 157 81 q 71 322 71 232 q 110 503 71 421 q 219 635 149 586 q 383 685 290 685 q 524 654 465 685 q 613 581 583 624 q 643 504 643 538 q 617 472 643 489 l 154 207 q 258 86 190 126 q 418 46 325 46 q 523 70 467 46 q 608 129 579 94 q 626 138 615 138 q 646 130 638 138 q 654 110 654 122 q 646 92 654 100 q 545 20 608 49 q 419 -8 482 -8 m 585 508 q 513 599 561 568 q 383 629 464 629 q 253 588 311 629 q 162 477 194 547 q 129 321 129 407 q 136 261 129 292 l 585 508 z "},"ì":{"ha":322,"x_min":3,"x_max":231,"o":"m 157 -8 q 135 1 144 -8 q 125 24 125 10 l 133 649 q 143 671 133 661 q 165 681 153 681 q 188 672 179 681 q 197 649 197 663 l 189 24 q 179 1 189 11 q 157 -8 169 -8 z "},"í":{"ha":322,"x_min":83,"x_max":313,"o":"m 157 -8 q 135 1 144 -8 q 125 24 125 10 l 133 649 q 143 671 133 661 q 165 681 153 681 q 188 672 179 681 q 197 649 197 663 l 189 24 q 179 1 189 11 q 157 -8 169 -8 z "},"î":{"ha":322,"x_min":-43,"x_max":361,"o":"m 157 -8 q 135 1 144 -8 q 125 24 125 10 l 133 649 q 143 671 133 661 q 165 681 153 681 q 188 672 179 681 q 197 649 197 663 l 189 24 q 179 1 189 11 q 157 -8 169 -8 z "},"ï":{"ha":322,"x_min":-14,"x_max":331,"o":"m 157 -8 q 135 1 144 -8 q 125 24 125 10 l 133 649 q 143 671 133 661 q 165 681 153 681 q 188 672 179 681 q 197 649 197 663 l 189 24 q 179 1 189 11 q 157 -8 169 -8 z "},"ð":{"ha":650,"x_min":65,"x_max":592,"o":"m 292 -7 q 176 24 228 -7 q 95 110 125 54 q 65 236 65 165 q 115 423 65 343 q 255 547 165 503 q 464 596 344 592 q 315 792 408 688 q 219 735 260 761 q 169 703 178 708 q 142 689 149 689 q 130 694 135 689 q 125 706 125 699 q 138 726 125 717 q 260 804 157 740 l 288 821 q 239 867 265 846 q 221 884 228 876 q 214 899 214 892 q 222 917 214 910 q 240 925 229 925 q 260 917 250 925 q 281 900 265 915 q 336 846 297 885 q 440 902 383 874 q 510 931 497 931 q 522 926 517 931 q 526 913 526 921 q 518 900 526 904 q 361 819 431 858 q 527 590 463 711 q 592 347 592 468 q 555 176 592 257 q 449 44 518 94 q 292 -7 381 -7 m 292 46 q 422 89 367 46 q 508 202 478 132 q 538 351 538 272 q 489 543 538 439 q 224 468 329 543 q 119 235 119 393 q 168 98 119 150 q 292 46 217 46 z "},"ñ":{"ha":796,"x_min":125,"x_max":685,"o":"m 154 -8 q 134 0 143 -8 q 125 19 125 8 l 125 657 q 134 678 125 669 q 154 686 143 686 q 176 678 168 686 q 185 657 185 669 l 185 375 q 251 532 204 461 q 360 644 297 603 q 490 685 422 685 q 613 638 571 685 q 669 493 654 590 q 685 228 685 396 l 683 24 q 676 1 683 10 q 656 -8 668 -8 q 635 1 644 -8 q 626 22 626 10 l 625 225 q 615 466 625 383 q 576 589 606 549 q 482 629 546 629 q 369 587 424 629 q 269 463 314 544 q 208 306 229 390 q 185 144 186 222 l 183 25 q 176 1 183 10 q 154 -8 168 -8 z "},"ò":{"ha":749,"x_min":74,"x_max":675,"o":"m 351 -8 q 210 34 274 -8 q 110 149 146 76 q 74 310 74 222 q 117 494 74 407 q 234 633 160 581 q 396 685 308 685 q 537 642 472 685 q 638 526 601 599 q 675 368 675 454 q 631 181 675 267 q 512 43 586 94 q 351 -8 438 -8 m 354 44 q 481 88 421 44 q 576 206 540 132 q 613 361 613 279 q 583 494 613 432 q 501 594 553 557 q 389 632 450 632 q 263 587 322 632 q 169 468 204 542 q 135 313 135 394 q 163 178 135 239 q 242 81 192 117 q 354 44 292 44 z "},"ó":{"ha":749,"x_min":74,"x_max":675,"o":"m 351 -8 q 210 34 274 -8 q 110 149 146 76 q 74 310 74 222 q 117 494 74 407 q 234 633 160 581 q 396 685 308 685 q 537 642 472 685 q 638 526 601 599 q 675 368 675 454 q 631 181 675 267 q 512 43 586 94 q 351 -8 438 -8 m 354 44 q 481 88 421 44 q 576 206 540 132 q 613 361 613 279 q 583 494 613 432 q 501 594 553 557 q 389 632 450 632 q 263 587 322 632 q 169 468 204 542 q 135 313 135 394 q 163 178 135 239 q 242 81 192 117 q 354 44 292 44 z "},"ô":{"ha":749,"x_min":74,"x_max":675,"o":"m 351 -8 q 210 34 274 -8 q 110 149 146 76 q 74 310 74 222 q 117 494 74 407 q 234 633 160 581 q 396 685 308 685 q 537 642 472 685 q 638 526 601 599 q 675 368 675 454 q 631 181 675 267 q 512 43 586 94 q 351 -8 438 -8 m 354 44 q 481 88 421 44 q 576 206 540 132 q 613 361 613 279 q 583 494 613 432 q 501 594 553 557 q 389 632 450 632 q 263 587 322 632 q 169 468 204 542 q 135 313 135 394 q 163 178 135 239 q 242 81 192 117 q 354 44 292 44 z "},"õ":{"ha":749,"x_min":74,"x_max":675,"o":"m 351 -8 q 210 34 274 -8 q 110 149 146 76 q 74 310 74 222 q 117 494 74 407 q 234 633 160 581 q 396 685 308 685 q 537 642 472 685 q 638 526 601 599 q 675 368 675 454 q 631 181 675 267 q 512 43 586 94 q 351 -8 438 -8 m 354 44 q 481 88 421 44 q 576 206 540 132 q 613 361 613 279 q 583 494 613 432 q 501 594 553 557 q 389 632 450 632 q 263 587 322 632 q 169 468 204 542 q 135 313 135 394 q 163 178 135 239 q 242 81 192 117 q 354 44 292 44 z "},"ö":{"ha":749,"x_min":74,"x_max":675,"o":"m 351 -8 q 210 34 274 -8 q 110 149 146 76 q 74 310 74 222 q 117 494 74 407 q 234 633 160 581 q 396 685 308 685 q 537 642 472 685 q 638 526 601 599 q 675 368 675 454 q 631 181 675 267 q 512 43 586 94 q 351 -8 438 -8 m 354 44 q 481 88 421 44 q 576 206 540 132 q 613 361 613 279 q 583 494 613 432 q 501 594 553 557 q 389 632 450 632 q 263 587 322 632 q 169 468 204 542 q 135 313 135 394 q 163 178 135 239 q 242 81 192 117 q 354 44 292 44 z "},"÷":{"ha":601,"x_min":88,"x_max":514,"o":"m 307 421 q 287 431 294 421 q 279 457 279 442 q 290 488 279 474 q 317 501 301 501 q 336 492 328 501 q 344 469 344 482 q 333 435 344 449 q 307 421 322 421 m 117 301 q 97 310 106 301 q 88 329 88 318 q 97 348 88 340 q 117 356 106 356 l 485 356 q 505 348 496 356 q 514 329 514 340 q 505 310 514 318 q 485 301 496 301 l 117 301 m 285 157 q 264 167 272 157 q 256 193 256 178 q 267 224 256 210 q 294 238 279 238 q 314 228 306 238 q 322 206 322 219 q 311 172 322 186 q 285 157 300 157 z "},"ø":{"ha":749,"x_min":74,"x_max":675,"o":"m 147 -58 q 129 -50 138 -58 q 121 -32 121 -42 q 125 -17 121 -22 l 174 63 q 100 175 126 111 q 74 310 74 239 q 117 497 74 410 q 235 635 161 583 q 396 686 310 686 q 518 654 454 686 l 567 738 q 588 749 572 749 q 607 742 599 749 q 615 724 615 735 q 611 710 615 718 l 563 624 q 645 509 615 576 q 675 368 675 442 q 631 181 675 267 q 512 43 586 94 q 351 -8 438 -8 q 214 31 281 -8 l 171 -44 q 147 -58 163 -58 m 490 607 q 389 638 443 638 q 263 592 322 638 q 169 472 204 547 q 135 313 135 397 q 152 208 135 260 q 201 113 169 156 l 490 607 m 351 40 q 478 85 418 40 q 576 203 539 129 q 613 361 613 278 q 591 474 613 418 q 531 574 569 529 l 240 75 q 351 40 300 40 z "},"ù":{"ha":746,"x_min":103,"x_max":628,"o":"m 313 -12 q 190 22 235 -12 q 124 139 144 56 q 103 372 103 222 q 119 646 103 518 q 131 677 124 668 q 150 686 138 686 q 171 678 163 686 q 179 658 179 671 l 176 626 q 160 340 160 476 q 178 156 160 222 q 230 64 196 90 q 318 38 264 38 q 546 153 440 38 q 565 224 565 176 l 569 658 q 578 678 569 669 q 599 686 588 686 q 619 678 610 686 q 628 658 628 669 l 628 22 q 618 1 628 10 q 594 -8 608 -8 q 569 3 579 -8 q 560 29 560 14 l 560 107 q 459 22 526 57 q 313 -12 392 -12 z "},"ú":{"ha":746,"x_min":103,"x_max":628,"o":"m 313 -12 q 190 22 235 -12 q 124 139 144 56 q 103 372 103 222 q 119 646 103 518 q 131 677 124 668 q 150 686 138 686 q 171 678 163 686 q 179 658 179 671 l 176 626 q 160 340 160 476 q 178 156 160 222 q 230 64 196 90 q 318 38 264 38 q 546 153 440 38 q 565 224 565 176 l 569 658 q 578 678 569 669 q 599 686 588 686 q 619 678 610 686 q 628 658 628 669 l 628 22 q 618 1 628 10 q 594 -8 608 -8 q 569 3 579 -8 q 560 29 560 14 l 560 107 q 459 22 526 57 q 313 -12 392 -12 z "},"û":{"ha":746,"x_min":103,"x_max":628,"o":"m 313 -12 q 190 22 235 -12 q 124 139 144 56 q 103 372 103 222 q 119 646 103 518 q 131 677 124 668 q 150 686 138 686 q 171 678 163 686 q 179 658 179 671 l 176 626 q 160 340 160 476 q 178 156 160 222 q 230 64 196 90 q 318 38 264 38 q 546 153 440 38 q 565 224 565 176 l 569 658 q 578 678 569 669 q 599 686 588 686 q 619 678 610 686 q 628 658 628 669 l 628 22 q 618 1 628 10 q 594 -8 608 -8 q 569 3 579 -8 q 560 29 560 14 l 560 107 q 459 22 526 57 q 313 -12 392 -12 z "},"ü":{"ha":746,"x_min":103,"x_max":628,"o":"m 313 -12 q 190 22 235 -12 q 124 139 144 56 q 103 372 103 222 q 119 646 103 518 q 131 677 124 668 q 150 686 138 686 q 171 678 163 686 q 179 658 179 671 l 176 626 q 160 340 160 476 q 178 156 160 222 q 230 64 196 90 q 318 38 264 38 q 546 153 440 38 q 565 224 565 176 l 569 658 q 578 678 569 669 q 599 686 588 686 q 619 678 610 686 q 628 658 628 669 l 628 22 q 618 1 628 10 q 594 -8 608 -8 q 569 3 579 -8 q 560 29 560 14 l 560 107 q 459 22 526 57 q 313 -12 392 -12 z "},"ý":{"ha":617,"x_min":-7,"x_max":614,"o":"m 164 -289 q 144 -281 153 -289 q 135 -260 135 -272 q 140 -242 135 -253 l 283 69 l -1 638 q -7 654 -7 649 q 2 677 -7 668 q 22 686 11 686 q 53 665 43 686 l 317 143 l 558 668 q 569 682 561 676 q 586 688 576 688 q 607 679 600 688 q 614 657 614 671 q 611 640 614 649 l 193 -271 q 164 -289 182 -289 z "},"þ":{"ha":757,"x_min":125,"x_max":685,"o":"m 154 -286 q 134 -278 143 -286 q 125 -257 125 -269 l 125 925 q 134 947 125 938 q 154 956 143 956 q 176 947 168 956 q 185 925 185 938 l 185 557 q 297 640 226 608 q 451 671 368 671 q 581 628 529 671 q 659 515 633 585 q 685 369 685 446 q 615 112 685 221 q 381 3 546 3 q 279 17 331 3 q 185 53 228 32 l 185 -257 q 176 -278 185 -269 q 154 -286 168 -286 m 389 58 q 628 369 628 58 q 611 481 628 424 q 555 578 594 538 q 450 618 515 618 q 283 575 350 618 q 185 486 217 532 l 185 114 q 389 58 301 58 z "},"ÿ":{"ha":617,"x_min":-7,"x_max":614,"o":"m 164 -289 q 144 -281 153 -289 q 135 -260 135 -272 q 140 -242 135 -253 l 283 69 l -1 638 q -7 654 -7 649 q 2 677 -7 668 q 22 686 11 686 q 53 665 43 686 l 317 143 l 558 668 q 569 682 561 676 q 586 688 576 688 q 607 679 600 688 q 614 657 614 671 q 611 640 614 649 l 193 -271 q 164 -289 182 -289 z "},"ā":{"ha":729,"x_min":71,"x_max":608,"o":"m 578 -17 q 556 -6 564 -17 q 547 19 547 4 l 547 75 q 442 16 501 40 q 329 -8 383 -8 q 197 29 256 -8 q 104 134 138 67 q 71 289 71 201 q 112 479 71 388 q 228 628 153 571 q 403 685 304 685 q 517 667 461 685 q 608 629 572 649 l 608 17 q 600 -7 608 3 q 578 -17 592 -17 m 326 50 q 442 78 385 50 q 544 138 500 106 l 550 593 q 483 616 525 606 q 407 626 442 626 q 260 578 322 626 q 165 454 197 531 q 132 292 132 378 q 158 161 132 215 q 229 78 185 107 q 326 50 274 50 z "},"Ă":{"ha":793,"x_min":31,"x_max":754,"o":"m 722 -10 q 692 15 700 -10 l 572 365 l 196 282 l 92 15 q 61 -8 83 -8 q 39 0 47 -8 q 31 21 31 8 q 36 43 31 31 l 125 269 q 78 258 88 258 q 58 267 67 258 q 49 289 49 276 q 56 308 49 300 q 74 318 63 315 l 151 336 l 385 928 q 415 947 393 947 q 433 942 425 947 q 444 928 442 936 l 747 49 q 754 19 754 31 q 745 -1 754 8 q 722 -10 736 -10 m 551 422 l 410 831 l 222 350 l 551 422 z "},"ă":{"ha":729,"x_min":71,"x_max":615,"o":"m 578 -17 q 556 -6 564 -17 q 547 19 547 4 l 547 75 q 442 16 501 40 q 329 -8 383 -8 q 197 29 256 -8 q 104 134 138 67 q 71 289 71 201 q 112 479 71 388 q 228 628 153 571 q 403 685 304 685 q 517 667 461 685 q 608 629 572 649 l 608 17 q 600 -7 608 3 q 578 -17 592 -17 m 326 50 q 442 78 385 50 q 544 138 500 106 l 550 593 q 483 616 525 606 q 407 626 442 626 q 260 578 322 626 q 165 454 197 531 q 132 292 132 378 q 158 161 132 215 q 229 78 185 107 q 326 50 274 50 z "},"Ą":{"ha":793,"x_min":31,"x_max":847,"o":"m 822 -206 q 840 -213 833 -206 q 847 -232 847 -221 q 803 -274 847 -254 q 721 -294 760 -294 q 618 -256 658 -294 q 578 -158 578 -217 q 610 -62 578 -106 q 693 15 642 -18 l 689 25 l 572 365 l 196 282 l 92 15 q 61 -8 83 -8 q 39 0 47 -8 q 31 21 31 8 q 36 43 31 31 l 125 269 l 88 260 q 60 265 71 257 q 49 289 49 274 q 56 308 49 300 q 74 318 63 315 l 151 336 l 385 929 q 415 949 393 949 q 433 943 425 949 q 444 929 442 938 l 746 53 q 754 21 754 31 q 746 -1 754 8 q 718 -25 738 -11 q 633 -160 633 -85 q 658 -221 633 -197 q 719 -244 682 -244 q 790 -221 763 -244 q 803 -212 793 -218 q 822 -206 813 -206 m 222 350 l 551 422 l 410 831 l 222 350 z "},"ą":{"ha":692,"x_min":71,"x_max":700,"o":"m 569 -292 q 470 -253 510 -292 q 431 -156 431 -214 q 549 19 431 -57 l 549 79 q 441 25 499 47 q 331 3 383 3 q 198 40 257 3 q 105 146 139 78 q 71 301 71 214 q 106 478 71 383 q 216 640 142 572 q 403 707 290 707 q 610 651 499 707 l 610 29 q 601 3 610 14 q 581 -16 593 -7 q 565 -28 569 -25 q 502 -85 525 -57 q 479 -157 479 -114 q 506 -219 479 -196 q 571 -243 532 -243 q 663 -211 618 -243 q 676 -206 668 -206 q 692 -212 685 -206 q 700 -229 700 -219 q 654 -272 700 -253 q 569 -292 608 -292 m 328 63 q 438 88 385 63 q 546 149 490 114 l 551 614 q 484 637 526 626 q 407 647 442 647 q 251 591 313 647 q 162 455 190 535 q 133 304 133 375 q 153 192 133 247 q 217 99 174 136 q 328 63 261 63 z "},"Ć":{"ha":846,"x_min":74,"x_max":808,"o":"m 472 -10 q 273 44 364 -10 q 128 191 182 97 q 74 401 74 285 q 135 663 74 539 q 294 863 197 788 q 489 939 392 939 q 602 922 553 939 q 694 879 651 906 q 708 897 700 890 q 726 903 717 903 q 747 894 739 903 q 756 874 756 886 l 756 783 q 747 761 756 771 q 725 751 738 751 q 704 761 714 751 q 694 783 694 771 l 694 794 q 490 878 618 878 q 324 809 407 878 q 189 629 242 740 q 136 401 136 518 q 188 208 136 288 q 318 90 240 129 q 472 50 396 50 q 624 83 551 50 q 753 189 696 117 q 776 201 764 201 q 799 193 789 201 q 808 172 808 185 q 801 153 808 163 q 658 33 743 75 q 472 -10 572 -10 m 413 1036 q 393 1044 401 1036 q 385 1064 385 1053 q 393 1083 385 1075 l 571 1228 q 590 1242 582 1238 q 608 1247 599 1247 q 634 1235 622 1247 q 646 1206 646 1222 q 633 1181 646 1189 l 438 1046 q 413 1036 424 1036 z "},"ć":{"ha":686,"x_min":74,"x_max":639,"o":"m 371 -8 q 226 30 294 -8 q 115 136 157 68 q 74 290 74 204 q 117 476 74 385 q 233 626 161 568 q 381 685 304 685 q 499 661 453 685 q 588 588 544 638 q 594 568 594 581 q 586 547 594 556 q 567 539 578 539 q 546 547 557 539 q 475 609 513 588 q 383 631 438 631 q 263 582 321 631 q 167 455 204 533 q 131 293 131 376 q 166 160 131 217 q 257 75 201 104 q 369 46 313 46 q 581 151 503 46 q 610 171 594 171 q 630 163 621 171 q 639 143 639 154 q 628 119 639 136 q 520 29 590 67 q 371 -8 450 -8 z "},"Ĉ":{"ha":846,"x_min":74,"x_max":808,"o":"m 472 -10 q 273 44 364 -10 q 128 191 182 97 q 74 401 74 285 q 135 663 74 539 q 294 863 197 788 q 489 939 392 939 q 602 922 553 939 q 694 879 651 906 q 708 897 700 890 q 726 903 717 903 q 747 894 739 903 q 756 874 756 886 l 756 783 q 747 761 756 771 q 725 751 738 751 q 704 761 714 751 q 694 783 694 771 l 694 794 q 490 878 618 878 q 324 809 407 878 q 189 629 242 740 q 136 401 136 518 q 188 208 136 288 q 318 90 240 129 q 472 50 396 50 q 624 83 551 50 q 753 189 696 117 q 776 201 764 201 q 799 193 789 201 q 808 172 808 185 q 801 153 808 163 q 658 33 743 75 q 472 -10 572 -10 z "},"ĉ":{"ha":686,"x_min":74,"x_max":639,"o":"m 371 -8 q 226 30 294 -8 q 115 136 157 68 q 74 290 74 204 q 117 476 74 385 q 233 626 161 568 q 381 685 304 685 q 499 661 453 685 q 588 588 544 638 q 594 568 594 581 q 586 547 594 556 q 567 539 578 539 q 546 547 557 539 q 475 609 513 588 q 383 631 438 631 q 263 582 321 631 q 167 455 204 533 q 131 293 131 376 q 166 160 131 217 q 257 75 201 104 q 369 46 313 46 q 581 151 503 46 q 610 171 594 171 q 630 163 621 171 q 639 143 639 154 q 628 119 639 136 q 520 29 590 67 q 371 -8 450 -8 z "},"Č":{"ha":846,"x_min":74,"x_max":808,"o":"m 472 -10 q 273 44 364 -10 q 128 191 182 97 q 74 401 74 285 q 135 663 74 539 q 294 863 197 788 q 489 939 392 939 q 602 922 553 939 q 694 879 651 906 q 708 897 700 890 q 726 903 717 903 q 747 894 739 903 q 756 874 756 886 l 756 783 q 747 761 756 771 q 725 751 738 751 q 704 761 714 751 q 694 783 694 771 l 694 794 q 490 878 618 878 q 324 809 407 878 q 189 629 242 740 q 136 401 136 518 q 188 208 136 288 q 318 90 240 129 q 472 50 396 50 q 624 83 551 50 q 753 189 696 117 q 776 201 764 201 q 799 193 789 201 q 808 172 808 185 q 801 153 808 163 q 658 33 743 75 q 472 -10 572 -10 z "},"č":{"ha":686,"x_min":74,"x_max":639,"o":"m 371 -8 q 226 30 294 -8 q 115 136 157 68 q 74 290 74 204 q 117 476 74 385 q 233 626 161 568 q 381 685 304 685 q 499 661 453 685 q 588 588 544 638 q 594 568 594 581 q 586 547 594 556 q 567 539 578 539 q 546 547 557 539 q 475 609 513 588 q 383 631 438 631 q 263 582 321 631 q 167 455 204 533 q 131 293 131 376 q 166 160 131 217 q 257 75 201 104 q 369 46 313 46 q 581 151 503 46 q 610 171 594 171 q 630 163 621 171 q 639 143 639 154 q 628 119 639 136 q 520 29 590 67 q 371 -8 450 -8 z "},"Ď":{"ha":900,"x_min":142,"x_max":824,"o":"m 338 -14 q 165 11 265 -14 q 149 21 156 13 q 142 40 142 29 l 142 903 q 151 924 142 915 q 172 933 160 933 q 494 881 347 933 q 733 711 642 828 q 824 413 824 594 q 760 174 824 269 q 586 32 696 78 q 338 -14 476 -14 m 338 49 q 649 140 536 49 q 763 413 763 232 q 613 746 763 631 q 203 872 464 861 l 203 65 q 338 49 272 49 z "},"ď":{"ha":769,"x_min":72,"x_max":817,"o":"m 315 -17 q 192 18 247 -17 q 105 123 138 53 q 72 296 72 193 q 150 574 72 474 q 368 675 228 675 q 478 659 424 675 q 575 618 532 643 l 582 928 q 592 949 582 940 q 614 958 601 958 q 635 949 626 958 q 644 926 644 939 l 622 17 q 614 -8 622 1 q 592 -17 606 -17 q 569 -7 578 -17 q 561 19 561 3 l 564 110 q 453 19 519 54 q 315 -17 388 -17 m 322 39 q 440 69 385 39 q 531 142 496 100 q 567 218 565 185 l 574 560 q 371 618 463 618 q 192 531 251 618 q 132 300 132 444 q 182 108 132 176 q 322 39 232 39 m 735 736 q 720 742 726 736 q 714 756 714 747 q 717 768 714 760 l 753 864 q 735 904 735 882 q 749 942 735 926 q 782 957 763 957 q 806 946 796 957 q 817 922 817 935 q 811 883 817 903 q 788 824 806 864 q 771 783 782 811 q 752 745 760 754 q 735 736 744 736 z "},"Đ":{"ha":900,"x_min":50,"x_max":838,"o":"m 375 -37 q 203 -12 303 -37 q 186 -2 193 -11 q 179 17 179 7 l 179 390 l 81 390 q 59 399 68 390 q 50 419 50 408 q 59 442 50 432 q 81 451 68 451 l 179 451 l 179 907 q 189 928 179 919 q 211 938 199 938 q 494 894 353 938 q 736 733 635 851 q 838 407 838 615 q 712 73 838 183 q 375 -37 586 -37 m 375 25 q 676 120 572 25 q 779 407 779 215 q 631 755 779 643 q 236 876 482 867 l 236 451 l 393 451 q 414 442 406 451 q 422 419 422 432 q 414 399 422 408 q 393 390 406 390 l 236 390 l 236 42 q 375 25 319 25 z "},"đ":{"ha":769,"x_min":74,"x_max":744,"o":"m 719 833 q 737 826 729 833 q 744 808 744 818 q 737 789 744 797 q 719 781 729 781 l 642 781 l 624 21 q 615 -1 624 7 q 592 -8 606 -8 q 570 2 578 -8 q 563 28 563 13 l 565 118 q 310 -3 451 -3 q 179 41 232 -3 q 100 155 126 85 q 74 304 74 225 q 146 576 74 468 q 369 683 218 683 q 576 632 461 683 l 579 781 l 439 781 q 419 789 428 781 q 411 808 411 797 q 419 826 411 818 q 439 833 428 833 l 581 833 l 583 936 q 593 958 583 949 q 615 967 603 967 q 637 957 628 967 q 646 935 646 947 l 643 833 l 719 833 m 575 568 q 372 626 464 626 q 185 531 238 626 q 132 308 132 435 q 174 128 132 208 q 310 47 215 47 q 440 77 381 47 q 533 147 499 107 q 568 211 567 186 l 575 568 z "},"Ę":{"ha":849,"x_min":142,"x_max":828,"o":"m 801 -201 q 820 -209 813 -201 q 828 -228 828 -217 q 782 -270 828 -251 q 701 -289 736 -289 q 599 -250 639 -289 q 558 -153 558 -211 q 644 0 558 -71 l 172 0 q 151 9 160 0 q 142 32 142 18 l 142 901 q 151 922 142 914 q 172 931 160 931 l 779 931 q 801 922 792 931 q 810 901 810 914 q 801 878 810 888 q 779 869 792 869 l 203 869 l 203 517 l 710 517 q 731 508 722 517 q 740 486 740 500 q 731 465 740 474 q 710 456 722 456 l 203 456 l 203 61 l 776 61 q 798 53 789 61 q 807 32 807 44 q 798 9 807 18 q 776 0 789 0 l 721 0 q 709 -10 715 -6 q 697 -19 703 -14 q 636 -81 658 -51 q 614 -154 614 -111 q 638 -215 614 -192 q 700 -239 663 -239 q 774 -215 740 -239 q 784 -208 775 -214 q 801 -201 793 -201 z "},"ę":{"ha":714,"x_min":72,"x_max":653,"o":"m 625 138 q 645 130 638 138 q 653 110 653 122 q 646 92 653 99 q 595 53 626 71 q 515 11 564 35 q 397 -64 436 -28 q 358 -158 358 -100 q 385 -223 358 -199 q 450 -247 411 -247 q 495 -238 475 -247 q 540 -212 515 -229 q 554 -208 547 -208 q 570 -215 563 -208 q 578 -232 578 -222 q 535 -275 578 -256 q 450 -294 492 -294 q 350 -258 392 -294 q 308 -158 308 -221 q 333 -75 308 -115 q 400 -8 358 -35 q 226 46 300 -1 q 112 167 151 93 q 72 322 72 240 q 111 501 72 418 q 221 635 150 585 q 383 685 292 685 q 524 654 465 685 q 611 581 582 624 q 640 504 640 538 q 614 472 640 489 l 151 208 q 257 86 188 129 q 417 43 326 43 q 522 68 467 43 q 608 129 578 93 q 625 138 615 138 m 125 321 q 133 261 125 292 l 585 510 q 383 629 539 629 q 251 588 310 629 q 158 477 192 547 q 125 321 125 407 z "},"Ě":{"ha":849,"x_min":142,"x_max":810,"o":"m 172 0 q 151 9 160 0 q 142 32 142 18 l 142 901 q 151 922 142 914 q 172 931 160 931 l 779 931 q 801 922 792 931 q 810 901 810 914 q 801 878 810 888 q 779 869 792 869 l 203 869 l 203 517 l 710 517 q 731 508 722 517 q 740 486 740 500 q 731 465 740 474 q 710 456 722 456 l 203 456 l 203 61 l 776 61 q 798 53 789 61 q 807 32 807 44 q 798 9 807 18 q 776 0 789 0 l 172 0 z "},"ě":{"ha":713,"x_min":71,"x_max":654,"o":"m 419 -8 q 236 36 315 -8 q 114 156 157 81 q 71 322 71 232 q 110 503 71 421 q 219 635 149 586 q 383 685 290 685 q 524 654 465 685 q 613 581 583 624 q 643 504 643 538 q 617 472 643 489 l 154 207 q 258 86 190 126 q 418 46 325 46 q 523 70 467 46 q 608 129 579 94 q 626 138 615 138 q 646 130 638 138 q 654 110 654 122 q 646 92 654 100 q 545 20 608 49 q 419 -8 482 -8 m 585 508 q 513 599 561 568 q 383 629 464 629 q 253 588 311 629 q 162 477 194 547 q 129 321 129 407 q 136 261 129 292 l 585 508 z "},"Ĝ":{"ha":1000,"x_min":76,"x_max":951,"o":"m 494 -10 q 279 52 375 -10 q 130 219 183 114 q 76 451 76 325 q 131 683 76 569 q 287 868 186 796 q 517 940 388 940 q 717 892 635 940 q 840 781 800 843 q 881 683 881 719 q 872 665 881 672 q 853 657 864 657 q 822 679 828 657 q 717 822 790 764 q 517 879 643 879 q 303 805 389 879 q 178 630 218 731 q 139 451 139 529 q 182 257 139 349 q 306 108 225 165 q 494 51 388 51 q 711 125 621 51 q 833 328 801 199 q 781 331 811 331 q 697 325 731 331 q 624 311 663 319 q 594 306 596 306 q 574 314 583 306 q 565 336 565 322 q 586 365 565 356 q 674 384 619 376 q 779 392 728 392 q 933 368 863 392 q 951 340 951 361 q 943 318 951 326 q 924 310 935 310 q 892 317 917 310 q 754 82 858 174 q 494 -10 650 -10 z "},"ĝ":{"ha":744,"x_min":72,"x_max":631,"o":"m 333 -272 q 160 -251 251 -272 q 136 -222 136 -244 q 144 -201 136 -210 q 165 -193 153 -193 q 219 -203 175 -193 q 332 -212 263 -212 q 501 -153 450 -212 q 556 15 553 -93 l 558 132 q 469 31 528 71 q 346 -10 410 -8 q 204 35 267 -10 q 107 156 142 79 q 72 326 72 232 q 116 501 72 418 q 235 635 160 585 q 401 686 311 686 q 492 671 447 686 q 569 632 536 656 q 576 686 569 669 q 604 703 583 703 q 622 694 614 703 q 631 671 631 686 l 615 8 q 535 -201 613 -131 q 333 -272 458 -272 m 335 46 q 444 76 392 46 q 530 178 496 107 q 564 364 564 249 l 564 575 q 494 613 539 599 q 407 628 450 628 q 265 588 331 628 q 163 477 200 547 q 125 321 125 407 q 147 197 125 261 q 217 90 169 133 q 335 46 264 46 z "},"Ĥ":{"ha":1050,"x_min":142,"x_max":908,"o":"m 172 -8 q 150 1 158 -8 q 142 22 142 10 l 142 907 q 150 929 142 921 q 172 938 158 938 q 194 929 185 938 q 203 907 203 921 l 203 461 l 847 550 l 847 907 q 857 928 847 919 q 879 938 867 938 q 900 929 892 938 q 908 907 908 921 l 908 22 q 900 1 908 10 q 879 -8 892 -8 q 857 1 867 -8 q 847 22 847 10 l 847 488 l 203 399 l 203 22 q 194 1 203 10 q 172 -8 185 -8 z "},"ĥ":{"ha":771,"x_min":-47,"x_max":660,"o":"m 154 -10 q 134 -1 143 -10 q 125 21 125 8 l 125 926 q 134 948 125 939 q 154 957 143 957 q 176 948 168 957 q 185 926 185 939 l 185 435 q 256 552 208 493 q 364 650 304 611 q 481 689 424 689 q 619 574 579 689 q 660 213 660 458 q 656 22 660 67 q 647 0 654 8 q 626 -8 639 -8 q 607 0 615 -8 q 599 21 599 8 q 600 71 599 50 l 601 201 q 565 544 601 457 q 474 631 528 631 q 361 585 417 631 q 265 483 306 540 q 208 389 225 426 q 185 258 185 338 l 185 24 q 176 -1 185 7 q 154 -10 168 -10 z "},"Ĵ":{"ha":604,"x_min":13,"x_max":590,"o":"m 256 -8 q 111 29 165 -8 q 35 119 57 67 q 13 222 13 172 q 21 246 13 236 q 44 256 29 256 q 65 247 57 256 q 74 225 74 238 q 119 102 74 151 q 256 53 165 53 q 384 97 342 53 q 426 208 426 140 l 426 871 l 243 871 q 221 880 231 871 q 211 901 211 889 q 221 922 211 914 q 243 931 231 931 l 533 931 q 555 922 546 931 q 564 901 564 914 q 554 880 564 889 q 533 871 544 871 l 488 871 l 488 208 q 426 53 488 114 q 256 -8 365 -8 z "},"ĵ":{"ha":328,"x_min":-146,"x_max":367,"o":"m 44 -267 q -74 -215 -25 -267 q -143 -107 -122 -162 q -146 -94 -146 -99 q -137 -75 -146 -83 q -114 -67 -128 -67 q -85 -90 -94 -67 q 44 -214 -36 -214 q 124 -158 101 -214 q 146 -25 146 -101 q 139 542 146 129 l 138 657 q 146 680 138 671 q 168 689 154 689 q 190 681 181 689 q 200 658 200 672 l 207 -6 q 169 -194 208 -122 q 44 -267 131 -267 z "},"Ĺ":{"ha":701,"x_min":135,"x_max":692,"o":"m 175 -8 q 151 0 161 -10 q 142 22 142 10 l 142 907 q 150 928 142 919 q 172 938 158 938 q 193 928 185 938 q 201 907 201 919 l 201 53 l 658 85 q 682 77 672 86 q 692 56 692 68 q 683 36 692 44 q 663 26 675 28 l 175 -8 m 163 1036 q 143 1044 151 1036 q 135 1064 135 1053 q 143 1083 135 1075 l 321 1228 q 340 1242 332 1238 q 358 1247 349 1247 q 384 1235 372 1247 q 396 1206 396 1222 q 383 1181 396 1189 l 188 1046 q 163 1036 174 1036 z "},"ĺ":{"ha":311,"x_min":72,"x_max":333,"o":"m 156 -8 q 135 -1 144 -8 q 125 18 125 7 l 125 929 q 134 949 125 940 q 156 957 143 957 q 176 949 167 957 q 185 929 185 940 l 185 18 q 176 -1 185 7 q 156 -8 167 -8 m 100 1036 q 81 1044 89 1036 q 72 1064 72 1053 q 81 1083 72 1075 l 258 1228 q 278 1242 269 1238 q 296 1247 286 1247 q 322 1235 310 1247 q 333 1206 333 1222 q 321 1181 333 1189 l 125 1046 q 100 1036 111 1036 z "},"Ľ":{"ha":701,"x_min":142,"x_max":692,"o":"m 175 -8 q 151 0 161 -10 q 142 22 142 10 l 142 907 q 150 928 142 919 q 172 938 158 938 q 193 928 185 938 q 201 907 201 919 l 201 53 l 658 85 q 682 77 672 86 q 692 56 692 68 q 683 36 692 44 q 663 26 675 28 l 175 -8 m 539 744 q 524 750 531 744 q 518 764 518 756 q 521 776 518 768 l 557 872 q 539 913 539 890 q 553 950 539 935 q 586 965 567 965 q 610 954 600 965 q 621 931 621 943 q 615 892 621 911 q 592 832 610 872 q 575 791 586 819 q 556 753 564 763 q 539 744 549 744 z "},"ľ":{"ha":317,"x_min":125,"x_max":372,"o":"m 156 -17 q 135 -9 144 -17 q 125 10 125 -1 l 125 921 q 134 940 125 932 q 156 949 143 949 q 176 940 167 949 q 185 921 185 932 l 185 10 q 176 -9 185 -1 q 156 -17 167 -17 m 290 736 q 276 742 282 736 q 269 756 269 747 q 272 768 269 760 l 308 864 q 290 904 290 882 q 304 942 290 926 q 338 957 318 957 q 362 946 351 957 q 372 922 372 935 q 367 883 372 903 q 343 824 361 864 q 326 783 338 811 q 308 745 315 754 q 290 736 300 736 z "},"Ł":{"ha":701,"x_min":25,"x_max":692,"o":"m 658 76 q 682 69 672 78 q 692 47 692 60 q 683 28 692 36 q 663 18 675 19 l 175 -17 q 151 -8 161 -18 q 142 14 142 1 l 142 401 l 74 358 q 56 353 67 353 q 35 360 44 353 q 25 382 25 368 q 39 410 25 400 l 142 475 l 142 899 q 150 920 142 911 q 172 929 158 929 q 193 920 185 929 q 201 899 201 911 l 201 513 l 319 588 q 336 592 325 592 q 358 583 349 592 q 367 560 367 574 q 363 546 367 553 q 354 536 360 539 l 201 439 l 201 44 l 658 76 z "},"ł":{"ha":350,"x_min":11,"x_max":354,"o":"m 326 594 q 346 587 338 594 q 354 568 354 579 q 350 553 354 561 q 339 542 346 546 l 204 456 l 204 19 q 194 -1 204 7 q 174 -8 185 -8 q 152 -1 161 -8 q 143 19 143 7 l 143 417 l 60 364 q 39 358 49 358 q 19 365 28 358 q 11 383 11 372 q 25 410 11 400 l 143 485 l 143 929 q 152 949 143 940 q 174 957 161 957 q 194 949 185 957 q 204 929 204 940 l 204 522 l 307 588 q 326 594 317 594 z "},"Ń":{"ha":957,"x_min":142,"x_max":815,"o":"m 171 -8 q 151 1 160 -8 q 142 22 142 10 l 143 907 q 151 928 143 919 q 171 938 160 938 q 200 922 189 938 l 756 117 l 756 910 q 764 930 756 921 q 785 939 772 939 q 806 930 797 939 q 815 910 815 921 l 815 22 q 807 1 815 10 q 785 -8 799 -8 q 761 4 768 -8 l 203 811 l 201 22 q 192 1 201 10 q 171 -8 183 -8 m 424 1036 q 404 1044 413 1036 q 396 1064 396 1053 q 404 1083 396 1075 l 582 1228 q 601 1242 593 1238 q 619 1247 610 1247 q 645 1235 633 1247 q 657 1206 657 1222 q 644 1181 657 1189 l 449 1046 q 424 1036 435 1036 z "},"ń":{"ha":796,"x_min":125,"x_max":685,"o":"m 154 -8 q 134 0 143 -8 q 125 19 125 8 l 125 657 q 134 678 125 669 q 154 686 143 686 q 176 678 168 686 q 185 657 185 669 l 185 375 q 251 532 204 461 q 360 644 297 603 q 490 685 422 685 q 613 638 571 685 q 669 493 654 590 q 685 228 685 396 l 683 24 q 676 1 683 10 q 656 -8 668 -8 q 635 1 644 -8 q 626 22 626 10 l 625 225 q 615 466 625 383 q 576 589 606 549 q 482 629 546 629 q 369 587 424 629 q 269 463 314 544 q 208 306 229 390 q 185 144 186 222 l 183 25 q 176 1 183 10 q 154 -8 168 -8 z "},"Ň":{"ha":957,"x_min":142,"x_max":815,"o":"m 171 -8 q 151 1 160 -8 q 142 22 142 10 l 143 907 q 151 928 143 919 q 171 938 160 938 q 200 922 189 938 l 756 117 l 756 910 q 764 930 756 921 q 785 939 772 939 q 806 930 797 939 q 815 910 815 921 l 815 22 q 807 1 815 10 q 785 -8 799 -8 q 761 4 768 -8 l 203 811 l 201 22 q 192 1 201 10 q 171 -8 183 -8 z "},"ň":{"ha":796,"x_min":125,"x_max":685,"o":"m 154 -8 q 134 0 143 -8 q 125 19 125 8 l 125 657 q 134 678 125 669 q 154 686 143 686 q 176 678 168 686 q 185 657 185 669 l 185 375 q 251 532 204 461 q 360 644 297 603 q 490 685 422 685 q 613 638 571 685 q 669 493 654 590 q 685 228 685 396 l 683 24 q 676 1 683 10 q 656 -8 668 -8 q 635 1 644 -8 q 626 22 626 10 l 625 225 q 615 466 625 383 q 576 589 606 549 q 482 629 546 629 q 369 587 424 629 q 269 463 314 544 q 208 306 229 390 q 185 144 186 222 l 183 25 q 176 1 183 10 q 154 -8 168 -8 z "},"Ő":{"ha":901,"x_min":76,"x_max":825,"o":"m 421 -8 q 244 50 322 -8 q 121 208 165 108 q 76 426 76 308 q 132 682 76 564 q 281 869 188 800 q 482 939 374 939 q 658 881 581 939 q 781 724 736 824 q 825 504 825 624 q 769 249 825 367 q 621 61 714 131 q 421 -8 528 -8 m 422 50 q 588 112 510 50 q 713 277 665 174 q 761 499 761 381 q 724 688 761 600 q 622 828 688 775 q 474 881 556 881 q 310 819 388 881 q 187 654 233 758 q 140 428 140 550 q 177 236 140 322 q 278 100 214 150 q 422 50 343 50 m 325 1033 q 305 1040 314 1033 q 296 1057 296 1047 q 308 1083 296 1071 l 463 1239 q 503 1263 486 1263 q 528 1251 517 1263 q 540 1226 540 1240 q 538 1209 540 1215 q 529 1197 536 1203 l 350 1047 q 325 1033 336 1033 m 517 1032 q 497 1040 504 1032 q 489 1060 489 1049 q 497 1081 489 1074 l 672 1224 q 708 1244 696 1244 q 736 1232 725 1244 q 747 1203 747 1219 q 732 1174 747 1183 l 539 1043 q 517 1032 525 1032 z "},"ő":{"ha":749,"x_min":74,"x_max":675,"o":"m 351 -8 q 210 34 274 -8 q 110 149 146 76 q 74 310 74 222 q 117 494 74 407 q 234 633 160 581 q 396 685 308 685 q 537 642 472 685 q 638 526 601 599 q 675 368 675 454 q 631 181 675 267 q 512 43 586 94 q 351 -8 438 -8 m 354 44 q 481 88 421 44 q 576 206 540 132 q 613 361 613 279 q 583 494 613 432 q 501 594 553 557 q 389 632 450 632 q 263 587 322 632 q 169 468 204 542 q 135 313 135 394 q 163 178 135 239 q 242 81 192 117 q 354 44 292 44 z "},"Œ":{"ha":1482,"x_min":76,"x_max":1443,"o":"m 419 -8 q 244 51 322 -8 q 121 210 165 110 q 76 428 76 310 q 132 683 76 565 q 280 872 188 801 q 478 942 372 942 q 592 913 533 942 q 700 829 651 883 q 775 707 749 775 l 775 910 q 784 931 775 922 q 806 939 793 939 l 1413 939 q 1435 931 1426 939 q 1443 910 1443 922 q 1435 887 1443 896 q 1413 878 1426 878 l 836 878 l 836 513 l 1343 513 q 1365 504 1356 513 q 1374 482 1374 496 q 1365 460 1374 469 q 1343 451 1356 451 l 836 451 l 836 53 l 1410 53 q 1432 44 1424 53 q 1440 24 1440 36 q 1432 1 1440 10 q 1410 -8 1424 -8 l 806 -8 q 785 1 794 -8 q 775 24 775 11 l 774 265 q 685 125 742 188 q 558 27 628 63 q 419 -8 488 -8 m 419 46 q 603 117 524 46 q 724 293 682 188 q 767 500 767 399 q 728 688 767 599 q 621 833 689 778 q 468 888 553 888 q 302 826 379 888 q 178 658 225 764 q 132 428 132 553 q 169 236 132 324 q 272 97 206 149 q 419 46 338 46 z "},"œ":{"ha":1225,"x_min":74,"x_max":1168,"o":"m 344 -8 q 207 33 269 -8 q 109 144 144 74 q 74 296 74 214 q 114 470 74 385 q 226 609 154 556 q 388 663 297 663 q 531 609 463 663 q 635 472 600 556 q 757 613 681 564 q 913 661 833 661 q 1044 632 989 661 q 1127 561 1099 603 q 1156 488 1156 519 q 1128 456 1156 471 l 678 196 q 786 81 719 117 q 946 46 853 46 q 1044 69 994 46 q 1122 129 1093 93 q 1140 138 1131 138 q 1160 130 1151 138 q 1168 110 1168 122 q 1160 92 1168 103 q 1061 20 1124 49 q 936 -8 999 -8 q 754 42 833 -8 q 625 194 675 93 q 501 47 576 101 q 344 -8 426 -8 m 344 38 q 471 84 413 38 q 563 199 529 131 q 596 331 596 268 q 567 480 596 415 q 489 580 538 544 q 381 615 440 615 q 259 572 315 615 q 169 455 203 528 q 135 301 135 382 q 163 166 135 226 q 238 72 190 106 q 344 38 286 38 m 1101 494 q 1027 581 1069 556 q 913 606 985 606 q 781 567 840 606 q 688 461 722 529 q 654 308 654 393 q 660 249 654 281 l 1101 494 z "},"Ŕ":{"ha":854,"x_min":142,"x_max":804,"o":"m 171 -3 q 150 6 158 -3 q 142 28 142 14 l 142 903 q 149 933 142 924 q 176 947 156 943 q 239 950 196 950 l 281 950 q 641 875 514 950 q 768 664 768 800 q 690 491 768 560 q 489 381 611 422 q 649 251 560 339 q 801 42 739 164 q 804 28 804 31 q 796 6 804 15 q 774 -3 788 -3 q 747 15 758 -3 q 524 287 625 221 q 347 353 422 353 q 201 339 307 353 l 201 28 q 192 6 201 14 q 171 -3 183 -3 m 201 399 q 435 430 318 401 q 630 517 551 458 q 708 664 708 575 q 596 833 708 775 q 276 890 483 890 l 201 888 l 201 399 m 371 1036 q 351 1044 360 1036 q 343 1064 343 1053 q 351 1083 343 1075 l 529 1228 q 549 1242 540 1238 q 567 1247 557 1247 q 592 1235 581 1247 q 604 1206 604 1222 q 592 1181 604 1189 l 396 1046 q 371 1036 382 1036 z "},"ŕ":{"ha":567,"x_min":125,"x_max":550,"o":"m 154 -8 q 134 0 143 -8 q 125 19 125 8 l 125 656 q 134 676 125 668 q 154 685 143 685 q 177 676 168 685 q 186 656 186 668 l 186 482 q 243 577 204 529 q 335 657 282 625 q 444 689 388 689 q 550 575 550 689 l 550 539 q 542 517 550 526 q 521 508 533 508 q 492 540 492 508 l 492 569 q 481 615 492 599 q 431 631 469 631 q 238 499 336 631 q 201 424 215 469 q 186 343 186 379 l 185 19 q 176 0 185 8 q 154 -8 167 -8 z "},"Ř":{"ha":854,"x_min":142,"x_max":804,"o":"m 171 -3 q 150 6 158 -3 q 142 28 142 14 l 142 903 q 149 933 142 924 q 176 947 156 943 q 239 950 196 950 l 281 950 q 641 875 514 950 q 768 664 768 800 q 690 491 768 560 q 489 381 611 422 q 649 251 560 339 q 801 42 739 164 q 804 28 804 31 q 796 6 804 15 q 774 -3 788 -3 q 747 15 758 -3 q 524 287 625 221 q 347 353 422 353 q 201 339 307 353 l 201 28 q 192 6 201 14 q 171 -3 183 -3 m 201 399 q 435 430 318 401 q 630 517 551 458 q 708 664 708 575 q 596 833 708 775 q 276 890 483 890 l 201 888 l 201 399 z "},"ř":{"ha":567,"x_min":114,"x_max":550,"o":"m 154 -8 q 134 0 143 -8 q 125 19 125 8 l 125 656 q 134 676 125 668 q 154 685 143 685 q 177 676 168 685 q 186 656 186 668 l 186 482 q 243 577 204 529 q 335 657 282 625 q 444 689 388 689 q 550 575 550 689 l 550 539 q 542 517 550 526 q 521 508 533 508 q 492 540 492 508 l 492 569 q 481 615 492 599 q 431 631 469 631 q 238 499 336 631 q 201 424 215 469 q 186 343 186 379 l 185 19 q 176 0 185 8 q 154 -8 167 -8 z "},"Ś":{"ha":765,"x_min":38,"x_max":690,"o":"m 374 -8 q 167 44 256 -8 q 44 179 79 96 q 38 204 38 196 q 47 226 38 217 q 71 236 57 236 q 103 211 96 236 q 208 92 129 136 q 379 47 288 47 q 507 73 450 47 q 597 144 564 99 q 629 249 629 190 q 574 371 629 319 q 392 457 518 422 q 175 555 258 494 q 92 715 92 615 q 130 831 92 781 q 238 910 168 882 q 399 939 307 939 q 610 890 535 939 q 689 757 685 840 l 689 754 q 681 735 689 743 q 661 726 672 726 q 641 733 649 726 q 632 751 633 740 q 565 847 625 808 q 401 886 504 886 q 218 840 283 886 q 153 721 153 794 q 212 603 153 650 q 407 517 271 557 q 622 411 553 474 q 690 254 690 349 q 648 119 690 179 q 533 26 606 60 q 374 -8 461 -8 m 351 1036 q 332 1044 340 1036 q 324 1064 324 1053 q 332 1083 324 1075 l 510 1228 q 529 1242 521 1238 q 547 1247 538 1247 q 573 1235 561 1247 q 585 1206 585 1222 q 572 1181 585 1189 l 376 1046 q 351 1036 363 1036 z "},"ś":{"ha":582,"x_min":38,"x_max":524,"o":"m 288 -11 q 153 20 210 -11 q 67 94 96 51 q 38 165 38 136 q 46 185 38 176 q 65 193 54 193 q 92 174 85 193 q 163 78 111 113 q 289 43 215 43 q 416 85 367 43 q 465 188 465 128 q 429 267 465 236 q 290 329 393 299 q 129 408 181 363 q 78 518 78 453 q 138 640 78 594 q 306 685 199 685 q 467 644 411 685 q 524 535 524 604 q 493 479 524 479 q 472 488 481 479 q 464 507 464 496 q 465 519 464 513 q 467 536 467 525 q 308 632 467 632 q 176 602 219 632 q 133 518 133 572 q 172 444 133 474 q 314 381 210 414 q 478 299 433 342 q 522 189 522 257 q 493 92 522 139 q 410 17 464 46 q 288 -11 357 -11 z "},"Ŝ":{"ha":765,"x_min":38,"x_max":690,"o":"m 374 -8 q 167 44 256 -8 q 44 179 79 96 q 38 204 38 196 q 47 226 38 217 q 71 236 57 236 q 103 211 96 236 q 208 92 129 136 q 379 47 288 47 q 507 73 450 47 q 597 144 564 99 q 629 249 629 190 q 574 371 629 319 q 392 457 518 422 q 175 555 258 494 q 92 715 92 615 q 130 831 92 781 q 238 910 168 882 q 399 939 307 939 q 610 890 535 939 q 689 757 685 840 l 689 754 q 681 735 689 743 q 661 726 672 726 q 641 733 649 726 q 632 751 633 740 q 565 847 625 808 q 401 886 504 886 q 218 840 283 886 q 153 721 153 794 q 212 603 153 650 q 407 517 271 557 q 622 411 553 474 q 690 254 690 349 q 648 119 690 179 q 533 26 606 60 q 374 -8 461 -8 z "},"ŝ":{"ha":582,"x_min":38,"x_max":524,"o":"m 288 -11 q 153 20 210 -11 q 67 94 96 51 q 38 165 38 136 q 46 185 38 176 q 65 193 54 193 q 92 174 85 193 q 163 78 111 113 q 289 43 215 43 q 416 85 367 43 q 465 188 465 128 q 429 267 465 236 q 290 329 393 299 q 129 408 181 363 q 78 518 78 453 q 138 640 78 594 q 306 685 199 685 q 467 644 411 685 q 524 535 524 604 q 493 479 524 479 q 472 488 481 479 q 464 507 464 496 q 465 519 464 513 q 467 536 467 525 q 308 632 467 632 q 176 602 219 632 q 133 518 133 572 q 172 444 133 474 q 314 381 210 414 q 478 299 433 342 q 522 189 522 257 q 493 92 522 139 q 410 17 464 46 q 288 -11 357 -11 z "},"Ş":{"ha":765,"x_min":38,"x_max":690,"o":"m 690 254 q 653 128 690 185 q 553 35 617 71 q 411 -7 490 0 l 404 -57 q 443 -50 421 -50 q 523 -83 489 -50 q 557 -164 557 -117 q 519 -253 557 -215 q 428 -290 481 -290 q 353 -269 385 -290 q 321 -219 321 -247 q 328 -201 321 -208 q 346 -194 335 -194 q 371 -211 360 -194 q 429 -243 390 -243 q 483 -222 461 -243 q 504 -167 504 -200 q 483 -116 504 -136 q 431 -96 463 -96 q 392 -106 410 -96 q 364 -117 374 -117 q 349 -110 356 -117 q 343 -94 343 -104 q 365 -8 343 -82 q 164 45 250 -7 q 44 179 78 97 q 38 204 38 196 q 47 226 38 217 q 71 236 57 236 q 103 211 96 236 q 208 92 129 136 q 379 47 288 47 q 507 73 450 47 q 597 144 564 99 q 629 249 629 190 q 574 371 629 319 q 392 457 518 422 q 175 555 258 494 q 92 715 92 615 q 130 831 92 781 q 238 910 168 882 q 399 939 307 939 q 610 890 535 939 q 689 757 685 840 l 689 754 q 681 735 689 743 q 661 726 672 726 q 641 733 649 726 q 632 751 633 740 q 565 847 625 808 q 401 886 504 886 q 218 840 283 886 q 153 721 153 794 q 212 603 153 650 q 407 517 271 557 q 622 411 553 474 q 690 254 690 349 z "},"ş":{"ha":582,"x_min":38,"x_max":524,"o":"m 314 381 q 478 299 433 342 q 522 189 522 257 q 496 97 522 142 q 420 23 469 53 q 307 -11 371 -7 l 301 -53 q 340 -46 318 -46 q 420 -79 386 -46 q 454 -160 454 -112 q 416 -249 454 -211 q 325 -286 378 -286 q 250 -265 282 -286 q 218 -215 218 -243 q 225 -197 218 -204 q 243 -190 232 -190 q 268 -206 258 -190 q 326 -239 286 -239 q 380 -217 358 -239 q 401 -162 401 -194 q 381 -112 401 -132 q 328 -92 360 -92 q 289 -102 307 -92 q 261 -112 271 -112 q 247 -106 253 -112 q 240 -90 240 -100 q 261 -10 240 -78 q 141 27 192 -4 q 64 98 90 58 q 38 165 38 138 q 46 185 38 176 q 65 193 54 193 q 92 174 85 193 q 162 79 111 114 q 283 43 213 44 q 293 46 289 46 q 303 43 297 46 q 420 89 375 47 q 465 188 465 131 q 429 267 465 236 q 290 329 393 299 q 129 408 181 363 q 78 518 78 453 q 138 640 78 594 q 306 685 199 685 q 467 644 411 685 q 524 535 524 604 q 493 479 524 479 q 472 488 481 479 q 464 507 464 496 q 465 519 464 513 q 467 536 467 525 q 308 632 467 632 q 176 602 219 632 q 133 518 133 572 q 172 444 133 474 q 314 381 210 414 z "},"Š":{"ha":765,"x_min":38,"x_max":690,"o":"m 374 -8 q 167 44 256 -8 q 44 179 79 96 q 38 204 38 196 q 47 226 38 217 q 71 236 57 236 q 103 211 96 236 q 208 92 129 136 q 379 47 288 47 q 507 73 450 47 q 597 144 564 99 q 629 249 629 190 q 574 371 629 319 q 392 457 518 422 q 175 555 258 494 q 92 715 92 615 q 130 831 92 781 q 238 910 168 882 q 399 939 307 939 q 610 890 535 939 q 689 757 685 840 l 689 754 q 681 735 689 743 q 661 726 672 726 q 641 733 649 726 q 632 751 633 740 q 565 847 625 808 q 401 886 504 886 q 218 840 283 886 q 153 721 153 794 q 212 603 153 650 q 407 517 271 557 q 622 411 553 474 q 690 254 690 349 q 648 119 690 179 q 533 26 606 60 q 374 -8 461 -8 z "},"š":{"ha":582,"x_min":38,"x_max":524,"o":"m 288 -11 q 153 20 210 -11 q 67 94 96 51 q 38 165 38 136 q 46 185 38 176 q 65 193 54 193 q 92 174 85 193 q 163 78 111 113 q 289 43 215 43 q 416 85 367 43 q 465 188 465 128 q 429 267 465 236 q 290 329 393 299 q 129 408 181 363 q 78 518 78 453 q 138 640 78 594 q 306 685 199 685 q 467 644 411 685 q 524 535 524 604 q 493 479 524 479 q 472 488 481 479 q 464 507 464 496 q 465 519 464 513 q 467 536 467 525 q 308 632 467 632 q 176 602 219 632 q 133 518 133 572 q 172 444 133 474 q 314 381 210 414 q 478 299 433 342 q 522 189 522 257 q 493 92 522 139 q 410 17 464 46 q 288 -11 357 -11 z "},"ţ":{"ha":706,"x_min":7,"x_max":700,"o":"m 354 -8 q 333 1 342 -8 q 324 22 324 10 l 324 871 l 36 871 q 16 880 25 871 q 7 900 7 889 q 16 922 7 914 q 36 931 25 931 l 669 931 q 691 922 682 931 q 700 900 700 914 q 691 880 700 889 q 669 871 682 871 l 383 871 l 383 22 q 375 1 383 10 q 354 -8 367 -8 m 306 -281 q 290 -275 296 -281 q 283 -261 283 -269 q 286 -249 283 -254 l 322 -153 q 304 -112 304 -135 q 318 -74 304 -90 q 351 -58 332 -58 q 376 -70 365 -58 q 386 -94 386 -82 q 382 -126 386 -112 q 361 -183 378 -140 q 344 -226 357 -194 q 324 -269 332 -257 q 306 -281 315 -281 z "},"ț":{"ha":389,"x_min":-53,"x_max":421,"o":"m 182 -10 q 162 -1 171 -10 q 153 19 153 7 l 153 626 l -22 626 q -44 635 -35 626 q -53 656 -53 644 q -43 678 -53 669 q -19 686 -33 686 l 153 686 l 153 901 q 161 923 153 914 q 182 932 169 932 q 204 923 196 932 q 213 901 213 914 l 213 686 l 390 686 q 413 678 404 686 q 421 656 421 669 q 413 635 421 644 q 390 626 404 626 l 213 626 l 213 19 q 203 -1 213 7 q 182 -10 194 -10 m 140 -281 q 124 -275 131 -281 q 118 -261 118 -269 q 121 -249 118 -254 l 157 -153 q 139 -112 139 -135 q 153 -74 139 -90 q 186 -58 167 -58 q 210 -70 200 -58 q 221 -94 221 -82 q 217 -126 221 -112 q 196 -183 213 -140 q 179 -226 192 -194 q 158 -269 167 -257 q 140 -281 150 -281 z "},"Ť":{"ha":706,"x_min":7,"x_max":700,"o":"m 354 -8 q 333 1 342 -8 q 324 22 324 10 l 324 871 l 36 871 q 16 880 25 871 q 7 900 7 889 q 16 922 7 914 q 36 931 25 931 l 669 931 q 691 922 682 931 q 700 900 700 914 q 691 880 700 889 q 669 871 682 871 l 383 871 l 383 22 q 375 1 383 10 q 354 -8 367 -8 z "},"ť":{"ha":399,"x_min":-53,"x_max":453,"o":"m 182 -18 q 162 -10 171 -18 q 153 11 153 -1 l 153 618 l -22 618 q -44 627 -35 618 q -53 647 -53 636 q -43 669 -53 661 q -19 678 -33 678 l 153 678 l 153 893 q 161 915 153 906 q 182 924 169 924 q 204 915 196 924 q 213 893 213 906 l 213 678 l 390 678 q 413 669 404 678 q 421 647 421 661 q 413 627 421 636 q 390 618 404 618 l 213 618 l 213 11 q 203 -10 213 -1 q 182 -18 194 -18 m 371 814 q 356 819 363 814 q 350 833 350 825 q 353 846 350 838 l 389 942 q 371 982 371 960 q 385 1019 371 1004 q 418 1035 399 1035 q 442 1024 432 1035 q 453 1000 453 1013 q 447 961 453 981 q 424 901 442 942 q 407 860 418 889 q 388 823 396 832 q 371 814 381 814 z "},"Ŭ":{"ha":1000,"x_min":117,"x_max":883,"o":"m 483 -8 q 222 121 314 -8 q 119 501 129 250 q 117 685 117 576 l 118 901 q 126 928 118 918 q 150 938 135 938 q 179 900 179 938 l 178 788 q 175 672 175 710 q 178 521 175 613 q 485 43 194 43 q 713 133 635 43 q 808 376 790 222 q 819 647 819 478 l 818 896 q 849 938 818 938 q 871 926 864 938 q 878 899 878 915 q 881 815 878 893 q 883 654 883 738 q 867 367 883 496 q 750 91 843 190 q 483 -8 657 -8 z "},"ŭ":{"ha":746,"x_min":103,"x_max":628,"o":"m 313 -12 q 190 22 235 -12 q 124 139 144 56 q 103 372 103 222 q 119 646 103 518 q 131 677 124 668 q 150 686 138 686 q 171 678 163 686 q 179 658 179 671 l 176 626 q 160 340 160 476 q 178 156 160 222 q 230 64 196 90 q 318 38 264 38 q 546 153 440 38 q 565 224 565 176 l 569 658 q 578 678 569 669 q 599 686 588 686 q 619 678 610 686 q 628 658 628 669 l 628 22 q 618 1 628 10 q 594 -8 608 -8 q 569 3 579 -8 q 560 29 560 14 l 560 107 q 459 22 526 57 q 313 -12 392 -12 z "},"Ů":{"ha":1000,"x_min":117,"x_max":883,"o":"m 483 -8 q 222 121 314 -8 q 119 501 129 250 q 117 685 117 576 l 118 901 q 126 928 118 918 q 150 938 135 938 q 179 900 179 938 l 178 788 q 175 672 175 710 q 178 521 175 613 q 485 43 194 43 q 713 133 635 43 q 808 376 790 222 q 819 647 819 478 l 818 896 q 849 938 818 938 q 871 926 864 938 q 878 899 878 915 q 881 815 878 893 q 883 654 883 738 q 867 367 883 496 q 750 91 843 190 q 483 -8 657 -8 z "},"ů":{"ha":746,"x_min":103,"x_max":628,"o":"m 313 -12 q 190 22 235 -12 q 124 139 144 56 q 103 372 103 222 q 119 646 103 518 q 131 677 124 668 q 150 686 138 686 q 171 678 163 686 q 179 658 179 671 l 176 626 q 160 340 160 476 q 178 156 160 222 q 230 64 196 90 q 318 38 264 38 q 546 153 440 38 q 565 224 565 176 l 569 658 q 578 678 569 669 q 599 686 588 686 q 619 678 610 686 q 628 658 628 669 l 628 22 q 618 1 628 10 q 594 -8 608 -8 q 569 3 579 -8 q 560 29 560 14 l 560 107 q 459 22 526 57 q 313 -12 392 -12 z "},"Ű":{"ha":1000,"x_min":117,"x_max":883,"o":"m 483 -8 q 222 121 314 -8 q 119 501 129 250 q 117 685 117 576 l 118 901 q 126 928 118 918 q 150 938 135 938 q 179 900 179 938 l 178 788 q 175 672 175 710 q 178 521 175 613 q 485 43 194 43 q 713 133 635 43 q 808 376 790 222 q 819 647 819 478 l 818 896 q 849 938 818 938 q 871 926 864 938 q 878 899 878 915 q 881 815 878 893 q 883 654 883 738 q 867 367 883 496 q 750 91 843 190 q 483 -8 657 -8 m 374 1033 q 353 1040 363 1033 q 344 1057 344 1047 q 357 1083 344 1071 l 511 1239 q 551 1263 535 1263 q 577 1251 565 1263 q 589 1226 589 1240 q 587 1209 589 1215 q 578 1197 585 1203 l 399 1047 q 374 1033 385 1033 m 565 1032 q 545 1040 553 1032 q 538 1060 538 1049 q 546 1081 538 1074 l 721 1224 q 757 1244 744 1244 q 785 1232 774 1244 q 796 1203 796 1219 q 781 1174 796 1183 l 588 1043 q 565 1032 574 1032 z "},"ű":{"ha":746,"x_min":103,"x_max":628,"o":"m 313 -12 q 190 22 235 -12 q 124 139 144 56 q 103 372 103 222 q 119 646 103 518 q 131 677 124 668 q 150 686 138 686 q 171 678 163 686 q 179 658 179 671 l 176 626 q 160 340 160 476 q 178 156 160 222 q 230 64 196 90 q 318 38 264 38 q 546 153 440 38 q 565 224 565 176 l 569 658 q 578 678 569 669 q 599 686 588 686 q 619 678 610 686 q 628 658 628 669 l 628 22 q 618 1 628 10 q 594 -8 608 -8 q 569 3 579 -8 q 560 29 560 14 l 560 107 q 459 22 526 57 q 313 -12 392 -12 z "},"Ÿ":{"ha":796,"x_min":4,"x_max":796,"o":"m 242 -8 q 219 1 229 -8 q 210 19 210 10 q 218 42 210 28 l 363 285 l 11 888 q 7 897 10 890 q 4 910 4 903 q 14 930 4 922 q 36 938 24 938 q 60 922 51 938 l 397 343 l 740 922 q 765 938 749 938 q 786 929 776 938 q 796 910 796 921 q 786 883 796 900 l 265 7 q 242 -8 258 -8 z "},"Ź":{"ha":793,"x_min":32,"x_max":757,"o":"m 69 0 q 43 10 54 0 q 32 35 32 19 q 42 63 32 49 l 672 871 l 88 871 q 65 879 75 871 q 56 900 56 888 q 65 922 56 913 q 88 931 75 931 l 719 931 q 746 920 735 931 q 757 894 757 910 q 747 869 757 882 l 115 61 l 704 61 q 726 52 717 61 q 736 32 736 43 q 726 9 736 18 q 704 0 717 0 l 69 0 m 340 1036 q 321 1044 329 1036 q 313 1064 313 1053 q 321 1083 313 1075 l 499 1228 q 518 1242 510 1238 q 536 1247 526 1247 q 562 1235 550 1247 q 574 1206 574 1222 q 561 1181 574 1189 l 365 1046 q 340 1036 351 1036 z "},"ź":{"ha":603,"x_min":17,"x_max":582,"o":"m 47 -10 q 26 -1 35 -10 q 17 21 17 8 q 24 40 17 32 l 489 626 l 63 626 q 42 635 50 626 q 33 656 33 644 q 42 678 33 669 q 63 686 50 686 l 544 686 q 565 678 557 686 q 574 656 574 669 q 568 639 574 646 l 101 50 l 551 50 q 573 42 564 50 q 582 21 582 33 q 573 -1 582 8 q 551 -10 564 -10 l 47 -10 z "},"Ż":{"ha":793,"x_min":32,"x_max":757,"o":"m 69 0 q 43 10 54 0 q 32 35 32 19 q 42 63 32 49 l 672 871 l 88 871 q 65 879 75 871 q 56 900 56 888 q 65 922 56 913 q 88 931 75 931 l 719 931 q 746 920 735 931 q 757 894 757 910 q 747 869 757 882 l 115 61 l 704 61 q 726 52 717 61 q 736 32 736 43 q 726 9 736 18 q 704 0 717 0 l 69 0 z "},"ż":{"ha":603,"x_min":17,"x_max":582,"o":"m 47 -10 q 26 -1 35 -10 q 17 21 17 8 q 24 40 17 32 l 489 626 l 63 626 q 42 635 50 626 q 33 656 33 644 q 42 678 33 669 q 63 686 50 686 l 544 686 q 565 678 557 686 q 574 656 574 669 q 568 639 574 646 l 101 50 l 551 50 q 573 42 564 50 q 582 21 582 33 q 573 -1 582 8 q 551 -10 564 -10 l 47 -10 z "},"Ž":{"ha":793,"x_min":32,"x_max":757,"o":"m 69 0 q 43 10 54 0 q 32 35 32 19 q 42 63 32 49 l 672 871 l 88 871 q 65 879 75 871 q 56 900 56 888 q 65 922 56 913 q 88 931 75 931 l 719 931 q 746 920 735 931 q 757 894 757 910 q 747 869 757 882 l 115 61 l 704 61 q 726 52 717 61 q 736 32 736 43 q 726 9 736 18 q 704 0 717 0 l 69 0 z "},"ž":{"ha":603,"x_min":17,"x_max":582,"o":"m 47 -10 q 26 -1 35 -10 q 17 21 17 8 q 24 40 17 32 l 489 626 l 63 626 q 42 635 50 626 q 33 656 33 644 q 42 678 33 669 q 63 686 50 686 l 544 686 q 565 678 557 686 q 574 656 574 669 q 568 639 574 646 l 101 50 l 551 50 q 573 42 564 50 q 582 21 582 33 q 573 -1 582 8 q 551 -10 564 -10 l 47 -10 z "},"ˆ":{"ha":404,"x_min":0,"x_max":404,"o":"m 29 818 q 8 826 17 818 q 0 846 0 835 q 11 868 0 860 l 183 1024 q 204 1032 192 1032 q 226 1022 218 1032 l 396 867 q 404 846 404 857 q 396 826 404 835 q 378 818 388 818 q 357 825 367 818 l 204 954 l 46 824 q 29 818 40 818 z "},"ˇ":{"ha":404,"x_min":0,"x_max":404,"o":"m 188 818 q 164 826 174 818 l 10 982 q 0 1003 0 992 q 8 1023 0 1014 q 28 1032 17 1032 q 49 1024 39 1032 l 190 894 l 358 1025 q 376 1032 368 1032 q 396 1023 388 1032 q 404 1003 404 1014 q 394 981 404 990 l 208 825 q 188 818 197 818 z "},"˘":{"ha":410,"x_min":0,"x_max":410,"o":"m 203 828 q 89 856 135 828 q 22 920 43 885 q 0 975 0 956 q 8 996 0 988 q 26 1004 15 1004 q 58 979 49 1004 q 119 913 76 933 q 206 892 163 892 q 290 913 247 892 q 351 979 333 933 q 383 1004 361 1004 q 402 996 394 1004 q 410 975 410 988 q 387 920 410 956 q 317 856 364 885 q 203 828 271 828 z "},"˙":{"ha":122,"x_min":1,"x_max":122,"o":"m 57 863 q 17 876 33 863 q 1 910 1 890 q 20 949 1 932 q 65 965 39 965 q 105 951 88 965 q 122 918 122 936 q 103 878 122 894 q 57 863 83 863 z "},"˚":{"ha":310,"x_min":0,"x_max":310,"o":"m 140 789 q 41 825 82 789 q 0 914 0 861 q 24 988 0 954 q 87 1040 49 1021 q 168 1058 125 1058 q 267 1022 225 1058 q 310 932 310 985 q 285 859 310 892 q 222 808 261 826 q 140 789 183 789 m 144 843 q 226 870 194 843 q 257 932 257 897 q 230 981 257 960 q 164 1003 203 1003 q 84 976 115 1003 q 53 914 53 949 q 78 863 53 882 q 144 843 103 843 z "},"˛":{"ha":269,"x_min":0,"x_max":269,"o":"m 143 -283 q 40 -244 81 -283 q 0 -147 0 -206 q 38 -43 0 -90 q 132 36 76 4 q 150 42 139 42 q 166 35 160 42 q 172 19 172 29 q 165 5 172 13 q 139 -17 157 -3 q 79 -74 103 -43 q 56 -149 56 -106 q 80 -210 56 -186 q 142 -233 104 -233 q 215 -210 182 -233 q 226 -202 217 -208 q 243 -196 235 -196 q 262 -203 254 -196 q 269 -222 269 -211 q 224 -265 269 -246 q 143 -283 178 -283 z "},"˜":{"ha":479,"x_min":0,"x_max":479,"o":"m 333 821 q 270 840 293 821 q 215 903 247 860 q 175 951 192 936 q 142 965 158 965 q 97 943 122 965 q 57 872 72 921 q 28 847 49 847 q 8 856 17 847 q 0 875 0 864 q 21 935 0 901 q 76 990 43 968 q 143 1011 110 1011 q 206 991 182 1011 q 260 932 231 971 q 301 883 283 899 q 338 868 318 868 q 387 898 368 868 q 424 978 406 928 q 451 1000 431 1000 q 471 992 463 1000 q 479 972 479 983 q 463 917 479 953 q 407 849 442 878 q 333 821 372 821 z "},"˝":{"ha":411,"x_min":4,"x_max":401,"o":"m 29 803 q 11 809 18 803 q 4 825 4 815 q 15 853 4 836 l 147 1018 q 167 1038 158 1031 q 189 1044 176 1044 q 214 1035 204 1044 q 224 1010 224 1025 q 221 994 224 1000 q 210 979 218 988 l 58 818 q 29 803 43 803 m 190 801 q 172 808 179 801 q 165 825 165 815 q 168 839 165 833 q 178 851 171 844 l 325 1003 q 365 1028 347 1028 q 390 1017 379 1028 q 401 993 401 1007 q 383 956 401 972 l 218 814 q 190 801 203 801 z "},"–":{"ha":818,"x_min":103,"x_max":729,"o":"m 133 307 q 112 316 121 307 q 103 338 103 325 q 112 359 103 350 q 133 368 121 368 l 700 368 q 721 359 713 368 q 729 338 729 350 q 721 316 729 325 q 700 307 713 307 l 133 307 z "},"—":{"ha":1169,"x_min":74,"x_max":1094,"o":"m 104 307 q 83 316 92 307 q 74 338 74 325 q 83 359 74 350 q 104 368 92 368 l 1064 368 q 1086 359 1078 368 q 1094 338 1094 350 q 1086 316 1094 325 q 1064 307 1078 307 l 104 307 z "},"‘":{"ha":244,"x_min":83,"x_max":186,"o":"m 119 778 q 94 789 104 778 q 83 813 83 800 q 88 844 83 831 q 108 901 92 858 l 119 928 q 146 984 138 969 q 164 999 154 999 q 180 993 174 999 q 186 981 186 988 q 183 967 186 972 l 147 871 q 167 831 167 854 q 152 794 167 810 q 119 778 138 778 z "},"’":{"ha":244,"x_min":58,"x_max":161,"o":"m 81 794 q 65 801 71 794 q 58 814 58 807 q 61 826 58 821 l 97 922 q 79 963 79 940 q 93 1001 79 985 q 125 1017 107 1017 q 151 1006 140 1017 q 161 981 161 994 q 157 948 161 963 q 136 893 153 933 q 124 863 128 871 q 99 808 107 821 q 81 794 92 794 z "},"‚":{"ha":353,"x_min":131,"x_max":233,"o":"m 153 -142 q 137 -135 143 -142 q 131 -122 131 -129 q 133 -110 131 -115 l 169 -14 q 151 26 151 4 q 165 65 151 49 q 199 81 179 81 q 223 69 213 81 q 233 44 233 57 q 229 12 233 26 q 208 -43 225 -3 q 192 -85 204 -53 q 171 -130 179 -118 q 153 -142 163 -142 z "},"“":{"ha":422,"x_min":75,"x_max":364,"o":"m 111 769 q 85 781 96 769 q 75 804 75 792 q 79 836 75 822 q 100 893 83 850 l 111 919 q 138 976 129 961 q 156 990 146 990 q 172 985 165 990 q 178 972 178 979 q 175 958 178 964 l 139 863 q 158 822 158 846 q 144 785 158 801 q 111 769 129 769 m 297 778 q 272 789 282 778 q 261 813 261 800 q 265 844 261 831 q 286 901 269 858 l 297 928 q 324 984 315 969 q 342 999 332 999 q 358 993 351 999 q 364 981 364 988 q 361 967 364 972 l 325 871 q 344 831 344 854 q 330 794 344 810 q 297 778 315 778 z "},"”":{"ha":433,"x_min":58,"x_max":350,"o":"m 81 786 q 65 792 71 786 q 58 806 58 799 q 61 818 58 813 l 97 914 q 79 954 79 932 q 93 992 79 976 q 125 1008 107 1008 q 151 997 140 1008 q 161 972 161 986 q 157 940 161 954 q 136 885 153 925 q 124 854 128 863 q 99 799 107 813 q 81 786 92 786 m 269 794 q 253 801 260 794 q 247 814 247 807 q 250 826 247 821 l 286 922 q 268 963 268 940 q 282 1001 268 985 q 314 1017 296 1017 q 340 1006 329 1017 q 350 981 350 994 q 346 948 350 963 q 325 893 342 933 q 313 863 317 871 q 288 808 296 821 q 269 794 281 794 z "},"„":{"ha":531,"x_min":122,"x_max":419,"o":"m 144 -142 q 128 -135 135 -142 q 122 -122 122 -129 q 125 -110 122 -115 l 161 -14 q 142 26 142 3 q 156 65 142 49 q 189 81 171 81 q 215 69 204 81 q 225 44 225 58 q 221 12 225 26 q 200 -43 217 -3 q 182 -87 194 -56 q 161 -130 169 -118 q 144 -142 153 -142 m 339 -142 q 323 -135 329 -142 q 317 -122 317 -129 q 319 -110 317 -115 l 356 -14 q 338 26 338 4 q 351 65 338 49 q 383 81 365 81 q 409 69 399 81 q 419 44 419 58 q 415 12 419 26 q 394 -43 411 -3 q 382 -74 386 -65 q 358 -128 365 -115 q 339 -142 350 -142 z "},"•":{"ha":419,"x_min":96,"x_max":331,"o":"m 214 226 q 131 260 165 226 q 96 343 96 294 q 131 426 96 392 q 214 461 165 461 q 296 426 261 461 q 331 343 331 392 q 297 261 331 296 q 214 226 263 226 z "},"…":{"ha":926,"x_min":56,"x_max":871,"o":"m 92 -8 q 65 5 75 -8 q 56 36 56 18 q 70 74 56 57 q 103 90 85 90 q 128 78 117 90 q 139 50 139 65 q 124 9 139 26 q 92 -8 110 -8 m 456 -8 q 431 5 440 -8 q 421 36 421 18 q 435 74 421 57 q 467 90 449 90 q 492 78 481 90 q 503 50 503 65 q 489 9 503 26 q 456 -8 475 -8 m 822 -8 q 797 5 807 -8 q 786 36 786 18 q 801 74 786 57 q 835 90 817 90 q 860 78 849 90 q 871 50 871 65 q 856 9 871 26 q 822 -8 842 -8 z "},"‹":{"ha":489,"x_min":93,"x_max":410,"o":"m 357 99 q 336 107 349 99 l 103 315 q 93 338 93 325 q 103 361 93 353 l 360 582 q 381 590 371 590 q 401 582 392 590 q 410 561 410 574 q 399 538 410 549 l 169 338 l 376 150 q 388 128 388 140 q 378 108 388 117 q 357 99 369 99 z "},"›":{"ha":489,"x_min":79,"x_max":396,"o":"m 132 99 q 110 108 119 99 q 101 128 101 117 q 111 150 101 140 l 319 338 l 90 538 q 79 561 79 549 q 88 582 79 574 q 108 590 97 590 q 129 582 118 590 l 385 361 q 396 338 396 351 q 385 315 396 324 l 153 107 q 132 99 140 99 z "},"⁄":{"ha":199,"x_min":-179,"x_max":378,"o":"m -157 -11 q -172 -5 -165 -11 q -179 10 -179 1 q -174 26 -179 17 l 336 947 q 356 960 343 960 q 372 954 365 960 q 378 940 378 949 q 372 921 378 935 l -137 1 q -157 -11 -144 -11 z "},"™":{"ha":646,"x_min":14,"x_max":590,"o":"m 132 667 q 116 673 122 667 q 110 689 110 679 l 110 914 l 35 914 q 20 921 26 914 q 14 936 14 928 q 20 950 14 944 q 35 956 26 956 l 233 956 q 249 950 243 956 q 254 936 254 944 q 249 921 254 928 q 233 914 243 914 l 153 914 l 153 689 q 147 674 153 681 q 132 667 140 667 m 256 667 q 242 673 249 667 q 236 688 236 679 q 238 701 236 694 q 242 713 240 708 l 299 939 q 319 956 303 956 q 339 942 332 956 l 408 743 l 488 943 q 508 956 494 956 q 522 951 517 956 q 528 939 526 946 l 588 707 l 590 689 q 585 673 590 679 q 569 667 579 667 q 550 683 554 667 l 501 868 l 426 682 q 407 667 419 667 q 388 685 393 667 l 322 867 l 276 683 q 256 667 272 667 z "},"−":{"ha":621,"x_min":81,"x_max":540,"o":"m 110 311 q 90 320 99 311 q 81 340 81 329 q 90 361 81 353 q 110 369 99 369 l 511 369 q 531 361 522 369 q 540 340 540 353 q 531 320 540 329 q 511 311 522 311 l 110 311 z "},"ı":{"ha":322,"x_min":125,"x_max":197,"o":"m 157 -8 q 135 1 144 -8 q 125 24 125 10 l 133 649 q 143 671 133 661 q 165 681 153 681 q 188 672 179 681 q 197 649 197 663 l 189 24 q 179 1 189 11 q 157 -8 169 -8 z "},"ȷ":{"ha":328,"x_min":-146,"x_max":208,"o":"m 44 -267 q -74 -215 -25 -267 q -143 -107 -122 -162 q -146 -94 -146 -99 q -137 -75 -146 -83 q -114 -67 -128 -67 q -85 -90 -94 -67 q 44 -214 -36 -214 q 124 -158 101 -214 q 146 -25 146 -101 q 139 542 146 129 l 138 657 q 146 680 138 671 q 168 689 154 689 q 190 681 181 689 q 200 658 200 672 l 207 -6 q 169 -194 208 -122 q 44 -267 131 -267 z "},"⁴":{"ha":338,"x_min":-4,"x_max":333,"o":"m 257 626 q 240 634 247 626 q 233 651 233 642 l 233 757 l 21 760 q 3 767 10 760 q -4 782 -4 774 q 1 799 -4 790 l 233 1143 q 256 1156 242 1156 q 273 1149 267 1156 q 279 1131 279 1142 l 279 801 l 310 801 q 326 795 319 801 q 333 779 333 789 q 326 764 333 771 q 310 757 319 757 l 279 757 l 279 651 q 272 634 279 642 q 257 626 265 626 m 233 1065 l 56 803 l 233 801 l 233 1065 z "},"­":{"ha":558,"x_min":74,"x_max":485,"o":"m 103 310 q 83 319 92 310 q 74 339 74 328 q 83 359 74 350 q 103 368 92 368 l 456 368 q 476 359 467 368 q 485 339 485 350 q 476 319 485 328 q 456 310 467 310 l 103 310 z "},"«":{"ha":781,"x_min":93,"x_max":703,"o":"m 357 90 q 336 99 349 90 l 103 307 q 93 329 93 317 q 103 353 93 344 l 360 574 q 381 582 371 582 q 401 574 392 582 q 410 553 410 565 q 399 529 410 540 l 169 329 l 376 142 q 388 119 388 132 q 378 99 388 108 q 357 90 369 90 m 650 99 q 629 107 642 99 l 396 315 q 386 338 386 325 q 396 361 386 353 l 653 582 q 674 590 664 590 q 694 582 685 590 q 703 561 703 574 q 692 538 703 549 l 463 338 l 669 150 q 681 128 681 140 q 672 108 681 117 q 650 99 663 99 z "},"»":{"ha":781,"x_min":79,"x_max":688,"o":"m 132 90 q 110 99 119 90 q 101 119 101 108 q 111 142 101 132 l 319 329 l 90 529 q 79 553 79 540 q 88 574 79 565 q 108 582 97 582 q 129 574 118 582 l 385 353 q 396 329 396 343 q 385 307 396 315 l 153 99 q 132 90 140 90 m 424 99 q 402 108 411 99 q 393 128 393 117 q 403 150 393 140 l 611 338 l 382 538 q 371 561 371 549 q 380 582 371 574 q 400 590 389 590 q 421 582 410 590 l 676 361 q 688 338 688 351 q 676 315 688 324 l 444 107 q 424 99 432 99 z "}," ":{"ha":449,"x_min":0,"x_max":0,"o":""},"€":{"ha":911,"x_min":86,"x_max":836,"o":"m 589 -8 q 400 46 489 -8 q 256 187 311 100 q 197 365 200 274 l 117 365 q 94 374 103 365 q 86 394 86 382 q 95 417 86 407 q 117 426 104 426 l 196 426 q 211 542 197 479 l 117 542 q 95 551 104 542 q 86 574 86 561 q 94 595 86 586 q 117 604 103 604 l 229 604 q 300 751 249 668 q 431 896 351 833 q 606 958 510 958 q 724 940 671 958 q 828 881 778 922 q 836 861 836 875 q 828 841 836 849 q 811 833 821 833 q 783 844 796 833 q 599 901 707 901 q 471 853 535 901 q 358 736 407 806 q 288 604 310 667 l 578 604 q 601 595 592 604 q 610 574 610 586 q 601 551 610 561 q 578 542 592 542 l 268 542 q 250 426 254 485 l 578 425 q 601 416 592 425 q 610 394 610 407 q 601 373 610 382 q 578 364 592 364 l 251 364 q 317 195 261 267 q 447 86 372 124 q 583 49 521 49 q 749 83 675 49 q 771 90 763 90 q 789 82 782 90 q 796 63 796 74 q 779 35 796 43 q 589 -8 686 -8 z "},"∕":{"ha":551,"x_min":81,"x_max":468,"o":"m 107 -256 q 88 -248 96 -256 q 81 -229 81 -240 q 83 -222 81 -226 q 86 -211 85 -217 l 419 1008 q 428 1020 422 1015 q 443 1025 435 1025 q 462 1017 456 1025 q 468 1000 468 1010 q 463 978 468 992 l 128 -243 q 107 -256 125 -256 z "},"µ":{"ha":685,"x_min":92,"x_max":615,"o":"m 586 686 q 606 678 597 686 q 615 658 615 669 l 615 22 q 606 1 615 10 q 582 -8 596 -8 q 558 3 568 -8 q 549 29 549 14 l 549 106 q 446 22 515 57 q 303 -12 376 -12 q 226 0 264 -12 q 164 40 189 13 q 188 -153 168 -26 q 197 -235 197 -221 q 190 -258 197 -249 q 169 -267 182 -267 q 139 -240 143 -267 q 92 356 92 76 q 97 513 92 429 q 108 646 103 597 q 119 678 113 671 q 140 686 126 686 q 160 679 151 686 q 168 660 168 672 l 165 621 q 151 340 151 503 q 169 151 151 217 q 219 61 186 85 q 308 38 253 38 q 438 73 378 38 q 529 144 497 108 q 554 225 554 174 l 558 658 q 567 678 558 669 q 586 686 575 686 z "},"̈":{"ha":0,"x_min":-344,"x_max":0,"o":"m -289 840 q -328 853 -312 840 q -344 886 -344 867 q -326 925 -344 908 q -281 942 -307 942 q -241 927 -258 942 q -224 894 -224 913 q -242 856 -224 872 q -289 840 -261 840 m -64 840 q -103 853 -87 840 q -119 886 -119 867 q -101 925 -119 908 q -56 942 -82 942 q -17 927 -33 942 q 0 894 0 913 q -19 856 0 872 q -64 840 -37 840 z "},"̇":{"ha":0,"x_min":-121,"x_max":0,"o":"m -65 863 q -105 876 -89 863 q -121 910 -121 890 q -102 949 -121 932 q -57 965 -83 965 q -17 951 -35 965 q 0 918 0 936 q -19 878 0 894 q -65 863 -39 863 z "},"̀":{"ha":0,"x_min":-233,"x_max":-6,"o":"m -35 800 q -56 810 -46 800 l -221 979 q -233 1007 -233 992 q -221 1034 -233 1024 q -192 1044 -208 1044 q -161 1029 -172 1044 l -14 847 q -6 826 -6 835 q -15 807 -6 814 q -35 800 -24 800 z "},"́":{"ha":0,"x_min":-231,"x_max":-1,"o":"m -200 800 q -221 808 -211 800 q -231 826 -231 815 q -221 847 -231 836 l -75 1029 q -43 1044 -61 1044 q -14 1034 -26 1044 q -1 1007 -1 1024 q -14 979 -1 994 l -181 810 q -200 800 -187 800 z "},"̋":{"ha":0,"x_min":-447,"x_max":-50,"o":"m -422 803 q -440 809 -433 803 q -447 825 -447 815 q -436 853 -447 836 l -304 1018 q -284 1038 -293 1031 q -262 1044 -275 1044 q -237 1035 -247 1044 q -228 1010 -228 1025 q -231 994 -228 1000 q -242 979 -233 988 l -393 818 q -422 803 -408 803 m -261 801 q -279 808 -272 801 q -286 825 -286 815 q -283 839 -286 833 q -274 851 -281 844 l -126 1003 q -86 1028 -104 1028 q -61 1017 -72 1028 q -50 993 -50 1007 q -68 956 -50 972 l -233 814 q -261 801 -249 801 z "},"̂":{"ha":0,"x_min":-404,"x_max":0,"o":"m -375 818 q -396 826 -387 818 q -404 846 -404 835 q -393 868 -404 860 l -221 1024 q -200 1032 -212 1032 q -178 1022 -186 1032 l -8 867 q 0 846 0 857 q -8 826 0 835 q -26 818 -17 818 q -47 825 -37 818 l -200 954 l -358 824 q -375 818 -364 818 z "},"̌":{"ha":0,"x_min":-404,"x_max":0,"o":"m -217 818 q -240 826 -231 818 l -394 982 q -404 1003 -404 992 q -396 1023 -404 1014 q -376 1032 -387 1032 q -356 1024 -365 1032 l -214 894 l -46 1025 q -28 1032 -36 1032 q -8 1023 -17 1032 q 0 1003 0 1014 q -10 981 0 990 l -196 825 q -217 818 -207 818 z "},"̆":{"ha":0,"x_min":-410,"x_max":0,"o":"m -207 828 q -321 856 -275 828 q -388 920 -367 885 q -410 975 -410 956 q -402 996 -410 988 q -383 1004 -394 1004 q -351 979 -361 1004 q -290 913 -333 933 q -204 892 -247 892 q -119 913 -162 892 q -58 979 -76 933 q -26 1004 -49 1004 q -8 996 -15 1004 q 0 975 0 988 q -23 920 0 956 q -92 856 -46 885 q -207 828 -139 828 z "},"̊":{"ha":0,"x_min":-310,"x_max":0,"o":"m -169 789 q -269 825 -228 789 q -310 914 -310 861 q -285 988 -310 954 q -223 1040 -261 1021 q -142 1058 -185 1058 q -42 1022 -85 1058 q 0 932 0 985 q -24 859 0 892 q -87 808 -49 826 q -169 789 -126 789 m -165 843 q -84 870 -115 843 q -53 932 -53 897 q -80 981 -53 960 q -146 1003 -107 1003 q -226 976 -194 1003 q -257 914 -257 949 q -232 863 -257 882 q -165 843 -207 843 z "},"̃":{"ha":0,"x_min":-479,"x_max":0,"o":"m -146 811 q -209 831 -186 811 q -264 893 -232 850 q -304 941 -287 926 q -337 956 -321 956 q -382 933 -357 956 q -422 863 -407 911 q -451 838 -431 838 q -471 846 -462 838 q -479 865 -479 854 q -458 925 -479 892 q -403 980 -436 958 q -336 1001 -369 1001 q -273 981 -297 1001 q -219 922 -249 961 q -178 874 -196 889 q -142 858 -161 858 q -92 888 -111 858 q -56 968 -74 918 q -28 990 -49 990 q -8 982 -17 990 q 0 963 0 974 q -17 907 0 943 q -72 840 -37 868 q -146 811 -107 811 z "},"̄":{"ha":0,"x_min":-350,"x_max":0,"o":"m -324 853 q -342 861 -333 853 q -350 881 -350 869 q -342 899 -350 892 q -324 907 -333 907 l -25 907 q -8 899 -15 907 q 0 881 0 892 q -8 861 0 869 q -25 853 -15 853 l -324 853 z "},"̦":{"ha":0,"x_min":-103,"x_max":0,"o":"m -81 -281 q -97 -275 -90 -281 q -103 -261 -103 -269 q -100 -249 -103 -254 l -64 -153 q -82 -112 -82 -135 q -68 -74 -82 -90 q -35 -58 -54 -58 q -10 -70 -21 -58 q 0 -94 0 -82 q -4 -126 0 -112 q -25 -183 -8 -140 q -42 -226 -29 -194 q -62 -269 -54 -257 q -81 -281 -71 -281 z "},"̧":{"ha":0,"x_min":-236,"x_max":0,"o":"m -114 -46 q -34 -79 -68 -46 q 0 -160 0 -112 q -38 -249 0 -211 q -129 -286 -76 -286 q -204 -265 -172 -286 q -236 -215 -236 -243 q -229 -197 -236 -204 q -211 -190 -222 -190 q -186 -206 -196 -190 q -128 -239 -168 -239 q -74 -217 -96 -239 q -53 -162 -53 -194 q -74 -112 -53 -132 q -126 -92 -94 -92 q -165 -102 -147 -92 q -193 -112 -183 -112 q -208 -106 -201 -112 q -214 -90 -214 -100 q -206 -54 -214 -83 q -194 -14 -197 -25 l -185 19 q -161 46 -179 46 q -146 38 -151 46 q -143 18 -140 31 l -153 -53 q -114 -46 -136 -46 z "},"̨":{"ha":0,"x_min":-269,"x_max":0,"o":"m -126 -283 q -229 -244 -189 -283 q -269 -147 -269 -206 q -231 -43 -269 -90 q -137 36 -193 4 q -119 42 -131 42 q -103 35 -110 42 q -97 19 -97 29 q -105 5 -97 13 q -131 -17 -112 -3 q -190 -74 -167 -43 q -214 -149 -214 -106 q -190 -210 -214 -186 q -128 -233 -165 -233 q -54 -210 -87 -233 q -44 -202 -53 -208 q -26 -196 -35 -196 q -8 -203 -15 -196 q 0 -222 0 -211 q -46 -265 0 -246 q -126 -283 -92 -283 z "}}}
